0
SECTION
2
ENTITIES
0
POLYLINE
8
0
66
1
70
1
0
VERTEX
8
0
10
208.0000
20
0.2656
30
0.0
0
VERTEX
8
0
10
207.9870
20
0.2683
30
0.0
0
VERTEX
8
0
10
207.9482
20
0.2763
30
0.0
0
VERTEX
8
0
10
207.8834
20
0.2898
30
0.0
0
VERTEX
8
0
10
207.7927
20
0.3085
30
0.0
0
VERTEX
8
0
10
207.6762
20
0.3326
30
0.0
0
VERTEX
8
0
10
207.5338
20
0.3621
30
0.0
0
VERTEX
8
0
10
207.3656
20
0.3968
30
0.0
0
VERTEX
8
0
10
207.1717
20
0.4368
30
0.0
0
VERTEX
8
0
10
206.9520
20
0.4820
30
0.0
0
VERTEX
8
0
10
206.7067
20
0.5324
30
0.0
0
VERTEX
8
0
10
206.4358
20
0.5880
30
0.0
0
VERTEX
8
0
10
206.1394
20
0.6487
30
0.0
0
VERTEX
8
0
10
205.8175
20
0.7144
30
0.0
0
VERTEX
8
0
10
205.4702
20
0.7852
30
0.0
0
VERTEX
8
0
10
205.0977
20
0.8609
30
0.0
0
VERTEX
8
0
10
204.6999
20
0.9416
30
0.0
0
VERTEX
8
0
10
204.2771
20
1.0270
30
0.0
0
VERTEX
8
0
10
203.8292
20
1.1173
30
0.0
0
VERTEX
8
0
10
203.3565
20
1.2122
30
0.0
0
VERTEX
8
0
10
202.8590
20
1.3118
30
0.0
0
VERTEX
8
0
10
202.3369
20
1.4160
30
0.0
0
VERTEX
8
0
10
201.7903
20
1.5246
30
0.0
0
VERTEX
8
0
10
201.2193
20
1.6376
30
0.0
0
VERTEX
8
0
10
200.6241
20
1.7550
30
0.0
0
VERTEX
8
0
10
200.0047
20
1.8765
30
0.0
0
VERTEX
8
0
10
199.3615
20
2.0023
30
0.0
0
VERTEX
8
0
10
198.6945
20
2.1320
30
0.0
0
VERTEX
8
0
10
198.0039
20
2.2658
30
0.0
0
VERTEX
8
0
10
197.2899
20
2.4034
30
0.0
0
VERTEX
8
0
10
196.5526
20
2.5447
30
0.0
0
VERTEX
8
0
10
195.7923
20
2.6898
30
0.0
0
VERTEX
8
0
10
195.0091
20
2.8384
30
0.0
0
VERTEX
8
0
10
194.2031
20
2.9904
30
0.0
0
VERTEX
8
0
10
193.3748
20
3.1459
30
0.0
0
VERTEX
8
0
10
192.5241
20
3.3045
30
0.0
0
VERTEX
8
0
10
191.6514
20
3.4664
30
0.0
0
VERTEX
8
0
10
190.7568
20
3.6313
30
0.0
0
VERTEX
8
0
10
189.8407
20
3.7991
30
0.0
0
VERTEX
8
0
10
188.9031
20
3.9697
30
0.0
0
VERTEX
8
0
10
187.9443
20
4.1430
30
0.0
0
VERTEX
8
0
10
186.9647
20
4.3189
30
0.0
0
VERTEX
8
0
10
185.9643
20
4.4973
30
0.0
0
VERTEX
8
0
10
184.9436
20
4.6781
30
0.0
0
VERTEX
8
0
10
183.9027
20
4.8611
30
0.0
0
VERTEX
8
0
10
182.8418
20
5.0463
30
0.0
0
VERTEX
8
0
10
181.7613
20
5.2334
30
0.0
0
VERTEX
8
0
10
180.6614
20
5.4224
30
0.0
0
VERTEX
8
0
10
179.5425
20
5.6132
30
0.0
0
VERTEX
8
0
10
178.4046
20
5.8057
30
0.0
0
VERTEX
8
0
10
177.2483
20
5.9996
30
0.0
0
VERTEX
8
0
10
176.0737
20
6.1950
30
0.0
0
VERTEX
8
0
10
174.8811
20
6.3916
30
0.0
0
VERTEX
8
0
10
173.6709
20
6.5894
30
0.0
0
VERTEX
8
0
10
172.4433
20
6.7883
30
0.0
0
VERTEX
8
0
10
171.1986
20
6.9880
30
0.0
0
VERTEX
8
0
10
169.9372
20
7.1885
30
0.0
0
VERTEX
8
0
10
168.6594
20
7.3897
30
0.0
0
VERTEX
8
0
10
167.3654
20
7.5913
30
0.0
0
VERTEX
8
0
10
166.0557
20
7.7934
30
0.0
0
VERTEX
8
0
10
164.7305
20
7.9958
30
0.0
0
VERTEX
8
0
10
163.3902
20
8.1983
30
0.0
0
VERTEX
8
0
10
162.0350
20
8.4009
30
0.0
0
VERTEX
8
0
10
160.6654
20
8.6034
30
0.0
0
VERTEX
8
0
10
159.2817
20
8.8056
30
0.0
0
VERTEX
8
0
10
157.8842
20
9.0075
30
0.0
0
VERTEX
8
0
10
156.4732
20
9.2090
30
0.0
0
VERTEX
8
0
10
155.0492
20
9.4098
30
0.0
0
VERTEX
8
0
10
153.6125
20
9.6100
30
0.0
0
VERTEX
8
0
10
152.1634
20
9.8093
30
0.0
0
VERTEX
8
0
10
150.7023
20
10.0078
30
0.0
0
VERTEX
8
0
10
149.2295
20
10.2051
30
0.0
0
VERTEX
8
0
10
147.7455
20
10.4013
30
0.0
0
VERTEX
8
0
10
146.2506
20
10.5962
30
0.0
0
VERTEX
8
0
10
144.7452
20
10.7897
30
0.0
0
VERTEX
8
0
10
143.2296
20
10.9817
30
0.0
0
VERTEX
8
0
10
141.7042
20
11.1721
30
0.0
0
VERTEX
8
0
10
140.1694
20
11.3608
30
0.0
0
VERTEX
8
0
10
138.6256
20
11.5476
30
0.0
0
VERTEX
8
0
10
137.0732
20
11.7326
30
0.0
0
VERTEX
8
0
10
135.5125
20
11.9154
30
0.0
0
VERTEX
8
0
10
133.9440
20
12.0961
30
0.0
0
VERTEX
8
0
10
132.3680
20
12.2746
30
0.0
0
VERTEX
8
0
10
130.7850
20
12.4507
30
0.0
0
VERTEX
8
0
10
129.1953
20
12.6243
30
0.0
0
VERTEX
8
0
10
127.5993
20
12.7954
30
0.0
0
VERTEX
8
0
10
125.9974
20
12.9638
30
0.0
0
VERTEX
8
0
10
124.3900
20
13.1294
30
0.0
0
VERTEX
8
0
10
122.7776
20
13.2922
30
0.0
0
VERTEX
8
0
10
121.1605
20
13.4519
30
0.0
0
VERTEX
8
0
10
119.5390
20
13.6086
30
0.0
0
VERTEX
8
0
10
117.9138
20
13.7621
30
0.0
0
VERTEX
8
0
10
116.2850
20
13.9123
30
0.0
0
VERTEX
8
0
10
114.6532
20
14.0590
30
0.0
0
VERTEX
8
0
10
113.0188
20
14.2023
30
0.0
0
VERTEX
8
0
10
111.3821
20
14.3418
30
0.0
0
VERTEX
8
0
10
109.7435
20
14.4776
30
0.0
0
VERTEX
8
0
10
108.1035
20
14.6096
30
0.0
0
VERTEX
8
0
10
106.4625
20
14.7375
30
0.0
0
VERTEX
8
0
10
104.8209
20
14.8613
30
0.0
0
VERTEX
8
0
10
103.1791
20
14.9808
30
0.0
0
VERTEX
8
0
10
101.5375
20
15.0959
30
0.0
0
VERTEX
8
0
10
99.8965
20
15.2066
30
0.0
0
VERTEX
8
0
10
98.2565
20
15.3126
30
0.0
0
VERTEX
8
0
10
96.6179
20
15.4138
30
0.0
0
VERTEX
8
0
10
94.9812
20
15.5101
30
0.0
0
VERTEX
8
0
10
93.3468
20
15.6013
30
0.0
0
VERTEX
8
0
10
91.7150
20
15.6874
30
0.0
0
VERTEX
8
0
10
90.0862
20
15.7681
30
0.0
0
VERTEX
8
0
10
88.4610
20
15.8433
30
0.0
0
VERTEX
8
0
10
86.8395
20
15.9130
30
0.0
0
VERTEX
8
0
10
85.2224
20
15.9769
30
0.0
0
VERTEX
8
0
10
83.6100
20
16.0350
30
0.0
0
VERTEX
8
0
10
82.0026
20
16.0870
30
0.0
0
VERTEX
8
0
10
80.4007
20
16.1329
30
0.0
0
VERTEX
8
0
10
78.8047
20
16.1726
30
0.0
0
VERTEX
8
0
10
77.2150
20
16.2059
30
0.0
0
VERTEX
8
0
10
75.6320
20
16.2327
30
0.0
0
VERTEX
8
0
10
74.0560
20
16.2529
30
0.0
0
VERTEX
8
0
10
72.4875
20
16.2663
30
0.0
0
VERTEX
8
0
10
70.9268
20
16.2730
30
0.0
0
VERTEX
8
0
10
69.3744
20
16.2728
30
0.0
0
VERTEX
8
0
10
67.8306
20
16.2656
30
0.0
0
VERTEX
8
0
10
66.2958
20
16.2514
30
0.0
0
VERTEX
8
0
10
64.7704
20
16.2300
30
0.0
0
VERTEX
8
0
10
63.2548
20
16.2015
30
0.0
0
VERTEX
8
0
10
61.7494
20
16.1658
30
0.0
0
VERTEX
8
0
10
60.2545
20
16.1228
30
0.0
0
VERTEX
8
0
10
58.7705
20
16.0726
30
0.0
0
VERTEX
8
0
10
57.2977
20
16.0151
30
0.0
0
VERTEX
8
0
10
55.8366
20
15.9504
30
0.0
0
VERTEX
8
0
10
54.3875
20
15.8784
30
0.0
0
VERTEX
8
0
10
52.9508
20
15.7991
30
0.0
0
VERTEX
8
0
10
51.5268
20
15.7127
30
0.0
0
VERTEX
8
0
10
50.1158
20
15.6191
30
0.0
0
VERTEX
8
0
10
48.7183
20
15.5184
30
0.0
0
VERTEX
8
0
10
47.3346
20
15.4107
30
0.0
0
VERTEX
8
0
10
45.9650
20
15.2960
30
0.0
0
VERTEX
8
0
10
44.6098
20
15.1745
30
0.0
0
VERTEX
8
0
10
43.2695
20
15.0462
30
0.0
0
VERTEX
8
0
10
41.9443
20
14.9112
30
0.0
0
VERTEX
8
0
10
40.6346
20
14.7697
30
0.0
0
VERTEX
8
0
10
39.3406
20
14.6217
30
0.0
0
VERTEX
8
0
10
38.0628
20
14.4674
30
0.0
0
VERTEX
8
0
10
36.8014
20
14.3070
30
0.0
0
VERTEX
8
0
10
35.5567
20
14.1405
30
0.0
0
VERTEX
8
0
10
34.3291
20
13.9681
30
0.0
0
VERTEX
8
0
10
33.1189
20
13.7899
30
0.0
0
VERTEX
8
0
10
31.9263
20
13.6062
30
0.0
0
VERTEX
8
0
10
30.7517
20
13.4170
30
0.0
0
VERTEX
8
0
10
29.5954
20
13.2224
30
0.0
0
VERTEX
8
0
10
28.4575
20
13.0228
30
0.0
0
VERTEX
8
0
10
27.3386
20
12.8181
30
0.0
0
VERTEX
8
0
10
26.2387
20
12.6085
30
0.0
0
VERTEX
8
0
10
25.1582
20
12.3943
30
0.0
0
VERTEX
8
0
10
24.0973
20
12.1754
30
0.0
0
VERTEX
8
0
10
23.0564
20
11.9522
30
0.0
0
VERTEX
8
0
10
22.0357
20
11.7247
30
0.0
0
VERTEX
8
0
10
21.0353
20
11.4931
30
0.0
0
VERTEX
8
0
10
20.0557
20
11.2575
30
0.0
0
VERTEX
8
0
10
19.0969
20
11.0180
30
0.0
0
VERTEX
8
0
10
18.1593
20
10.7749
30
0.0
0
VERTEX
8
0
10
17.2432
20
10.5281
30
0.0
0
VERTEX
8
0
10
16.3486
20
10.2778
30
0.0
0
VERTEX
8
0
10
15.4759
20
10.0243
30
0.0
0
VERTEX
8
0
10
14.6252
20
9.7675
30
0.0
0
VERTEX
8
0
10
13.7969
20
9.5076
30
0.0
0
VERTEX
8
0
10
12.9909
20
9.2447
30
0.0
0
VERTEX
8
0
10
12.2077
20
8.9790
30
0.0
0
VERTEX
8
0
10
11.4474
20
8.7105
30
0.0
0
VERTEX
8
0
10
10.7101
20
8.4394
30
0.0
0
VERTEX
8
0
10
9.9961
20
8.1658
30
0.0
0
VERTEX
8
0
10
9.3055
20
7.8898
30
0.0
0
VERTEX
8
0
10
8.6385
20
7.6115
30
0.0
0
VERTEX
8
0
10
7.9953
20
7.3310
30
0.0
0
VERTEX
8
0
10
7.3759
20
7.0485
30
0.0
0
VERTEX
8
0
10
6.7807
20
6.7641
30
0.0
0
VERTEX
8
0
10
6.2097
20
6.4778
30
0.0
0
VERTEX
8
0
10
5.6631
20
6.1899
30
0.0
0
VERTEX
8
0
10
5.1410
20
5.9005
30
0.0
0
VERTEX
8
0
10
4.6435
20
5.6096
30
0.0
0
VERTEX
8
0
10
4.1708
20
5.3174
30
0.0
0
VERTEX
8
0
10
3.7229
20
5.0241
30
0.0
0
VERTEX
8
0
10
3.3001
20
4.7297
30
0.0
0
VERTEX
8
0
10
2.9023
20
4.4345
30
0.0
0
VERTEX
8
0
10
2.5298
20
4.1386
30
0.0
0
VERTEX
8
0
10
2.1825
20
3.8421
30
0.0
0
VERTEX
8
0
10
1.8606
20
3.5451
30
0.0
0
VERTEX
8
0
10
1.5642
20
3.2479
30
0.0
0
VERTEX
8
0
10
1.2933
20
2.9505
30
0.0
0
VERTEX
8
0
10
1.0480
20
2.6531
30
0.0
0
VERTEX
8
0
10
0.8283
20
2.3558
30
0.0
0
VERTEX
8
0
10
0.6344
20
2.0589
30
0.0
0
VERTEX
8
0
10
0.4662
20
1.7624
30
0.0
0
VERTEX
8
0
10
0.3238
20
1.4665
30
0.0
0
VERTEX
8
0
10
0.2073
20
1.1712
30
0.0
0
VERTEX
8
0
10
0.1166
20
0.8769
30
0.0
0
VERTEX
8
0
10
0.0518
20
0.5835
30
0.0
0
VERTEX
8
0
10
0.0130
20
0.2911
30
0.0
0
VERTEX
8
0
10
0.0000
20
0.0000
30
0.0
0
VERTEX
8
0
10
0.0130
20
-0.2786
30
0.0
0
VERTEX
8
0
10
0.0518
20
-0.5556
30
0.0
0
VERTEX
8
0
10
0.1166
20
-0.8307
30
0.0
0
VERTEX
8
0
10
0.2073
20
-1.1036
30
0.0
0
VERTEX
8
0
10
0.3238
20
-1.3740
30
0.0
0
VERTEX
8
0
10
0.4662
20
-1.6417
30
0.0
0
VERTEX
8
0
10
0.6344
20
-1.9063
30
0.0
0
VERTEX
8
0
10
0.8283
20
-2.1676
30
0.0
0
VERTEX
8
0
10
1.0480
20
-2.4254
30
0.0
0
VERTEX
8
0
10
1.2933
20
-2.6794
30
0.0
0
VERTEX
8
0
10
1.5642
20
-2.9294
30
0.0
0
VERTEX
8
0
10
1.8606
20
-3.1752
30
0.0
0
VERTEX
8
0
10
2.1825
20
-3.4167
30
0.0
0
VERTEX
8
0
10
2.5298
20
-3.6537
30
0.0
0
VERTEX
8
0
10
2.9023
20
-3.8860
30
0.0
0
VERTEX
8
0
10
3.3001
20
-4.1135
30
0.0
0
VERTEX
8
0
10
3.7229
20
-4.3361
30
0.0
0
VERTEX
8
0
10
4.1708
20
-4.5537
30
0.0
0
VERTEX
8
0
10
4.6435
20
-4.7662
30
0.0
0
VERTEX
8
0
10
5.1410
20
-4.9735
30
0.0
0
VERTEX
8
0
10
5.6631
20
-5.1756
30
0.0
0
VERTEX
8
0
10
6.2097
20
-5.3724
30
0.0
0
VERTEX
8
0
10
6.7807
20
-5.5639
30
0.0
0
VERTEX
8
0
10
7.3759
20
-5.7500
30
0.0
0
VERTEX
8
0
10
7.9953
20
-5.9308
30
0.0
0
VERTEX
8
0
10
8.6385
20
-6.1062
30
0.0
0
VERTEX
8
0
10
9.3055
20
-6.2762
30
0.0
0
VERTEX
8
0
10
9.9961
20
-6.4409
30
0.0
0
VERTEX
8
0
10
10.7101
20
-6.6002
30
0.0
0
VERTEX
8
0
10
11.4474
20
-6.7541
30
0.0
0
VERTEX
8
0
10
12.2077
20
-6.9028
30
0.0
0
VERTEX
8
0
10
12.9909
20
-7.0461
30
0.0
0
VERTEX
8
0
10
13.7969
20
-7.1841
30
0.0
0
VERTEX
8
0
10
14.6252
20
-7.3169
30
0.0
0
VERTEX
8
0
10
15.4759
20
-7.4445
30
0.0
0
VERTEX
8
0
10
16.3486
20
-7.5669
30
0.0
0
VERTEX
8
0
10
17.2432
20
-7.6841
30
0.0
0
VERTEX
8
0
10
18.1593
20
-7.7962
30
0.0
0
VERTEX
8
0
10
19.0969
20
-7.9031
30
0.0
0
VERTEX
8
0
10
20.0557
20
-8.0051
30
0.0
0
VERTEX
8
0
10
21.0353
20
-8.1019
30
0.0
0
VERTEX
8
0
10
22.0357
20
-8.1938
30
0.0
0
VERTEX
8
0
10
23.0564
20
-8.2807
30
0.0
0
VERTEX
8
0
10
24.0973
20
-8.3626
30
0.0
0
VERTEX
8
0
10
25.1582
20
-8.4397
30
0.0
0
VERTEX
8
0
10
26.2387
20
-8.5118
30
0.0
0
VERTEX
8
0
10
27.3386
20
-8.5791
30
0.0
0
VERTEX
8
0
10
28.4575
20
-8.6416
30
0.0
0
VERTEX
8
0
10
29.5954
20
-8.6994
30
0.0
0
VERTEX
8
0
10
30.7517
20
-8.7524
30
0.0
0
VERTEX
8
0
10
31.9263
20
-8.8007
30
0.0
0
VERTEX
8
0
10
33.1189
20
-8.8445
30
0.0
0
VERTEX
8
0
10
34.3291
20
-8.8836
30
0.0
0
VERTEX
8
0
10
35.5567
20
-8.9182
30
0.0
0
VERTEX
8
0
10
36.8014
20
-8.9483
30
0.0
0
VERTEX
8
0
10
38.0628
20
-8.9740
30
0.0
0
VERTEX
8
0
10
39.3406
20
-8.9953
30
0.0
0
VERTEX
8
0
10
40.6346
20
-9.0124
30
0.0
0
VERTEX
8
0
10
41.9443
20
-9.0253
30
0.0
0
VERTEX
8
0
10
43.2695
20
-9.0341
30
0.0
0
VERTEX
8
0
10
44.6098
20
-9.0388
30
0.0
0
VERTEX
8
0
10
45.9650
20
-9.0396
30
0.0
0
VERTEX
8
0
10
47.3346
20
-9.0365
30
0.0
0
VERTEX
8
0
10
48.7183
20
-9.0297
30
0.0
0
VERTEX
8
0
10
50.1158
20
-9.0192
30
0.0
0
VERTEX
8
0
10
51.5268
20
-9.0051
30
0.0
0
VERTEX
8
0
10
52.9508
20
-8.9876
30
0.0
0
VERTEX
8
0
10
54.3875
20
-8.9667
30
0.0
0
VERTEX
8
0
10
55.8366
20
-8.9426
30
0.0
0
VERTEX
8
0
10
57.2977
20
-8.9153
30
0.0
0
VERTEX
8
0
10
58.7705
20
-8.8850
30
0.0
0
VERTEX
8
0
10
60.2545
20
-8.8517
30
0.0
0
VERTEX
8
0
10
61.7494
20
-8.8156
30
0.0
0
VERTEX
8
0
10
63.2548
20
-8.7768
30
0.0
0
VERTEX
8
0
10
64.7704
20
-8.7354
30
0.0
0
VERTEX
8
0
10
66.2958
20
-8.6914
30
0.0
0
VERTEX
8
0
10
67.8306
20
-8.6450
30
0.0
0
VERTEX
8
0
10
69.3744
20
-8.5963
30
0.0
0
VERTEX
8
0
10
70.9268
20
-8.5452
30
0.0
0
VERTEX
8
0
10
72.4875
20
-8.4921
30
0.0
0
VERTEX
8
0
10
74.0560
20
-8.4368
30
0.0
0
VERTEX
8
0
10
75.6320
20
-8.3794
30
0.0
0
VERTEX
8
0
10
77.2150
20
-8.3202
30
0.0
0
VERTEX
8
0
10
78.8047
20
-8.2590
30
0.0
0
VERTEX
8
0
10
80.4007
20
-8.1960
30
0.0
0
VERTEX
8
0
10
82.0026
20
-8.1311
30
0.0
0
VERTEX
8
0
10
83.6100
20
-8.0646
30
0.0
0
VERTEX
8
0
10
85.2224
20
-7.9963
30
0.0
0
VERTEX
8
0
10
86.8395
20
-7.9264
30
0.0
0
VERTEX
8
0
10
88.4610
20
-7.8548
30
0.0
0
VERTEX
8
0
10
90.0862
20
-7.7817
30
0.0
0
VERTEX
8
0
10
91.7150
20
-7.7070
30
0.0
0
VERTEX
8
0
10
93.3468
20
-7.6308
30
0.0
0
VERTEX
8
0
10
94.9812
20
-7.5530
30
0.0
0
VERTEX
8
0
10
96.6179
20
-7.4738
30
0.0
0
VERTEX
8
0
10
98.2565
20
-7.3931
30
0.0
0
VERTEX
8
0
10
99.8965
20
-7.3110
30
0.0
0
VERTEX
8
0
10
101.5375
20
-7.2275
30
0.0
0
VERTEX
8
0
10
103.1791
20
-7.1426
30
0.0
0
VERTEX
8
0
10
104.8209
20
-7.0563
30
0.0
0
VERTEX
8
0
10
106.4625
20
-6.9688
30
0.0
0
VERTEX
8
0
10
108.1035
20
-6.8799
30
0.0
0
VERTEX
8
0
10
109.7435
20
-6.7899
30
0.0
0
VERTEX
8
0
10
111.3821
20
-6.6986
30
0.0
0
VERTEX
8
0
10
113.0188
20
-6.6062
30
0.0
0
VERTEX
8
0
10
114.6532
20
-6.5127
30
0.0
0
VERTEX
8
0
10
116.2850
20
-6.4182
30
0.0
0
VERTEX
8
0
10
117.9138
20
-6.3227
30
0.0
0
VERTEX
8
0
10
119.5390
20
-6.2262
30
0.0
0
VERTEX
8
0
10
121.1605
20
-6.1289
30
0.0
0
VERTEX
8
0
10
122.7776
20
-6.0309
30
0.0
0
VERTEX
8
0
10
124.3900
20
-5.9321
30
0.0
0
VERTEX
8
0
10
125.9974
20
-5.8327
30
0.0
0
VERTEX
8
0
10
127.5993
20
-5.7327
30
0.0
0
VERTEX
8
0
10
129.1953
20
-5.6323
30
0.0
0
VERTEX
8
0
10
130.7850
20
-5.5315
30
0.0
0
VERTEX
8
0
10
132.3680
20
-5.4304
30
0.0
0
VERTEX
8
0
10
133.9440
20
-5.3292
30
0.0
0
VERTEX
8
0
10
135.5125
20
-5.2278
30
0.0
0
VERTEX
8
0
10
137.0732
20
-5.1263
30
0.0
0
VERTEX
8
0
10
138.6256
20
-5.0250
30
0.0
0
VERTEX
8
0
10
140.1694
20
-4.9237
30
0.0
0
VERTEX
8
0
10
141.7042
20
-4.8227
30
0.0
0
VERTEX
8
0
10
143.2296
20
-4.7220
30
0.0
0
VERTEX
8
0
10
144.7452
20
-4.6217
30
0.0
0
VERTEX
8
0
10
146.2506
20
-4.5218
30
0.0
0
VERTEX
8
0
10
147.7455
20
-4.4224
30
0.0
0
VERTEX
8
0
10
149.2295
20
-4.3237
30
0.0
0
VERTEX
8
0
10
150.7023
20
-4.2255
30
0.0
0
VERTEX
8
0
10
152.1634
20
-4.1281
30
0.0
0
VERTEX
8
0
10
153.6125
20
-4.0314
30
0.0
0
VERTEX
8
0
10
155.0492
20
-3.9355
30
0.0
0
VERTEX
8
0
10
156.4732
20
-3.8404
30
0.0
0
VERTEX
8
0
10
157.8842
20
-3.7462
30
0.0
0
VERTEX
8
0
10
159.2817
20
-3.6528
30
0.0
0
VERTEX
8
0
10
160.6654
20
-3.5604
30
0.0
0
VERTEX
8
0
10
162.0350
20
-3.4689
30
0.0
0
VERTEX
8
0
10
163.3902
20
-3.3784
30
0.0
0
VERTEX
8
0
10
164.7305
20
-3.2888
30
0.0
0
VERTEX
8
0
10
166.0557
20
-3.2002
30
0.0
0
VERTEX
8
0
10
167.3654
20
-3.1126
30
0.0
0
VERTEX
8
0
10
168.6594
20
-3.0260
30
0.0
0
VERTEX
8
0
10
169.9372
20
-2.9403
30
0.0
0
VERTEX
8
0
10
171.1986
20
-2.8557
30
0.0
0
VERTEX
8
0
10
172.4433
20
-2.7720
30
0.0
0
VERTEX
8
0
10
173.6709
20
-2.6894
30
0.0
0
VERTEX
8
0
10
174.8811
20
-2.6077
30
0.0
0
VERTEX
8
0
10
176.0737
20
-2.5270
30
0.0
0
VERTEX
8
0
10
177.2483
20
-2.4473
30
0.0
0
VERTEX
8
0
10
178.4046
20
-2.3686
30
0.0
0
VERTEX
8
0
10
179.5425
20
-2.2909
30
0.0
0
VERTEX
8
0
10
180.6614
20
-2.2143
30
0.0
0
VERTEX
8
0
10
181.7613
20
-2.1387
30
0.0
0
VERTEX
8
0
10
182.8418
20
-2.0641
30
0.0
0
VERTEX
8
0
10
183.9027
20
-1.9906
30
0.0
0
VERTEX
8
0
10
184.9436
20
-1.9182
30
0.0
0
VERTEX
8
0
10
185.9643
20
-1.8469
30
0.0
0
VERTEX
8
0
10
186.9647
20
-1.7767
30
0.0
0
VERTEX
8
0
10
187.9443
20
-1.7077
30
0.0
0
VERTEX
8
0
10
188.9031
20
-1.6399
30
0.0
0
VERTEX
8
0
10
189.8407
20
-1.5734
30
0.0
0
VERTEX
8
0
10
190.7568
20
-1.5081
30
0.0
0
VERTEX
8
0
10
191.6514
20
-1.4441
30
0.0
0
VERTEX
8
0
10
192.5241
20
-1.3815
30
0.0
0
VERTEX
8
0
10
193.3748
20
-1.3202
30
0.0
0
VERTEX
8
0
10
194.2031
20
-1.2604
30
0.0
0
VERTEX
8
0
10
195.0091
20
-1.2021
30
0.0
0
VERTEX
8
0
10
195.7923
20
-1.1453
30
0.0
0
VERTEX
8
0
10
196.5526
20
-1.0901
30
0.0
0
VERTEX
8
0
10
197.2899
20
-1.0364
30
0.0
0
VERTEX
8
0
10
198.0039
20
-0.9844
30
0.0
0
VERTEX
8
0
10
198.6945
20
-0.9340
30
0.0
0
VERTEX
8
0
10
199.3615
20
-0.8854
30
0.0
0
VERTEX
8
0
10
200.0047
20
-0.8385
30
0.0
0
VERTEX
8
0
10
200.6241
20
-0.7934
30
0.0
0
VERTEX
8
0
10
201.2193
20
-0.7500
30
0.0
0
VERTEX
8
0
10
201.7903
20
-0.7085
30
0.0
0
VERTEX
8
0
10
202.3369
20
-0.6688
30
0.0
0
VERTEX
8
0
10
202.8590
20
-0.6310
30
0.0
0
VERTEX
8
0
10
203.3565
20
-0.5950
30
0.0
0
VERTEX
8
0
10
203.8292
20
-0.5609
30
0.0
0
VERTEX
8
0
10
204.2771
20
-0.5287
30
0.0
0
VERTEX
8
0
10
204.6999
20
-0.4983
30
0.0
0
VERTEX
8
0
10
205.0977
20
-0.4699
30
0.0
0
VERTEX
8
0
10
205.4702
20
-0.4433
30
0.0
0
VERTEX
8
0
10
205.8175
20
-0.4186
30
0.0
0
VERTEX
8
0
10
206.1394
20
-0.3958
30
0.0
0
VERTEX
8
0
10
206.4358
20
-0.3749
30
0.0
0
VERTEX
8
0
10
206.7067
20
-0.3558
30
0.0
0
VERTEX
8
0
10
206.9520
20
-0.3386
30
0.0
0
VERTEX
8
0
10
207.1717
20
-0.3232
30
0.0
0
VERTEX
8
0
10
207.3656
20
-0.3096
30
0.0
0
VERTEX
8
0
10
207.5338
20
-0.2979
30
0.0
0
VERTEX
8
0
10
207.6762
20
-0.2880
30
0.0
0
VERTEX
8
0
10
207.7927
20
-0.2800
30
0.0
0
VERTEX
8
0
10
207.8834
20
-0.2737
30
0.0
0
VERTEX
8
0
10
207.9482
20
-0.2692
30
0.0
0
VERTEX
8
0
10
207.9870
20
-0.2665
30
0.0
0
VERTEX
8
0
10
208.0000
20
-0.2656
30
0.0
0
SEQEND
0
LINE
8
0
10
0.0000
20
0.0000
11
208.0000
21
0.0000
0
CIRCLE
8
0
10
62.4000
20
3.6912
40
5.0000
0
TEXT
8
0
10
10.0000
20
-22.0000
40
6.0000
1
TIER-1 CST SECTION (NACA2412 KULFAN) CHORD 208.0 MM - UNITS MM
0
TEXT
8
0
10
10.0000
20
-32.0000
40
5.0000
1
SPAR HOLE 10 MM DIA AT 30% CHORD X=62.4 Y=3.7
0
ENDSEC
0
EOF
