0
SECTION
2
ENTITIES
0
POLYLINE
8
0
66
1
70
1
0
VERTEX
8
0
10
14.310
20
-4.496
30
0.0
0
VERTEX
8
0
10
16.197
20
1.511
30
0.0
0
VERTEX
8
0
10
18.085
20
7.530
30
0.0
0
VERTEX
8
0
10
19.974
20
13.571
30
0.0
0
VERTEX
8
0
10
21.864
20
19.640
30
0.0
0
VERTEX
8
0
10
23.755
20
25.744
30
0.0
0
VERTEX
8
0
10
25.645
20
31.890
30
0.0
0
VERTEX
8
0
10
27.535
20
38.086
30
0.0
0
VERTEX
8
0
10
29.425
20
44.337
30
0.0
0
VERTEX
8
0
10
31.313
20
50.650
30
0.0
0
VERTEX
8
0
10
33.199
20
57.032
30
0.0
0
VERTEX
8
0
10
35.083
20
63.488
30
0.0
0
VERTEX
8
0
10
36.965
20
70.023
30
0.0
0
VERTEX
8
0
10
38.843
20
76.644
30
0.0
0
VERTEX
8
0
10
40.718
20
83.354
30
0.0
0
VERTEX
8
0
10
42.590
20
90.160
30
0.0
0
VERTEX
8
0
10
44.456
20
97.066
30
0.0
0
VERTEX
8
0
10
46.319
20
104.076
30
0.0
0
VERTEX
8
0
10
48.176
20
111.194
30
0.0
0
VERTEX
8
0
10
50.028
20
118.424
30
0.0
0
VERTEX
8
0
10
51.874
20
125.769
30
0.0
0
VERTEX
8
0
10
53.713
20
133.234
30
0.0
0
VERTEX
8
0
10
55.547
20
140.821
30
0.0
0
VERTEX
8
0
10
57.373
20
148.534
30
0.0
0
VERTEX
8
0
10
59.192
20
156.374
30
0.0
0
VERTEX
8
0
10
61.004
20
164.345
30
0.0
0
VERTEX
8
0
10
62.808
20
172.449
30
0.0
0
VERTEX
8
0
10
64.605
20
180.688
30
0.0
0
VERTEX
8
0
10
66.392
20
189.064
30
0.0
0
VERTEX
8
0
10
68.171
20
197.579
30
0.0
0
VERTEX
8
0
10
69.942
20
206.235
30
0.0
0
VERTEX
8
0
10
71.703
20
215.033
30
0.0
0
VERTEX
8
0
10
73.454
20
223.974
30
0.0
0
VERTEX
8
0
10
75.196
20
233.060
30
0.0
0
VERTEX
8
0
10
76.928
20
242.292
30
0.0
0
VERTEX
8
0
10
78.650
20
251.670
30
0.0
0
VERTEX
8
0
10
80.361
20
261.196
30
0.0
0
VERTEX
8
0
10
82.061
20
270.870
30
0.0
0
VERTEX
8
0
10
83.751
20
280.693
30
0.0
0
VERTEX
8
0
10
85.429
20
290.664
30
0.0
0
VERTEX
8
0
10
87.095
20
300.786
30
0.0
0
VERTEX
8
0
10
88.750
20
311.057
30
0.0
0
VERTEX
8
0
10
90.393
20
321.477
30
0.0
0
VERTEX
8
0
10
92.024
20
332.048
30
0.0
0
VERTEX
8
0
10
93.642
20
342.768
30
0.0
0
VERTEX
8
0
10
95.247
20
353.638
30
0.0
0
VERTEX
8
0
10
96.839
20
364.658
30
0.0
0
VERTEX
8
0
10
98.418
20
375.826
30
0.0
0
VERTEX
8
0
10
99.984
20
387.143
30
0.0
0
VERTEX
8
0
10
101.536
20
398.609
30
0.0
0
VERTEX
8
0
10
103.074
20
410.222
30
0.0
0
VERTEX
8
0
10
104.598
20
421.982
30
0.0
0
VERTEX
8
0
10
106.107
20
433.888
30
0.0
0
VERTEX
8
0
10
107.602
20
445.941
30
0.0
0
VERTEX
8
0
10
109.082
20
458.138
30
0.0
0
VERTEX
8
0
10
110.547
20
470.479
30
0.0
0
VERTEX
8
0
10
111.997
20
482.963
30
0.0
0
VERTEX
8
0
10
113.431
20
495.589
30
0.0
0
VERTEX
8
0
10
114.850
20
508.356
30
0.0
0
VERTEX
8
0
10
116.252
20
521.263
30
0.0
0
VERTEX
8
0
10
117.639
20
534.309
30
0.0
0
VERTEX
8
0
10
119.009
20
547.492
30
0.0
0
VERTEX
8
0
10
120.362
20
560.811
30
0.0
0
VERTEX
8
0
10
121.699
20
574.266
30
0.0
0
VERTEX
8
0
10
123.019
20
587.854
30
0.0
0
VERTEX
8
0
10
124.321
20
601.575
30
0.0
0
VERTEX
8
0
10
125.606
20
615.427
30
0.0
0
VERTEX
8
0
10
126.874
20
629.408
30
0.0
0
VERTEX
8
0
10
128.123
20
643.516
30
0.0
0
VERTEX
8
0
10
129.355
20
657.752
30
0.0
0
VERTEX
8
0
10
130.569
20
672.112
30
0.0
0
VERTEX
8
0
10
131.764
20
686.595
30
0.0
0
VERTEX
8
0
10
132.941
20
701.199
30
0.0
0
VERTEX
8
0
10
134.099
20
715.924
30
0.0
0
VERTEX
8
0
10
135.238
20
730.766
30
0.0
0
VERTEX
8
0
10
136.358
20
745.725
30
0.0
0
VERTEX
8
0
10
137.458
20
760.798
30
0.0
0
VERTEX
8
0
10
138.540
20
775.985
30
0.0
0
VERTEX
8
0
10
139.601
20
791.281
30
0.0
0
VERTEX
8
0
10
140.643
20
806.687
30
0.0
0
VERTEX
8
0
10
141.666
20
822.200
30
0.0
0
VERTEX
8
0
10
142.668
20
837.818
30
0.0
0
VERTEX
8
0
10
143.649
20
853.540
30
0.0
0
VERTEX
8
0
10
144.611
20
869.362
30
0.0
0
VERTEX
8
0
10
145.552
20
885.284
30
0.0
0
VERTEX
8
0
10
146.472
20
901.303
30
0.0
0
VERTEX
8
0
10
147.371
20
917.416
30
0.0
0
VERTEX
8
0
10
148.250
20
933.623
30
0.0
0
VERTEX
8
0
10
149.107
20
949.921
30
0.0
0
VERTEX
8
0
10
149.943
20
966.307
30
0.0
0
VERTEX
8
0
10
150.758
20
982.780
30
0.0
0
VERTEX
8
0
10
151.551
20
999.337
30
0.0
0
VERTEX
8
0
10
152.323
20
1015.977
30
0.0
0
VERTEX
8
0
10
153.072
20
1032.696
30
0.0
0
VERTEX
8
0
10
153.801
20
1049.493
30
0.0
0
VERTEX
8
0
10
154.507
20
1066.366
30
0.0
0
VERTEX
8
0
10
155.191
20
1083.312
30
0.0
0
VERTEX
8
0
10
155.852
20
1100.329
30
0.0
0
VERTEX
8
0
10
156.492
20
1117.414
30
0.0
0
VERTEX
8
0
10
157.109
20
1134.566
30
0.0
0
VERTEX
8
0
10
157.704
20
1151.782
30
0.0
0
VERTEX
8
0
10
158.276
20
1169.059
30
0.0
0
VERTEX
8
0
10
158.825
20
1186.396
30
0.0
0
VERTEX
8
0
10
159.352
20
1203.790
30
0.0
0
VERTEX
8
0
10
159.856
20
1221.238
30
0.0
0
VERTEX
8
0
10
160.337
20
1238.738
30
0.0
0
VERTEX
8
0
10
160.795
20
1256.288
30
0.0
0
VERTEX
8
0
10
161.230
20
1273.886
30
0.0
0
VERTEX
8
0
10
161.642
20
1291.528
30
0.0
0
VERTEX
8
0
10
162.030
20
1309.213
30
0.0
0
VERTEX
8
0
10
162.396
20
1326.938
30
0.0
0
VERTEX
8
0
10
162.738
20
1344.700
30
0.0
0
VERTEX
8
0
10
163.057
20
1362.497
30
0.0
0
VERTEX
8
0
10
163.352
20
1380.327
30
0.0
0
VERTEX
8
0
10
163.624
20
1398.187
30
0.0
0
VERTEX
8
0
10
163.872
20
1416.075
30
0.0
0
VERTEX
8
0
10
164.097
20
1433.988
30
0.0
0
VERTEX
8
0
10
164.298
20
1451.923
30
0.0
0
VERTEX
8
0
10
164.476
20
1469.879
30
0.0
0
VERTEX
8
0
10
164.630
20
1487.852
30
0.0
0
VERTEX
8
0
10
164.760
20
1505.840
30
0.0
0
VERTEX
8
0
10
164.867
20
1523.841
30
0.0
0
VERTEX
8
0
10
164.950
20
1541.852
30
0.0
0
VERTEX
8
0
10
165.009
20
1559.871
30
0.0
0
VERTEX
8
0
10
165.045
20
1577.894
30
0.0
0
VERTEX
8
0
10
165.057
20
1595.920
30
0.0
0
VERTEX
8
0
10
165.045
20
1613.947
30
0.0
0
VERTEX
8
0
10
165.009
20
1631.970
30
0.0
0
VERTEX
8
0
10
164.950
20
1649.989
30
0.0
0
VERTEX
8
0
10
164.867
20
1668.000
30
0.0
0
VERTEX
8
0
10
164.760
20
1686.001
30
0.0
0
VERTEX
8
0
10
164.630
20
1703.989
30
0.0
0
VERTEX
8
0
10
164.476
20
1721.962
30
0.0
0
VERTEX
8
0
10
164.298
20
1739.918
30
0.0
0
VERTEX
8
0
10
164.097
20
1757.853
30
0.0
0
VERTEX
8
0
10
163.872
20
1775.766
30
0.0
0
VERTEX
8
0
10
163.624
20
1793.654
30
0.0
0
VERTEX
8
0
10
163.352
20
1811.514
30
0.0
0
VERTEX
8
0
10
163.057
20
1829.344
30
0.0
0
VERTEX
8
0
10
162.738
20
1847.141
30
0.0
0
VERTEX
8
0
10
162.396
20
1864.903
30
0.0
0
VERTEX
8
0
10
162.030
20
1882.628
30
0.0
0
VERTEX
8
0
10
161.642
20
1900.313
30
0.0
0
VERTEX
8
0
10
161.230
20
1917.955
30
0.0
0
VERTEX
8
0
10
160.795
20
1935.552
30
0.0
0
VERTEX
8
0
10
160.337
20
1953.103
30
0.0
0
VERTEX
8
0
10
159.856
20
1970.603
30
0.0
0
VERTEX
8
0
10
159.352
20
1988.051
30
0.0
0
VERTEX
8
0
10
158.825
20
2005.445
30
0.0
0
VERTEX
8
0
10
158.276
20
2022.782
30
0.0
0
VERTEX
8
0
10
157.704
20
2040.059
30
0.0
0
VERTEX
8
0
10
157.109
20
2057.275
30
0.0
0
VERTEX
8
0
10
156.492
20
2074.427
30
0.0
0
VERTEX
8
0
10
155.852
20
2091.512
30
0.0
0
VERTEX
8
0
10
155.191
20
2108.529
30
0.0
0
VERTEX
8
0
10
154.507
20
2125.475
30
0.0
0
VERTEX
8
0
10
153.801
20
2142.348
30
0.0
0
VERTEX
8
0
10
153.072
20
2159.145
30
0.0
0
VERTEX
8
0
10
152.323
20
2175.864
30
0.0
0
VERTEX
8
0
10
151.551
20
2192.504
30
0.0
0
VERTEX
8
0
10
150.758
20
2209.061
30
0.0
0
VERTEX
8
0
10
149.943
20
2225.534
30
0.0
0
VERTEX
8
0
10
149.107
20
2241.920
30
0.0
0
VERTEX
8
0
10
148.250
20
2258.218
30
0.0
0
VERTEX
8
0
10
147.371
20
2274.425
30
0.0
0
VERTEX
8
0
10
146.472
20
2290.538
30
0.0
0
VERTEX
8
0
10
145.552
20
2306.557
30
0.0
0
VERTEX
8
0
10
144.611
20
2322.479
30
0.0
0
VERTEX
8
0
10
143.649
20
2338.301
30
0.0
0
VERTEX
8
0
10
142.668
20
2354.022
30
0.0
0
VERTEX
8
0
10
141.666
20
2369.641
30
0.0
0
VERTEX
8
0
10
140.643
20
2385.154
30
0.0
0
VERTEX
8
0
10
139.601
20
2400.559
30
0.0
0
VERTEX
8
0
10
138.540
20
2415.856
30
0.0
0
VERTEX
8
0
10
137.458
20
2431.042
30
0.0
0
VERTEX
8
0
10
136.358
20
2446.116
30
0.0
0
VERTEX
8
0
10
135.238
20
2461.075
30
0.0
0
VERTEX
8
0
10
134.099
20
2475.917
30
0.0
0
VERTEX
8
0
10
132.941
20
2490.642
30
0.0
0
VERTEX
8
0
10
131.764
20
2505.246
30
0.0
0
VERTEX
8
0
10
130.569
20
2519.729
30
0.0
0
VERTEX
8
0
10
129.355
20
2534.089
30
0.0
0
VERTEX
8
0
10
128.123
20
2548.325
30
0.0
0
VERTEX
8
0
10
126.874
20
2562.433
30
0.0
0
VERTEX
8
0
10
125.606
20
2576.414
30
0.0
0
VERTEX
8
0
10
124.321
20
2590.266
30
0.0
0
VERTEX
8
0
10
123.019
20
2603.986
30
0.0
0
VERTEX
8
0
10
121.699
20
2617.575
30
0.0
0
VERTEX
8
0
10
120.362
20
2631.029
30
0.0
0
VERTEX
8
0
10
119.009
20
2644.349
30
0.0
0
VERTEX
8
0
10
117.639
20
2657.532
30
0.0
0
VERTEX
8
0
10
116.252
20
2670.578
30
0.0
0
VERTEX
8
0
10
114.850
20
2683.485
30
0.0
0
VERTEX
8
0
10
113.431
20
2696.252
30
0.0
0
VERTEX
8
0
10
111.997
20
2708.878
30
0.0
0
VERTEX
8
0
10
110.547
20
2721.362
30
0.0
0
VERTEX
8
0
10
109.082
20
2733.703
30
0.0
0
VERTEX
8
0
10
107.602
20
2745.900
30
0.0
0
VERTEX
8
0
10
106.107
20
2757.952
30
0.0
0
VERTEX
8
0
10
104.598
20
2769.859
30
0.0
0
VERTEX
8
0
10
103.074
20
2781.619
30
0.0
0
VERTEX
8
0
10
101.536
20
2793.232
30
0.0
0
VERTEX
8
0
10
99.984
20
2804.698
30
0.0
0
VERTEX
8
0
10
98.418
20
2816.015
30
0.0
0
VERTEX
8
0
10
96.839
20
2827.183
30
0.0
0
VERTEX
8
0
10
95.247
20
2838.203
30
0.0
0
VERTEX
8
0
10
93.642
20
2849.073
30
0.0
0
VERTEX
8
0
10
92.024
20
2859.793
30
0.0
0
VERTEX
8
0
10
90.393
20
2870.364
30
0.0
0
VERTEX
8
0
10
88.750
20
2880.784
30
0.0
0
VERTEX
8
0
10
87.095
20
2891.055
30
0.0
0
VERTEX
8
0
10
85.429
20
2901.176
30
0.0
0
VERTEX
8
0
10
83.751
20
2911.148
30
0.0
0
VERTEX
8
0
10
82.061
20
2920.971
30
0.0
0
VERTEX
8
0
10
80.361
20
2930.645
30
0.0
0
VERTEX
8
0
10
78.650
20
2940.171
30
0.0
0
VERTEX
8
0
10
76.928
20
2949.549
30
0.0
0
VERTEX
8
0
10
75.196
20
2958.781
30
0.0
0
VERTEX
8
0
10
73.454
20
2967.867
30
0.0
0
VERTEX
8
0
10
71.703
20
2976.808
30
0.0
0
VERTEX
8
0
10
69.942
20
2985.606
30
0.0
0
VERTEX
8
0
10
68.171
20
2994.262
30
0.0
0
VERTEX
8
0
10
66.392
20
3002.777
30
0.0
0
VERTEX
8
0
10
64.605
20
3011.153
30
0.0
0
VERTEX
8
0
10
62.808
20
3019.392
30
0.0
0
VERTEX
8
0
10
61.004
20
3027.496
30
0.0
0
VERTEX
8
0
10
59.192
20
3035.467
30
0.0
0
VERTEX
8
0
10
57.373
20
3043.307
30
0.0
0
VERTEX
8
0
10
55.547
20
3051.020
30
0.0
0
VERTEX
8
0
10
53.713
20
3058.607
30
0.0
0
VERTEX
8
0
10
51.874
20
3066.072
30
0.0
0
VERTEX
8
0
10
50.028
20
3073.417
30
0.0
0
VERTEX
8
0
10
48.176
20
3080.647
30
0.0
0
VERTEX
8
0
10
46.319
20
3087.765
30
0.0
0
VERTEX
8
0
10
44.456
20
3094.775
30
0.0
0
VERTEX
8
0
10
42.590
20
3101.681
30
0.0
0
VERTEX
8
0
10
40.718
20
3108.487
30
0.0
0
VERTEX
8
0
10
38.843
20
3115.197
30
0.0
0
VERTEX
8
0
10
36.965
20
3121.818
30
0.0
0
VERTEX
8
0
10
35.083
20
3128.353
30
0.0
0
VERTEX
8
0
10
33.199
20
3134.809
30
0.0
0
VERTEX
8
0
10
31.313
20
3141.191
30
0.0
0
VERTEX
8
0
10
29.425
20
3147.504
30
0.0
0
VERTEX
8
0
10
27.535
20
3153.755
30
0.0
0
VERTEX
8
0
10
25.645
20
3159.951
30
0.0
0
VERTEX
8
0
10
23.755
20
3166.097
30
0.0
0
VERTEX
8
0
10
21.864
20
3172.201
30
0.0
0
VERTEX
8
0
10
19.974
20
3178.270
30
0.0
0
VERTEX
8
0
10
18.085
20
3184.310
30
0.0
0
VERTEX
8
0
10
16.197
20
3190.330
30
0.0
0
VERTEX
8
0
10
14.310
20
3196.337
30
0.0
0
VERTEX
8
0
10
14.310
20
3196.337
30
0.0
0
VERTEX
8
0
10
13.730
20
3197.882
30
0.0
0
VERTEX
8
0
10
12.983
20
3199.354
30
0.0
0
VERTEX
8
0
10
12.078
20
3200.736
30
0.0
0
VERTEX
8
0
10
11.028
20
3202.009
30
0.0
0
VERTEX
8
0
10
9.843
20
3203.159
30
0.0
0
VERTEX
8
0
10
8.540
20
3204.173
30
0.0
0
VERTEX
8
0
10
7.133
20
3205.037
30
0.0
0
VERTEX
8
0
10
5.639
20
3205.740
30
0.0
0
VERTEX
8
0
10
4.078
20
3206.276
30
0.0
0
VERTEX
8
0
10
2.466
20
3206.637
30
0.0
0
VERTEX
8
0
10
0.825
20
3206.818
30
0.0
0
VERTEX
8
0
10
-0.825
20
3206.818
30
0.0
0
VERTEX
8
0
10
-2.466
20
3206.637
30
0.0
0
VERTEX
8
0
10
-4.078
20
3206.276
30
0.0
0
VERTEX
8
0
10
-5.639
20
3205.740
30
0.0
0
VERTEX
8
0
10
-7.133
20
3205.037
30
0.0
0
VERTEX
8
0
10
-8.540
20
3204.173
30
0.0
0
VERTEX
8
0
10
-9.843
20
3203.159
30
0.0
0
VERTEX
8
0
10
-11.028
20
3202.009
30
0.0
0
VERTEX
8
0
10
-12.078
20
3200.736
30
0.0
0
VERTEX
8
0
10
-12.983
20
3199.354
30
0.0
0
VERTEX
8
0
10
-13.730
20
3197.882
30
0.0
0
VERTEX
8
0
10
-14.310
20
3196.337
30
0.0
0
VERTEX
8
0
10
-14.310
20
3196.337
30
0.0
0
VERTEX
8
0
10
-16.197
20
3190.330
30
0.0
0
VERTEX
8
0
10
-18.085
20
3184.310
30
0.0
0
VERTEX
8
0
10
-19.974
20
3178.270
30
0.0
0
VERTEX
8
0
10
-21.864
20
3172.201
30
0.0
0
VERTEX
8
0
10
-23.755
20
3166.097
30
0.0
0
VERTEX
8
0
10
-25.645
20
3159.951
30
0.0
0
VERTEX
8
0
10
-27.535
20
3153.755
30
0.0
0
VERTEX
8
0
10
-29.425
20
3147.504
30
0.0
0
VERTEX
8
0
10
-31.313
20
3141.191
30
0.0
0
VERTEX
8
0
10
-33.199
20
3134.809
30
0.0
0
VERTEX
8
0
10
-35.083
20
3128.353
30
0.0
0
VERTEX
8
0
10
-36.965
20
3121.818
30
0.0
0
VERTEX
8
0
10
-38.843
20
3115.197
30
0.0
0
VERTEX
8
0
10
-40.718
20
3108.487
30
0.0
0
VERTEX
8
0
10
-42.590
20
3101.681
30
0.0
0
VERTEX
8
0
10
-44.456
20
3094.775
30
0.0
0
VERTEX
8
0
10
-46.319
20
3087.765
30
0.0
0
VERTEX
8
0
10
-48.176
20
3080.647
30
0.0
0
VERTEX
8
0
10
-50.028
20
3073.417
30
0.0
0
VERTEX
8
0
10
-51.874
20
3066.072
30
0.0
0
VERTEX
8
0
10
-53.713
20
3058.607
30
0.0
0
VERTEX
8
0
10
-55.547
20
3051.020
30
0.0
0
VERTEX
8
0
10
-57.373
20
3043.307
30
0.0
0
VERTEX
8
0
10
-59.192
20
3035.467
30
0.0
0
VERTEX
8
0
10
-61.004
20
3027.496
30
0.0
0
VERTEX
8
0
10
-62.808
20
3019.392
30
0.0
0
VERTEX
8
0
10
-64.605
20
3011.153
30
0.0
0
VERTEX
8
0
10
-66.392
20
3002.777
30
0.0
0
VERTEX
8
0
10
-68.171
20
2994.262
30
0.0
0
VERTEX
8
0
10
-69.942
20
2985.606
30
0.0
0
VERTEX
8
0
10
-71.703
20
2976.808
30
0.0
0
VERTEX
8
0
10
-73.454
20
2967.867
30
0.0
0
VERTEX
8
0
10
-75.196
20
2958.781
30
0.0
0
VERTEX
8
0
10
-76.928
20
2949.549
30
0.0
0
VERTEX
8
0
10
-78.650
20
2940.171
30
0.0
0
VERTEX
8
0
10
-80.361
20
2930.645
30
0.0
0
VERTEX
8
0
10
-82.061
20
2920.971
30
0.0
0
VERTEX
8
0
10
-83.751
20
2911.148
30
0.0
0
VERTEX
8
0
10
-85.429
20
2901.176
30
0.0
0
VERTEX
8
0
10
-87.095
20
2891.055
30
0.0
0
VERTEX
8
0
10
-88.750
20
2880.784
30
0.0
0
VERTEX
8
0
10
-90.393
20
2870.364
30
0.0
0
VERTEX
8
0
10
-92.024
20
2859.793
30
0.0
0
VERTEX
8
0
10
-93.642
20
2849.073
30
0.0
0
VERTEX
8
0
10
-95.247
20
2838.203
30
0.0
0
VERTEX
8
0
10
-96.839
20
2827.183
30
0.0
0
VERTEX
8
0
10
-98.418
20
2816.015
30
0.0
0
VERTEX
8
0
10
-99.984
20
2804.698
30
0.0
0
VERTEX
8
0
10
-101.536
20
2793.232
30
0.0
0
VERTEX
8
0
10
-103.074
20
2781.619
30
0.0
0
VERTEX
8
0
10
-104.598
20
2769.859
30
0.0
0
VERTEX
8
0
10
-106.107
20
2757.952
30
0.0
0
VERTEX
8
0
10
-107.602
20
2745.900
30
0.0
0
VERTEX
8
0
10
-109.082
20
2733.703
30
0.0
0
VERTEX
8
0
10
-110.547
20
2721.362
30
0.0
0
VERTEX
8
0
10
-111.997
20
2708.878
30
0.0
0
VERTEX
8
0
10
-113.431
20
2696.252
30
0.0
0
VERTEX
8
0
10
-114.850
20
2683.485
30
0.0
0
VERTEX
8
0
10
-116.252
20
2670.578
30
0.0
0
VERTEX
8
0
10
-117.639
20
2657.532
30
0.0
0
VERTEX
8
0
10
-119.009
20
2644.349
30
0.0
0
VERTEX
8
0
10
-120.362
20
2631.029
30
0.0
0
VERTEX
8
0
10
-121.699
20
2617.575
30
0.0
0
VERTEX
8
0
10
-123.019
20
2603.986
30
0.0
0
VERTEX
8
0
10
-124.321
20
2590.266
30
0.0
0
VERTEX
8
0
10
-125.606
20
2576.414
30
0.0
0
VERTEX
8
0
10
-126.874
20
2562.433
30
0.0
0
VERTEX
8
0
10
-128.123
20
2548.325
30
0.0
0
VERTEX
8
0
10
-129.355
20
2534.089
30
0.0
0
VERTEX
8
0
10
-130.569
20
2519.729
30
0.0
0
VERTEX
8
0
10
-131.764
20
2505.246
30
0.0
0
VERTEX
8
0
10
-132.941
20
2490.642
30
0.0
0
VERTEX
8
0
10
-134.099
20
2475.917
30
0.0
0
VERTEX
8
0
10
-135.238
20
2461.075
30
0.0
0
VERTEX
8
0
10
-136.358
20
2446.116
30
0.0
0
VERTEX
8
0
10
-137.458
20
2431.042
30
0.0
0
VERTEX
8
0
10
-138.540
20
2415.856
30
0.0
0
VERTEX
8
0
10
-139.601
20
2400.559
30
0.0
0
VERTEX
8
0
10
-140.643
20
2385.154
30
0.0
0
VERTEX
8
0
10
-141.666
20
2369.641
30
0.0
0
VERTEX
8
0
10
-142.668
20
2354.022
30
0.0
0
VERTEX
8
0
10
-143.649
20
2338.301
30
0.0
0
VERTEX
8
0
10
-144.611
20
2322.479
30
0.0
0
VERTEX
8
0
10
-145.552
20
2306.557
30
0.0
0
VERTEX
8
0
10
-146.472
20
2290.538
30
0.0
0
VERTEX
8
0
10
-147.371
20
2274.425
30
0.0
0
VERTEX
8
0
10
-148.250
20
2258.218
30
0.0
0
VERTEX
8
0
10
-149.107
20
2241.920
30
0.0
0
VERTEX
8
0
10
-149.943
20
2225.534
30
0.0
0
VERTEX
8
0
10
-150.758
20
2209.061
30
0.0
0
VERTEX
8
0
10
-151.551
20
2192.504
30
0.0
0
VERTEX
8
0
10
-152.323
20
2175.864
30
0.0
0
VERTEX
8
0
10
-153.072
20
2159.145
30
0.0
0
VERTEX
8
0
10
-153.801
20
2142.348
30
0.0
0
VERTEX
8
0
10
-154.507
20
2125.475
30
0.0
0
VERTEX
8
0
10
-155.191
20
2108.529
30
0.0
0
VERTEX
8
0
10
-155.852
20
2091.512
30
0.0
0
VERTEX
8
0
10
-156.492
20
2074.427
30
0.0
0
VERTEX
8
0
10
-157.109
20
2057.275
30
0.0
0
VERTEX
8
0
10
-157.704
20
2040.059
30
0.0
0
VERTEX
8
0
10
-158.276
20
2022.782
30
0.0
0
VERTEX
8
0
10
-158.825
20
2005.445
30
0.0
0
VERTEX
8
0
10
-159.352
20
1988.051
30
0.0
0
VERTEX
8
0
10
-159.856
20
1970.603
30
0.0
0
VERTEX
8
0
10
-160.337
20
1953.103
30
0.0
0
VERTEX
8
0
10
-160.795
20
1935.552
30
0.0
0
VERTEX
8
0
10
-161.230
20
1917.955
30
0.0
0
VERTEX
8
0
10
-161.642
20
1900.313
30
0.0
0
VERTEX
8
0
10
-162.030
20
1882.628
30
0.0
0
VERTEX
8
0
10
-162.396
20
1864.903
30
0.0
0
VERTEX
8
0
10
-162.738
20
1847.141
30
0.0
0
VERTEX
8
0
10
-163.057
20
1829.344
30
0.0
0
VERTEX
8
0
10
-163.352
20
1811.514
30
0.0
0
VERTEX
8
0
10
-163.624
20
1793.654
30
0.0
0
VERTEX
8
0
10
-163.872
20
1775.766
30
0.0
0
VERTEX
8
0
10
-164.097
20
1757.853
30
0.0
0
VERTEX
8
0
10
-164.298
20
1739.918
30
0.0
0
VERTEX
8
0
10
-164.476
20
1721.962
30
0.0
0
VERTEX
8
0
10
-164.630
20
1703.989
30
0.0
0
VERTEX
8
0
10
-164.760
20
1686.001
30
0.0
0
VERTEX
8
0
10
-164.867
20
1668.000
30
0.0
0
VERTEX
8
0
10
-164.950
20
1649.989
30
0.0
0
VERTEX
8
0
10
-165.009
20
1631.970
30
0.0
0
VERTEX
8
0
10
-165.045
20
1613.947
30
0.0
0
VERTEX
8
0
10
-165.057
20
1595.920
30
0.0
0
VERTEX
8
0
10
-165.045
20
1577.894
30
0.0
0
VERTEX
8
0
10
-165.009
20
1559.871
30
0.0
0
VERTEX
8
0
10
-164.950
20
1541.852
30
0.0
0
VERTEX
8
0
10
-164.867
20
1523.841
30
0.0
0
VERTEX
8
0
10
-164.760
20
1505.840
30
0.0
0
VERTEX
8
0
10
-164.630
20
1487.852
30
0.0
0
VERTEX
8
0
10
-164.476
20
1469.879
30
0.0
0
VERTEX
8
0
10
-164.298
20
1451.923
30
0.0
0
VERTEX
8
0
10
-164.097
20
1433.988
30
0.0
0
VERTEX
8
0
10
-163.872
20
1416.075
30
0.0
0
VERTEX
8
0
10
-163.624
20
1398.187
30
0.0
0
VERTEX
8
0
10
-163.352
20
1380.327
30
0.0
0
VERTEX
8
0
10
-163.057
20
1362.497
30
0.0
0
VERTEX
8
0
10
-162.738
20
1344.700
30
0.0
0
VERTEX
8
0
10
-162.396
20
1326.938
30
0.0
0
VERTEX
8
0
10
-162.030
20
1309.213
30
0.0
0
VERTEX
8
0
10
-161.642
20
1291.528
30
0.0
0
VERTEX
8
0
10
-161.230
20
1273.886
30
0.0
0
VERTEX
8
0
10
-160.795
20
1256.288
30
0.0
0
VERTEX
8
0
10
-160.337
20
1238.738
30
0.0
0
VERTEX
8
0
10
-159.856
20
1221.238
30
0.0
0
VERTEX
8
0
10
-159.352
20
1203.790
30
0.0
0
VERTEX
8
0
10
-158.825
20
1186.396
30
0.0
0
VERTEX
8
0
10
-158.276
20
1169.059
30
0.0
0
VERTEX
8
0
10
-157.704
20
1151.782
30
0.0
0
VERTEX
8
0
10
-157.109
20
1134.566
30
0.0
0
VERTEX
8
0
10
-156.492
20
1117.414
30
0.0
0
VERTEX
8
0
10
-155.852
20
1100.329
30
0.0
0
VERTEX
8
0
10
-155.191
20
1083.312
30
0.0
0
VERTEX
8
0
10
-154.507
20
1066.366
30
0.0
0
VERTEX
8
0
10
-153.801
20
1049.493
30
0.0
0
VERTEX
8
0
10
-153.072
20
1032.696
30
0.0
0
VERTEX
8
0
10
-152.323
20
1015.977
30
0.0
0
VERTEX
8
0
10
-151.551
20
999.337
30
0.0
0
VERTEX
8
0
10
-150.758
20
982.780
30
0.0
0
VERTEX
8
0
10
-149.943
20
966.307
30
0.0
0
VERTEX
8
0
10
-149.107
20
949.921
30
0.0
0
VERTEX
8
0
10
-148.250
20
933.623
30
0.0
0
VERTEX
8
0
10
-147.371
20
917.416
30
0.0
0
VERTEX
8
0
10
-146.472
20
901.303
30
0.0
0
VERTEX
8
0
10
-145.552
20
885.284
30
0.0
0
VERTEX
8
0
10
-144.611
20
869.362
30
0.0
0
VERTEX
8
0
10
-143.649
20
853.540
30
0.0
0
VERTEX
8
0
10
-142.668
20
837.818
30
0.0
0
VERTEX
8
0
10
-141.666
20
822.200
30
0.0
0
VERTEX
8
0
10
-140.643
20
806.687
30
0.0
0
VERTEX
8
0
10
-139.601
20
791.281
30
0.0
0
VERTEX
8
0
10
-138.540
20
775.985
30
0.0
0
VERTEX
8
0
10
-137.458
20
760.798
30
0.0
0
VERTEX
8
0
10
-136.358
20
745.725
30
0.0
0
VERTEX
8
0
10
-135.238
20
730.766
30
0.0
0
VERTEX
8
0
10
-134.099
20
715.924
30
0.0
0
VERTEX
8
0
10
-132.941
20
701.199
30
0.0
0
VERTEX
8
0
10
-131.764
20
686.595
30
0.0
0
VERTEX
8
0
10
-130.569
20
672.112
30
0.0
0
VERTEX
8
0
10
-129.355
20
657.752
30
0.0
0
VERTEX
8
0
10
-128.123
20
643.516
30
0.0
0
VERTEX
8
0
10
-126.874
20
629.408
30
0.0
0
VERTEX
8
0
10
-125.606
20
615.427
30
0.0
0
VERTEX
8
0
10
-124.321
20
601.575
30
0.0
0
VERTEX
8
0
10
-123.019
20
587.854
30
0.0
0
VERTEX
8
0
10
-121.699
20
574.266
30
0.0
0
VERTEX
8
0
10
-120.362
20
560.811
30
0.0
0
VERTEX
8
0
10
-119.009
20
547.492
30
0.0
0
VERTEX
8
0
10
-117.639
20
534.309
30
0.0
0
VERTEX
8
0
10
-116.252
20
521.263
30
0.0
0
VERTEX
8
0
10
-114.850
20
508.356
30
0.0
0
VERTEX
8
0
10
-113.431
20
495.589
30
0.0
0
VERTEX
8
0
10
-111.997
20
482.963
30
0.0
0
VERTEX
8
0
10
-110.547
20
470.479
30
0.0
0
VERTEX
8
0
10
-109.082
20
458.138
30
0.0
0
VERTEX
8
0
10
-107.602
20
445.941
30
0.0
0
VERTEX
8
0
10
-106.107
20
433.888
30
0.0
0
VERTEX
8
0
10
-104.598
20
421.982
30
0.0
0
VERTEX
8
0
10
-103.074
20
410.222
30
0.0
0
VERTEX
8
0
10
-101.536
20
398.609
30
0.0
0
VERTEX
8
0
10
-99.984
20
387.143
30
0.0
0
VERTEX
8
0
10
-98.418
20
375.826
30
0.0
0
VERTEX
8
0
10
-96.839
20
364.658
30
0.0
0
VERTEX
8
0
10
-95.247
20
353.638
30
0.0
0
VERTEX
8
0
10
-93.642
20
342.768
30
0.0
0
VERTEX
8
0
10
-92.024
20
332.048
30
0.0
0
VERTEX
8
0
10
-90.393
20
321.477
30
0.0
0
VERTEX
8
0
10
-88.750
20
311.057
30
0.0
0
VERTEX
8
0
10
-87.095
20
300.786
30
0.0
0
VERTEX
8
0
10
-85.429
20
290.664
30
0.0
0
VERTEX
8
0
10
-83.751
20
280.693
30
0.0
0
VERTEX
8
0
10
-82.061
20
270.870
30
0.0
0
VERTEX
8
0
10
-80.361
20
261.196
30
0.0
0
VERTEX
8
0
10
-78.650
20
251.670
30
0.0
0
VERTEX
8
0
10
-76.928
20
242.292
30
0.0
0
VERTEX
8
0
10
-75.196
20
233.060
30
0.0
0
VERTEX
8
0
10
-73.454
20
223.974
30
0.0
0
VERTEX
8
0
10
-71.703
20
215.033
30
0.0
0
VERTEX
8
0
10
-69.942
20
206.235
30
0.0
0
VERTEX
8
0
10
-68.171
20
197.579
30
0.0
0
VERTEX
8
0
10
-66.392
20
189.064
30
0.0
0
VERTEX
8
0
10
-64.605
20
180.688
30
0.0
0
VERTEX
8
0
10
-62.808
20
172.449
30
0.0
0
VERTEX
8
0
10
-61.004
20
164.345
30
0.0
0
VERTEX
8
0
10
-59.192
20
156.374
30
0.0
0
VERTEX
8
0
10
-57.373
20
148.534
30
0.0
0
VERTEX
8
0
10
-55.547
20
140.821
30
0.0
0
VERTEX
8
0
10
-53.713
20
133.234
30
0.0
0
VERTEX
8
0
10
-51.874
20
125.769
30
0.0
0
VERTEX
8
0
10
-50.028
20
118.424
30
0.0
0
VERTEX
8
0
10
-48.176
20
111.194
30
0.0
0
VERTEX
8
0
10
-46.319
20
104.076
30
0.0
0
VERTEX
8
0
10
-44.456
20
97.066
30
0.0
0
VERTEX
8
0
10
-42.590
20
90.160
30
0.0
0
VERTEX
8
0
10
-40.718
20
83.354
30
0.0
0
VERTEX
8
0
10
-38.843
20
76.644
30
0.0
0
VERTEX
8
0
10
-36.965
20
70.023
30
0.0
0
VERTEX
8
0
10
-35.083
20
63.488
30
0.0
0
VERTEX
8
0
10
-33.199
20
57.032
30
0.0
0
VERTEX
8
0
10
-31.313
20
50.650
30
0.0
0
VERTEX
8
0
10
-29.425
20
44.337
30
0.0
0
VERTEX
8
0
10
-27.535
20
38.086
30
0.0
0
VERTEX
8
0
10
-25.645
20
31.890
30
0.0
0
VERTEX
8
0
10
-23.755
20
25.744
30
0.0
0
VERTEX
8
0
10
-21.864
20
19.640
30
0.0
0
VERTEX
8
0
10
-19.974
20
13.571
30
0.0
0
VERTEX
8
0
10
-18.085
20
7.530
30
0.0
0
VERTEX
8
0
10
-16.197
20
1.511
30
0.0
0
VERTEX
8
0
10
-14.310
20
-4.496
30
0.0
0
VERTEX
8
0
10
-14.310
20
-4.496
30
0.0
0
VERTEX
8
0
10
-13.730
20
-6.041
30
0.0
0
VERTEX
8
0
10
-12.983
20
-7.514
30
0.0
0
VERTEX
8
0
10
-12.078
20
-8.895
30
0.0
0
VERTEX
8
0
10
-11.028
20
-10.168
30
0.0
0
VERTEX
8
0
10
-9.843
20
-11.319
30
0.0
0
VERTEX
8
0
10
-8.540
20
-12.332
30
0.0
0
VERTEX
8
0
10
-7.133
20
-13.196
30
0.0
0
VERTEX
8
0
10
-5.639
20
-13.900
30
0.0
0
VERTEX
8
0
10
-4.078
20
-14.435
30
0.0
0
VERTEX
8
0
10
-2.466
20
-14.796
30
0.0
0
VERTEX
8
0
10
-0.825
20
-14.977
30
0.0
0
VERTEX
8
0
10
0.825
20
-14.977
30
0.0
0
VERTEX
8
0
10
2.466
20
-14.796
30
0.0
0
VERTEX
8
0
10
4.078
20
-14.435
30
0.0
0
VERTEX
8
0
10
5.639
20
-13.900
30
0.0
0
VERTEX
8
0
10
7.133
20
-13.196
30
0.0
0
VERTEX
8
0
10
8.540
20
-12.332
30
0.0
0
VERTEX
8
0
10
9.843
20
-11.319
30
0.0
0
VERTEX
8
0
10
11.028
20
-10.168
30
0.0
0
VERTEX
8
0
10
12.078
20
-8.895
30
0.0
0
VERTEX
8
0
10
12.983
20
-7.514
30
0.0
0
VERTEX
8
0
10
13.730
20
-6.041
30
0.0
0
VERTEX
8
0
10
14.310
20
-4.496
30
0.0
0
SEQEND
0
POLYLINE
8
0
66
1
70
1
0
VERTEX
8
0
10
0.000
20
0.000
30
0.0
0
VERTEX
8
0
10
1.886
20
6.004
30
0.0
0
VERTEX
8
0
10
3.771
20
12.015
30
0.0
0
VERTEX
8
0
10
5.656
20
18.041
30
0.0
0
VERTEX
8
0
10
7.540
20
24.090
30
0.0
0
VERTEX
8
0
10
9.422
20
30.168
30
0.0
0
VERTEX
8
0
10
11.303
20
36.284
30
0.0
0
VERTEX
8
0
10
13.183
20
42.445
30
0.0
0
VERTEX
8
0
10
15.060
20
48.656
30
0.0
0
VERTEX
8
0
10
16.935
20
54.926
30
0.0
0
VERTEX
8
0
10
18.807
20
61.260
30
0.0
0
VERTEX
8
0
10
20.676
20
67.664
30
0.0
0
VERTEX
8
0
10
22.542
20
74.146
30
0.0
0
VERTEX
8
0
10
24.405
20
80.710
30
0.0
0
VERTEX
8
0
10
26.263
20
87.361
30
0.0
0
VERTEX
8
0
10
28.118
20
94.106
30
0.0
0
VERTEX
8
0
10
29.968
20
100.949
30
0.0
0
VERTEX
8
0
10
31.813
20
107.895
30
0.0
0
VERTEX
8
0
10
33.653
20
114.948
30
0.0
0
VERTEX
8
0
10
35.488
20
122.112
30
0.0
0
VERTEX
8
0
10
37.318
20
129.392
30
0.0
0
VERTEX
8
0
10
39.141
20
136.790
30
0.0
0
VERTEX
8
0
10
40.958
20
144.311
30
0.0
0
VERTEX
8
0
10
42.769
20
151.957
30
0.0
0
VERTEX
8
0
10
44.573
20
159.732
30
0.0
0
VERTEX
8
0
10
46.370
20
167.637
30
0.0
0
VERTEX
8
0
10
48.160
20
175.676
30
0.0
0
VERTEX
8
0
10
49.942
20
183.851
30
0.0
0
VERTEX
8
0
10
51.716
20
192.163
30
0.0
0
VERTEX
8
0
10
53.482
20
200.616
30
0.0
0
VERTEX
8
0
10
55.240
20
209.210
30
0.0
0
VERTEX
8
0
10
56.988
20
217.947
30
0.0
0
VERTEX
8
0
10
58.728
20
226.828
30
0.0
0
VERTEX
8
0
10
60.459
20
235.855
30
0.0
0
VERTEX
8
0
10
62.180
20
245.029
30
0.0
0
VERTEX
8
0
10
63.891
20
254.350
30
0.0
0
VERTEX
8
0
10
65.592
20
263.820
30
0.0
0
VERTEX
8
0
10
67.283
20
273.440
30
0.0
0
VERTEX
8
0
10
68.963
20
283.209
30
0.0
0
VERTEX
8
0
10
70.632
20
293.128
30
0.0
0
VERTEX
8
0
10
72.290
20
303.197
30
0.0
0
VERTEX
8
0
10
73.937
20
313.417
30
0.0
0
VERTEX
8
0
10
75.572
20
323.789
30
0.0
0
VERTEX
8
0
10
77.195
20
334.310
30
0.0
0
VERTEX
8
0
10
78.806
20
344.983
30
0.0
0
VERTEX
8
0
10
80.404
20
355.806
30
0.0
0
VERTEX
8
0
10
81.990
20
366.780
30
0.0
0
VERTEX
8
0
10
83.563
20
377.904
30
0.0
0
VERTEX
8
0
10
85.123
20
389.177
30
0.0
0
VERTEX
8
0
10
86.669
20
400.599
30
0.0
0
VERTEX
8
0
10
88.201
20
412.170
30
0.0
0
VERTEX
8
0
10
89.720
20
423.889
30
0.0
0
VERTEX
8
0
10
91.224
20
435.755
30
0.0
0
VERTEX
8
0
10
92.714
20
447.767
30
0.0
0
VERTEX
8
0
10
94.189
20
459.925
30
0.0
0
VERTEX
8
0
10
95.650
20
472.228
30
0.0
0
VERTEX
8
0
10
97.095
20
484.674
30
0.0
0
VERTEX
8
0
10
98.525
20
497.263
30
0.0
0
VERTEX
8
0
10
99.940
20
509.994
30
0.0
0
VERTEX
8
0
10
101.338
20
522.866
30
0.0
0
VERTEX
8
0
10
102.721
20
535.876
30
0.0
0
VERTEX
8
0
10
104.087
20
549.025
30
0.0
0
VERTEX
8
0
10
105.437
20
562.311
30
0.0
0
VERTEX
8
0
10
106.771
20
575.732
30
0.0
0
VERTEX
8
0
10
108.087
20
589.288
30
0.0
0
VERTEX
8
0
10
109.387
20
602.977
30
0.0
0
VERTEX
8
0
10
110.669
20
616.797
30
0.0
0
VERTEX
8
0
10
111.934
20
630.746
30
0.0
0
VERTEX
8
0
10
113.181
20
644.825
30
0.0
0
VERTEX
8
0
10
114.410
20
659.030
30
0.0
0
VERTEX
8
0
10
115.621
20
673.360
30
0.0
0
VERTEX
8
0
10
116.814
20
687.814
30
0.0
0
VERTEX
8
0
10
117.988
20
702.390
30
0.0
0
VERTEX
8
0
10
119.144
20
717.086
30
0.0
0
VERTEX
8
0
10
120.281
20
731.900
30
0.0
0
VERTEX
8
0
10
121.398
20
746.831
30
0.0
0
VERTEX
8
0
10
122.497
20
761.877
30
0.0
0
VERTEX
8
0
10
123.577
20
777.036
30
0.0
0
VERTEX
8
0
10
124.637
20
792.307
30
0.0
0
VERTEX
8
0
10
125.677
20
807.687
30
0.0
0
VERTEX
8
0
10
126.697
20
823.174
30
0.0
0
VERTEX
8
0
10
127.697
20
838.766
30
0.0
0
VERTEX
8
0
10
128.678
20
854.462
30
0.0
0
VERTEX
8
0
10
129.638
20
870.259
30
0.0
0
VERTEX
8
0
10
130.577
20
886.156
30
0.0
0
VERTEX
8
0
10
131.496
20
902.151
30
0.0
0
VERTEX
8
0
10
132.394
20
918.240
30
0.0
0
VERTEX
8
0
10
133.271
20
934.423
30
0.0
0
VERTEX
8
0
10
134.127
20
950.697
30
0.0
0
VERTEX
8
0
10
134.962
20
967.060
30
0.0
0
VERTEX
8
0
10
135.775
20
983.509
30
0.0
0
VERTEX
8
0
10
136.568
20
1000.043
30
0.0
0
VERTEX
8
0
10
137.338
20
1016.660
30
0.0
0
VERTEX
8
0
10
138.087
20
1033.357
30
0.0
0
VERTEX
8
0
10
138.814
20
1050.131
30
0.0
0
VERTEX
8
0
10
139.519
20
1066.982
30
0.0
0
VERTEX
8
0
10
140.202
20
1083.906
30
0.0
0
VERTEX
8
0
10
140.863
20
1100.901
30
0.0
0
VERTEX
8
0
10
141.502
20
1117.964
30
0.0
0
VERTEX
8
0
10
142.119
20
1135.095
30
0.0
0
VERTEX
8
0
10
142.712
20
1152.289
30
0.0
0
VERTEX
8
0
10
143.284
20
1169.545
30
0.0
0
VERTEX
8
0
10
143.833
20
1186.861
30
0.0
0
VERTEX
8
0
10
144.359
20
1204.233
30
0.0
0
VERTEX
8
0
10
144.862
20
1221.661
30
0.0
0
VERTEX
8
0
10
145.342
20
1239.140
30
0.0
0
VERTEX
8
0
10
145.800
20
1256.669
30
0.0
0
VERTEX
8
0
10
146.234
20
1274.246
30
0.0
0
VERTEX
8
0
10
146.646
20
1291.868
30
0.0
0
VERTEX
8
0
10
147.034
20
1309.532
30
0.0
0
VERTEX
8
0
10
147.399
20
1327.237
30
0.0
0
VERTEX
8
0
10
147.741
20
1344.979
30
0.0
0
VERTEX
8
0
10
148.059
20
1362.756
30
0.0
0
VERTEX
8
0
10
148.354
20
1380.566
30
0.0
0
VERTEX
8
0
10
148.625
20
1398.405
30
0.0
0
VERTEX
8
0
10
148.874
20
1416.273
30
0.0
0
VERTEX
8
0
10
149.098
20
1434.166
30
0.0
0
VERTEX
8
0
10
149.299
20
1452.081
30
0.0
0
VERTEX
8
0
10
149.477
20
1470.017
30
0.0
0
VERTEX
8
0
10
149.630
20
1487.971
30
0.0
0
VERTEX
8
0
10
149.761
20
1505.939
30
0.0
0
VERTEX
8
0
10
149.867
20
1523.920
30
0.0
0
VERTEX
8
0
10
149.950
20
1541.911
30
0.0
0
VERTEX
8
0
10
150.009
20
1559.910
30
0.0
0
VERTEX
8
0
10
150.045
20
1577.914
30
0.0
0
VERTEX
8
0
10
150.057
20
1595.920
30
0.0
0
VERTEX
8
0
10
150.045
20
1613.927
30
0.0
0
VERTEX
8
0
10
150.009
20
1631.931
30
0.0
0
VERTEX
8
0
10
149.950
20
1649.930
30
0.0
0
VERTEX
8
0
10
149.867
20
1667.921
30
0.0
0
VERTEX
8
0
10
149.761
20
1685.902
30
0.0
0
VERTEX
8
0
10
149.630
20
1703.870
30
0.0
0
VERTEX
8
0
10
149.477
20
1721.824
30
0.0
0
VERTEX
8
0
10
149.299
20
1739.759
30
0.0
0
VERTEX
8
0
10
149.098
20
1757.675
30
0.0
0
VERTEX
8
0
10
148.874
20
1775.568
30
0.0
0
VERTEX
8
0
10
148.625
20
1793.435
30
0.0
0
VERTEX
8
0
10
148.354
20
1811.275
30
0.0
0
VERTEX
8
0
10
148.059
20
1829.085
30
0.0
0
VERTEX
8
0
10
147.741
20
1846.862
30
0.0
0
VERTEX
8
0
10
147.399
20
1864.604
30
0.0
0
VERTEX
8
0
10
147.034
20
1882.309
30
0.0
0
VERTEX
8
0
10
146.646
20
1899.973
30
0.0
0
VERTEX
8
0
10
146.234
20
1917.595
30
0.0
0
VERTEX
8
0
10
145.800
20
1935.171
30
0.0
0
VERTEX
8
0
10
145.342
20
1952.701
30
0.0
0
VERTEX
8
0
10
144.862
20
1970.180
30
0.0
0
VERTEX
8
0
10
144.359
20
1987.608
30
0.0
0
VERTEX
8
0
10
143.833
20
2004.980
30
0.0
0
VERTEX
8
0
10
143.284
20
2022.296
30
0.0
0
VERTEX
8
0
10
142.712
20
2039.552
30
0.0
0
VERTEX
8
0
10
142.119
20
2056.746
30
0.0
0
VERTEX
8
0
10
141.502
20
2073.877
30
0.0
0
VERTEX
8
0
10
140.863
20
2090.940
30
0.0
0
VERTEX
8
0
10
140.202
20
2107.935
30
0.0
0
VERTEX
8
0
10
139.519
20
2124.859
30
0.0
0
VERTEX
8
0
10
138.814
20
2141.709
30
0.0
0
VERTEX
8
0
10
138.087
20
2158.484
30
0.0
0
VERTEX
8
0
10
137.338
20
2175.181
30
0.0
0
VERTEX
8
0
10
136.568
20
2191.798
30
0.0
0
VERTEX
8
0
10
135.775
20
2208.332
30
0.0
0
VERTEX
8
0
10
134.962
20
2224.781
30
0.0
0
VERTEX
8
0
10
134.127
20
2241.144
30
0.0
0
VERTEX
8
0
10
133.271
20
2257.418
30
0.0
0
VERTEX
8
0
10
132.394
20
2273.601
30
0.0
0
VERTEX
8
0
10
131.496
20
2289.690
30
0.0
0
VERTEX
8
0
10
130.577
20
2305.685
30
0.0
0
VERTEX
8
0
10
129.638
20
2321.581
30
0.0
0
VERTEX
8
0
10
128.678
20
2337.379
30
0.0
0
VERTEX
8
0
10
127.697
20
2353.075
30
0.0
0
VERTEX
8
0
10
126.697
20
2368.667
30
0.0
0
VERTEX
8
0
10
125.677
20
2384.154
30
0.0
0
VERTEX
8
0
10
124.637
20
2399.534
30
0.0
0
VERTEX
8
0
10
123.577
20
2414.804
30
0.0
0
VERTEX
8
0
10
122.497
20
2429.964
30
0.0
0
VERTEX
8
0
10
121.398
20
2445.010
30
0.0
0
VERTEX
8
0
10
120.281
20
2459.941
30
0.0
0
VERTEX
8
0
10
119.144
20
2474.755
30
0.0
0
VERTEX
8
0
10
117.988
20
2489.451
30
0.0
0
VERTEX
8
0
10
116.814
20
2504.027
30
0.0
0
VERTEX
8
0
10
115.621
20
2518.481
30
0.0
0
VERTEX
8
0
10
114.410
20
2532.811
30
0.0
0
VERTEX
8
0
10
113.181
20
2547.016
30
0.0
0
VERTEX
8
0
10
111.934
20
2561.095
30
0.0
0
VERTEX
8
0
10
110.669
20
2575.044
30
0.0
0
VERTEX
8
0
10
109.387
20
2588.864
30
0.0
0
VERTEX
8
0
10
108.087
20
2602.553
30
0.0
0
VERTEX
8
0
10
106.771
20
2616.108
30
0.0
0
VERTEX
8
0
10
105.437
20
2629.530
30
0.0
0
VERTEX
8
0
10
104.087
20
2642.816
30
0.0
0
VERTEX
8
0
10
102.721
20
2655.965
30
0.0
0
VERTEX
8
0
10
101.338
20
2668.975
30
0.0
0
VERTEX
8
0
10
99.940
20
2681.847
30
0.0
0
VERTEX
8
0
10
98.525
20
2694.578
30
0.0
0
VERTEX
8
0
10
97.095
20
2707.167
30
0.0
0
VERTEX
8
0
10
95.650
20
2719.613
30
0.0
0
VERTEX
8
0
10
94.189
20
2731.916
30
0.0
0
VERTEX
8
0
10
92.714
20
2744.074
30
0.0
0
VERTEX
8
0
10
91.224
20
2756.086
30
0.0
0
VERTEX
8
0
10
89.720
20
2767.952
30
0.0
0
VERTEX
8
0
10
88.201
20
2779.671
30
0.0
0
VERTEX
8
0
10
86.669
20
2791.242
30
0.0
0
VERTEX
8
0
10
85.123
20
2802.664
30
0.0
0
VERTEX
8
0
10
83.563
20
2813.937
30
0.0
0
VERTEX
8
0
10
81.990
20
2825.061
30
0.0
0
VERTEX
8
0
10
80.404
20
2836.034
30
0.0
0
VERTEX
8
0
10
78.806
20
2846.858
30
0.0
0
VERTEX
8
0
10
77.195
20
2857.530
30
0.0
0
VERTEX
8
0
10
75.572
20
2868.052
30
0.0
0
VERTEX
8
0
10
73.937
20
2878.423
30
0.0
0
VERTEX
8
0
10
72.290
20
2888.644
30
0.0
0
VERTEX
8
0
10
70.632
20
2898.713
30
0.0
0
VERTEX
8
0
10
68.963
20
2908.632
30
0.0
0
VERTEX
8
0
10
67.283
20
2918.401
30
0.0
0
VERTEX
8
0
10
65.592
20
2928.020
30
0.0
0
VERTEX
8
0
10
63.891
20
2937.490
30
0.0
0
VERTEX
8
0
10
62.180
20
2946.812
30
0.0
0
VERTEX
8
0
10
60.459
20
2955.986
30
0.0
0
VERTEX
8
0
10
58.728
20
2965.013
30
0.0
0
VERTEX
8
0
10
56.988
20
2973.894
30
0.0
0
VERTEX
8
0
10
55.240
20
2982.631
30
0.0
0
VERTEX
8
0
10
53.482
20
2991.225
30
0.0
0
VERTEX
8
0
10
51.716
20
2999.677
30
0.0
0
VERTEX
8
0
10
49.942
20
3007.990
30
0.0
0
VERTEX
8
0
10
48.160
20
3016.165
30
0.0
0
VERTEX
8
0
10
46.370
20
3024.204
30
0.0
0
VERTEX
8
0
10
44.573
20
3032.109
30
0.0
0
VERTEX
8
0
10
42.769
20
3039.884
30
0.0
0
VERTEX
8
0
10
40.958
20
3047.530
30
0.0
0
VERTEX
8
0
10
39.141
20
3055.050
30
0.0
0
VERTEX
8
0
10
37.318
20
3062.449
30
0.0
0
VERTEX
8
0
10
35.488
20
3069.728
30
0.0
0
VERTEX
8
0
10
33.653
20
3076.893
30
0.0
0
VERTEX
8
0
10
31.813
20
3083.946
30
0.0
0
VERTEX
8
0
10
29.968
20
3090.892
30
0.0
0
VERTEX
8
0
10
28.118
20
3097.735
30
0.0
0
VERTEX
8
0
10
26.263
20
3104.480
30
0.0
0
VERTEX
8
0
10
24.405
20
3111.131
30
0.0
0
VERTEX
8
0
10
22.542
20
3117.695
30
0.0
0
VERTEX
8
0
10
20.676
20
3124.176
30
0.0
0
VERTEX
8
0
10
18.807
20
3130.581
30
0.0
0
VERTEX
8
0
10
16.935
20
3136.915
30
0.0
0
VERTEX
8
0
10
15.060
20
3143.185
30
0.0
0
VERTEX
8
0
10
13.183
20
3149.396
30
0.0
0
VERTEX
8
0
10
11.303
20
3155.556
30
0.0
0
VERTEX
8
0
10
9.422
20
3161.672
30
0.0
0
VERTEX
8
0
10
7.540
20
3167.751
30
0.0
0
VERTEX
8
0
10
5.656
20
3173.800
30
0.0
0
VERTEX
8
0
10
3.771
20
3179.826
30
0.0
0
VERTEX
8
0
10
1.886
20
3185.837
30
0.0
0
VERTEX
8
0
10
0.000
20
3191.841
30
0.0
0
VERTEX
8
0
10
-0.000
20
3191.841
30
0.0
0
VERTEX
8
0
10
-1.886
20
3185.837
30
0.0
0
VERTEX
8
0
10
-3.771
20
3179.826
30
0.0
0
VERTEX
8
0
10
-5.656
20
3173.800
30
0.0
0
VERTEX
8
0
10
-7.540
20
3167.751
30
0.0
0
VERTEX
8
0
10
-9.422
20
3161.672
30
0.0
0
VERTEX
8
0
10
-11.303
20
3155.556
30
0.0
0
VERTEX
8
0
10
-13.183
20
3149.396
30
0.0
0
VERTEX
8
0
10
-15.060
20
3143.185
30
0.0
0
VERTEX
8
0
10
-16.935
20
3136.915
30
0.0
0
VERTEX
8
0
10
-18.807
20
3130.581
30
0.0
0
VERTEX
8
0
10
-20.676
20
3124.176
30
0.0
0
VERTEX
8
0
10
-22.542
20
3117.695
30
0.0
0
VERTEX
8
0
10
-24.405
20
3111.131
30
0.0
0
VERTEX
8
0
10
-26.263
20
3104.480
30
0.0
0
VERTEX
8
0
10
-28.118
20
3097.735
30
0.0
0
VERTEX
8
0
10
-29.968
20
3090.892
30
0.0
0
VERTEX
8
0
10
-31.813
20
3083.946
30
0.0
0
VERTEX
8
0
10
-33.653
20
3076.893
30
0.0
0
VERTEX
8
0
10
-35.488
20
3069.728
30
0.0
0
VERTEX
8
0
10
-37.318
20
3062.449
30
0.0
0
VERTEX
8
0
10
-39.141
20
3055.050
30
0.0
0
VERTEX
8
0
10
-40.958
20
3047.530
30
0.0
0
VERTEX
8
0
10
-42.769
20
3039.884
30
0.0
0
VERTEX
8
0
10
-44.573
20
3032.109
30
0.0
0
VERTEX
8
0
10
-46.370
20
3024.204
30
0.0
0
VERTEX
8
0
10
-48.160
20
3016.165
30
0.0
0
VERTEX
8
0
10
-49.942
20
3007.990
30
0.0
0
VERTEX
8
0
10
-51.716
20
2999.677
30
0.0
0
VERTEX
8
0
10
-53.482
20
2991.225
30
0.0
0
VERTEX
8
0
10
-55.240
20
2982.631
30
0.0
0
VERTEX
8
0
10
-56.988
20
2973.894
30
0.0
0
VERTEX
8
0
10
-58.728
20
2965.013
30
0.0
0
VERTEX
8
0
10
-60.459
20
2955.986
30
0.0
0
VERTEX
8
0
10
-62.180
20
2946.812
30
0.0
0
VERTEX
8
0
10
-63.891
20
2937.490
30
0.0
0
VERTEX
8
0
10
-65.592
20
2928.020
30
0.0
0
VERTEX
8
0
10
-67.283
20
2918.401
30
0.0
0
VERTEX
8
0
10
-68.963
20
2908.632
30
0.0
0
VERTEX
8
0
10
-70.632
20
2898.713
30
0.0
0
VERTEX
8
0
10
-72.290
20
2888.644
30
0.0
0
VERTEX
8
0
10
-73.937
20
2878.423
30
0.0
0
VERTEX
8
0
10
-75.572
20
2868.052
30
0.0
0
VERTEX
8
0
10
-77.195
20
2857.530
30
0.0
0
VERTEX
8
0
10
-78.806
20
2846.858
30
0.0
0
VERTEX
8
0
10
-80.404
20
2836.034
30
0.0
0
VERTEX
8
0
10
-81.990
20
2825.061
30
0.0
0
VERTEX
8
0
10
-83.563
20
2813.937
30
0.0
0
VERTEX
8
0
10
-85.123
20
2802.664
30
0.0
0
VERTEX
8
0
10
-86.669
20
2791.242
30
0.0
0
VERTEX
8
0
10
-88.201
20
2779.671
30
0.0
0
VERTEX
8
0
10
-89.720
20
2767.952
30
0.0
0
VERTEX
8
0
10
-91.224
20
2756.086
30
0.0
0
VERTEX
8
0
10
-92.714
20
2744.074
30
0.0
0
VERTEX
8
0
10
-94.189
20
2731.916
30
0.0
0
VERTEX
8
0
10
-95.650
20
2719.613
30
0.0
0
VERTEX
8
0
10
-97.095
20
2707.167
30
0.0
0
VERTEX
8
0
10
-98.525
20
2694.578
30
0.0
0
VERTEX
8
0
10
-99.940
20
2681.847
30
0.0
0
VERTEX
8
0
10
-101.338
20
2668.975
30
0.0
0
VERTEX
8
0
10
-102.721
20
2655.965
30
0.0
0
VERTEX
8
0
10
-104.087
20
2642.816
30
0.0
0
VERTEX
8
0
10
-105.437
20
2629.530
30
0.0
0
VERTEX
8
0
10
-106.771
20
2616.108
30
0.0
0
VERTEX
8
0
10
-108.087
20
2602.553
30
0.0
0
VERTEX
8
0
10
-109.387
20
2588.864
30
0.0
0
VERTEX
8
0
10
-110.669
20
2575.044
30
0.0
0
VERTEX
8
0
10
-111.934
20
2561.095
30
0.0
0
VERTEX
8
0
10
-113.181
20
2547.016
30
0.0
0
VERTEX
8
0
10
-114.410
20
2532.811
30
0.0
0
VERTEX
8
0
10
-115.621
20
2518.481
30
0.0
0
VERTEX
8
0
10
-116.814
20
2504.027
30
0.0
0
VERTEX
8
0
10
-117.988
20
2489.451
30
0.0
0
VERTEX
8
0
10
-119.144
20
2474.755
30
0.0
0
VERTEX
8
0
10
-120.281
20
2459.941
30
0.0
0
VERTEX
8
0
10
-121.398
20
2445.010
30
0.0
0
VERTEX
8
0
10
-122.497
20
2429.964
30
0.0
0
VERTEX
8
0
10
-123.577
20
2414.804
30
0.0
0
VERTEX
8
0
10
-124.637
20
2399.534
30
0.0
0
VERTEX
8
0
10
-125.677
20
2384.154
30
0.0
0
VERTEX
8
0
10
-126.697
20
2368.667
30
0.0
0
VERTEX
8
0
10
-127.697
20
2353.075
30
0.0
0
VERTEX
8
0
10
-128.678
20
2337.379
30
0.0
0
VERTEX
8
0
10
-129.638
20
2321.581
30
0.0
0
VERTEX
8
0
10
-130.577
20
2305.685
30
0.0
0
VERTEX
8
0
10
-131.496
20
2289.690
30
0.0
0
VERTEX
8
0
10
-132.394
20
2273.601
30
0.0
0
VERTEX
8
0
10
-133.271
20
2257.418
30
0.0
0
VERTEX
8
0
10
-134.127
20
2241.144
30
0.0
0
VERTEX
8
0
10
-134.962
20
2224.781
30
0.0
0
VERTEX
8
0
10
-135.775
20
2208.332
30
0.0
0
VERTEX
8
0
10
-136.568
20
2191.798
30
0.0
0
VERTEX
8
0
10
-137.338
20
2175.181
30
0.0
0
VERTEX
8
0
10
-138.087
20
2158.484
30
0.0
0
VERTEX
8
0
10
-138.814
20
2141.709
30
0.0
0
VERTEX
8
0
10
-139.519
20
2124.859
30
0.0
0
VERTEX
8
0
10
-140.202
20
2107.935
30
0.0
0
VERTEX
8
0
10
-140.863
20
2090.940
30
0.0
0
VERTEX
8
0
10
-141.502
20
2073.877
30
0.0
0
VERTEX
8
0
10
-142.119
20
2056.746
30
0.0
0
VERTEX
8
0
10
-142.712
20
2039.552
30
0.0
0
VERTEX
8
0
10
-143.284
20
2022.296
30
0.0
0
VERTEX
8
0
10
-143.833
20
2004.980
30
0.0
0
VERTEX
8
0
10
-144.359
20
1987.608
30
0.0
0
VERTEX
8
0
10
-144.862
20
1970.180
30
0.0
0
VERTEX
8
0
10
-145.342
20
1952.701
30
0.0
0
VERTEX
8
0
10
-145.800
20
1935.171
30
0.0
0
VERTEX
8
0
10
-146.234
20
1917.595
30
0.0
0
VERTEX
8
0
10
-146.646
20
1899.973
30
0.0
0
VERTEX
8
0
10
-147.034
20
1882.309
30
0.0
0
VERTEX
8
0
10
-147.399
20
1864.604
30
0.0
0
VERTEX
8
0
10
-147.741
20
1846.862
30
0.0
0
VERTEX
8
0
10
-148.059
20
1829.085
30
0.0
0
VERTEX
8
0
10
-148.354
20
1811.275
30
0.0
0
VERTEX
8
0
10
-148.625
20
1793.435
30
0.0
0
VERTEX
8
0
10
-148.874
20
1775.568
30
0.0
0
VERTEX
8
0
10
-149.098
20
1757.675
30
0.0
0
VERTEX
8
0
10
-149.299
20
1739.759
30
0.0
0
VERTEX
8
0
10
-149.477
20
1721.824
30
0.0
0
VERTEX
8
0
10
-149.630
20
1703.870
30
0.0
0
VERTEX
8
0
10
-149.761
20
1685.902
30
0.0
0
VERTEX
8
0
10
-149.867
20
1667.921
30
0.0
0
VERTEX
8
0
10
-149.950
20
1649.930
30
0.0
0
VERTEX
8
0
10
-150.009
20
1631.931
30
0.0
0
VERTEX
8
0
10
-150.045
20
1613.927
30
0.0
0
VERTEX
8
0
10
-150.057
20
1595.920
30
0.0
0
VERTEX
8
0
10
-150.045
20
1577.914
30
0.0
0
VERTEX
8
0
10
-150.009
20
1559.910
30
0.0
0
VERTEX
8
0
10
-149.950
20
1541.911
30
0.0
0
VERTEX
8
0
10
-149.867
20
1523.920
30
0.0
0
VERTEX
8
0
10
-149.761
20
1505.939
30
0.0
0
VERTEX
8
0
10
-149.630
20
1487.971
30
0.0
0
VERTEX
8
0
10
-149.477
20
1470.017
30
0.0
0
VERTEX
8
0
10
-149.299
20
1452.081
30
0.0
0
VERTEX
8
0
10
-149.098
20
1434.166
30
0.0
0
VERTEX
8
0
10
-148.874
20
1416.273
30
0.0
0
VERTEX
8
0
10
-148.625
20
1398.405
30
0.0
0
VERTEX
8
0
10
-148.354
20
1380.566
30
0.0
0
VERTEX
8
0
10
-148.059
20
1362.756
30
0.0
0
VERTEX
8
0
10
-147.741
20
1344.979
30
0.0
0
VERTEX
8
0
10
-147.399
20
1327.237
30
0.0
0
VERTEX
8
0
10
-147.034
20
1309.532
30
0.0
0
VERTEX
8
0
10
-146.646
20
1291.868
30
0.0
0
VERTEX
8
0
10
-146.234
20
1274.246
30
0.0
0
VERTEX
8
0
10
-145.800
20
1256.669
30
0.0
0
VERTEX
8
0
10
-145.342
20
1239.140
30
0.0
0
VERTEX
8
0
10
-144.862
20
1221.661
30
0.0
0
VERTEX
8
0
10
-144.359
20
1204.233
30
0.0
0
VERTEX
8
0
10
-143.833
20
1186.861
30
0.0
0
VERTEX
8
0
10
-143.284
20
1169.545
30
0.0
0
VERTEX
8
0
10
-142.712
20
1152.289
30
0.0
0
VERTEX
8
0
10
-142.119
20
1135.095
30
0.0
0
VERTEX
8
0
10
-141.502
20
1117.964
30
0.0
0
VERTEX
8
0
10
-140.863
20
1100.901
30
0.0
0
VERTEX
8
0
10
-140.202
20
1083.906
30
0.0
0
VERTEX
8
0
10
-139.519
20
1066.982
30
0.0
0
VERTEX
8
0
10
-138.814
20
1050.131
30
0.0
0
VERTEX
8
0
10
-138.087
20
1033.357
30
0.0
0
VERTEX
8
0
10
-137.338
20
1016.660
30
0.0
0
VERTEX
8
0
10
-136.568
20
1000.043
30
0.0
0
VERTEX
8
0
10
-135.775
20
983.509
30
0.0
0
VERTEX
8
0
10
-134.962
20
967.060
30
0.0
0
VERTEX
8
0
10
-134.127
20
950.697
30
0.0
0
VERTEX
8
0
10
-133.271
20
934.423
30
0.0
0
VERTEX
8
0
10
-132.394
20
918.240
30
0.0
0
VERTEX
8
0
10
-131.496
20
902.151
30
0.0
0
VERTEX
8
0
10
-130.577
20
886.156
30
0.0
0
VERTEX
8
0
10
-129.638
20
870.259
30
0.0
0
VERTEX
8
0
10
-128.678
20
854.462
30
0.0
0
VERTEX
8
0
10
-127.697
20
838.766
30
0.0
0
VERTEX
8
0
10
-126.697
20
823.174
30
0.0
0
VERTEX
8
0
10
-125.677
20
807.687
30
0.0
0
VERTEX
8
0
10
-124.637
20
792.307
30
0.0
0
VERTEX
8
0
10
-123.577
20
777.036
30
0.0
0
VERTEX
8
0
10
-122.497
20
761.877
30
0.0
0
VERTEX
8
0
10
-121.398
20
746.831
30
0.0
0
VERTEX
8
0
10
-120.281
20
731.900
30
0.0
0
VERTEX
8
0
10
-119.144
20
717.086
30
0.0
0
VERTEX
8
0
10
-117.988
20
702.390
30
0.0
0
VERTEX
8
0
10
-116.814
20
687.814
30
0.0
0
VERTEX
8
0
10
-115.621
20
673.360
30
0.0
0
VERTEX
8
0
10
-114.410
20
659.030
30
0.0
0
VERTEX
8
0
10
-113.181
20
644.825
30
0.0
0
VERTEX
8
0
10
-111.934
20
630.746
30
0.0
0
VERTEX
8
0
10
-110.669
20
616.797
30
0.0
0
VERTEX
8
0
10
-109.387
20
602.977
30
0.0
0
VERTEX
8
0
10
-108.087
20
589.288
30
0.0
0
VERTEX
8
0
10
-106.771
20
575.732
30
0.0
0
VERTEX
8
0
10
-105.437
20
562.311
30
0.0
0
VERTEX
8
0
10
-104.087
20
549.025
30
0.0
0
VERTEX
8
0
10
-102.721
20
535.876
30
0.0
0
VERTEX
8
0
10
-101.338
20
522.866
30
0.0
0
VERTEX
8
0
10
-99.940
20
509.994
30
0.0
0
VERTEX
8
0
10
-98.525
20
497.263
30
0.0
0
VERTEX
8
0
10
-97.095
20
484.674
30
0.0
0
VERTEX
8
0
10
-95.650
20
472.228
30
0.0
0
VERTEX
8
0
10
-94.189
20
459.925
30
0.0
0
VERTEX
8
0
10
-92.714
20
447.767
30
0.0
0
VERTEX
8
0
10
-91.224
20
435.755
30
0.0
0
VERTEX
8
0
10
-89.720
20
423.889
30
0.0
0
VERTEX
8
0
10
-88.201
20
412.170
30
0.0
0
VERTEX
8
0
10
-86.669
20
400.599
30
0.0
0
VERTEX
8
0
10
-85.123
20
389.177
30
0.0
0
VERTEX
8
0
10
-83.563
20
377.904
30
0.0
0
VERTEX
8
0
10
-81.990
20
366.780
30
0.0
0
VERTEX
8
0
10
-80.404
20
355.806
30
0.0
0
VERTEX
8
0
10
-78.806
20
344.983
30
0.0
0
VERTEX
8
0
10
-77.195
20
334.310
30
0.0
0
VERTEX
8
0
10
-75.572
20
323.789
30
0.0
0
VERTEX
8
0
10
-73.937
20
313.417
30
0.0
0
VERTEX
8
0
10
-72.290
20
303.197
30
0.0
0
VERTEX
8
0
10
-70.632
20
293.128
30
0.0
0
VERTEX
8
0
10
-68.963
20
283.209
30
0.0
0
VERTEX
8
0
10
-67.283
20
273.440
30
0.0
0
VERTEX
8
0
10
-65.592
20
263.820
30
0.0
0
VERTEX
8
0
10
-63.891
20
254.350
30
0.0
0
VERTEX
8
0
10
-62.180
20
245.029
30
0.0
0
VERTEX
8
0
10
-60.459
20
235.855
30
0.0
0
VERTEX
8
0
10
-58.728
20
226.828
30
0.0
0
VERTEX
8
0
10
-56.988
20
217.947
30
0.0
0
VERTEX
8
0
10
-55.240
20
209.210
30
0.0
0
VERTEX
8
0
10
-53.482
20
200.616
30
0.0
0
VERTEX
8
0
10
-51.716
20
192.163
30
0.0
0
VERTEX
8
0
10
-49.942
20
183.851
30
0.0
0
VERTEX
8
0
10
-48.160
20
175.676
30
0.0
0
VERTEX
8
0
10
-46.370
20
167.637
30
0.0
0
VERTEX
8
0
10
-44.573
20
159.732
30
0.0
0
VERTEX
8
0
10
-42.769
20
151.957
30
0.0
0
VERTEX
8
0
10
-40.958
20
144.311
30
0.0
0
VERTEX
8
0
10
-39.141
20
136.790
30
0.0
0
VERTEX
8
0
10
-37.318
20
129.392
30
0.0
0
VERTEX
8
0
10
-35.488
20
122.112
30
0.0
0
VERTEX
8
0
10
-33.653
20
114.948
30
0.0
0
VERTEX
8
0
10
-31.813
20
107.895
30
0.0
0
VERTEX
8
0
10
-29.968
20
100.949
30
0.0
0
VERTEX
8
0
10
-28.118
20
94.106
30
0.0
0
VERTEX
8
0
10
-26.263
20
87.361
30
0.0
0
VERTEX
8
0
10
-24.405
20
80.710
30
0.0
0
VERTEX
8
0
10
-22.542
20
74.146
30
0.0
0
VERTEX
8
0
10
-20.676
20
67.664
30
0.0
0
VERTEX
8
0
10
-18.807
20
61.260
30
0.0
0
VERTEX
8
0
10
-16.935
20
54.926
30
0.0
0
VERTEX
8
0
10
-15.060
20
48.656
30
0.0
0
VERTEX
8
0
10
-13.183
20
42.445
30
0.0
0
VERTEX
8
0
10
-11.303
20
36.284
30
0.0
0
VERTEX
8
0
10
-9.422
20
30.168
30
0.0
0
VERTEX
8
0
10
-7.540
20
24.090
30
0.0
0
VERTEX
8
0
10
-5.656
20
18.041
30
0.0
0
VERTEX
8
0
10
-3.771
20
12.015
30
0.0
0
VERTEX
8
0
10
-1.886
20
6.004
30
0.0
0
VERTEX
8
0
10
-0.000
20
0.000
30
0.0
0
SEQEND
0
LINE
8
0
10
0.000
20
-15.000
11
0.000
21
3206.841
0
LINE
8
0
10
-74.850
20
319.200
11
74.850
21
319.200
0
LINE
8
0
10
-112.610
20
638.400
11
112.610
21
638.400
0
LINE
8
0
10
-134.480
20
957.600
11
134.480
21
957.600
0
LINE
8
0
10
-146.290
20
1276.700
11
146.290
21
1276.700
0
LINE
8
0
10
-150.060
20
1595.900
11
150.060
21
1595.900
0
LINE
8
0
10
-146.290
20
1915.100
11
146.290
21
1915.100
0
LINE
8
0
10
-134.480
20
2234.300
11
134.480
21
2234.300
0
LINE
8
0
10
-112.610
20
2553.500
11
112.610
21
2553.500
0
LINE
8
0
10
-74.850
20
2872.700
11
74.850
21
2872.700
0
TEXT
8
0
10
-150.000
20
-60.000
40
12.000
1
HULL GORE 1 OF 10 - 3:1 PROLATE SPHEROID 2866 X 955 MM - UNITS MM
0
TEXT
8
0
10
-150.000
20
-80.000
40
9.000
1
NET LENGTH 3192 MM, MAX NET WIDTH 300 MM, SEAM ALLOWANCE 15 MM (OUTER = CUT, INNER = SEW)
0
TEXT
8
0
10
-150.000
20
-96.000
40
9.000
1
CUT 10 FROM 38UM LLDPE - FLAT PATTERN NEGLECTS DOUBLE CURVATURE (FILM STRAIN/SEAM TAKES IT)
0
ENDSEC
0
EOF
