0
SECTION
2
ENTITIES
0
POLYLINE
8
0
66
1
70
1
0
VERTEX
8
0
10
208.0000
20
0.2656
30
0.0
0
VERTEX
8
0
10
207.9870
20
0.2683
30
0.0
0
VERTEX
8
0
10
207.9482
20
0.2763
30
0.0
0
VERTEX
8
0
10
207.8834
20
0.2898
30
0.0
0
VERTEX
8
0
10
207.7927
20
0.3085
30
0.0
0
VERTEX
8
0
10
207.6762
20
0.3326
30
0.0
0
VERTEX
8
0
10
207.5338
20
0.3621
30
0.0
0
VERTEX
8
0
10
207.3656
20
0.3968
30
0.0
0
VERTEX
8
0
10
207.1717
20
0.4368
30
0.0
0
VERTEX
8
0
10
206.9520
20
0.4820
30
0.0
0
VERTEX
8
0
10
206.7067
20
0.5324
30
0.0
0
VERTEX
8
0
10
206.4358
20
0.5880
30
0.0
0
VERTEX
8
0
10
206.1394
20
0.6487
30
0.0
0
VERTEX
8
0
10
205.8175
20
0.7144
30
0.0
0
VERTEX
8
0
10
205.4702
20
0.7852
30
0.0
0
VERTEX
8
0
10
205.0977
20
0.8609
30
0.0
0
VERTEX
8
0
10
204.6999
20
0.9416
30
0.0
0
VERTEX
8
0
10
204.2771
20
1.0270
30
0.0
0
VERTEX
8
0
10
203.8292
20
1.1173
30
0.0
0
VERTEX
8
0
10
203.3565
20
1.2122
30
0.0
0
VERTEX
8
0
10
202.8590
20
1.3118
30
0.0
0
VERTEX
8
0
10
202.3369
20
1.4160
30
0.0
0
VERTEX
8
0
10
201.7903
20
1.5246
30
0.0
0
VERTEX
8
0
10
201.2193
20
1.6376
30
0.0
0
VERTEX
8
0
10
200.6241
20
1.7550
30
0.0
0
VERTEX
8
0
10
200.0047
20
1.8765
30
0.0
0
VERTEX
8
0
10
199.3615
20
2.0023
30
0.0
0
VERTEX
8
0
10
198.6945
20
2.1320
30
0.0
0
VERTEX
8
0
10
198.0039
20
2.2658
30
0.0
0
VERTEX
8
0
10
197.2899
20
2.4034
30
0.0
0
VERTEX
8
0
10
196.5526
20
2.5447
30
0.0
0
VERTEX
8
0
10
195.7923
20
2.6898
30
0.0
0
VERTEX
8
0
10
195.0091
20
2.8384
30
0.0
0
VERTEX
8
0
10
194.2031
20
2.9904
30
0.0
0
VERTEX
8
0
10
193.3748
20
3.1459
30
0.0
0
VERTEX
8
0
10
192.5241
20
3.3045
30
0.0
0
VERTEX
8
0
10
191.6514
20
3.4664
30
0.0
0
VERTEX
8
0
10
190.7568
20
3.6313
30
0.0
0
VERTEX
8
0
10
189.8407
20
3.7991
30
0.0
0
VERTEX
8
0
10
188.9031
20
3.9697
30
0.0
0
VERTEX
8
0
10
187.9443
20
4.1430
30
0.0
0
VERTEX
8
0
10
186.9647
20
4.3189
30
0.0
0
VERTEX
8
0
10
185.9643
20
4.4973
30
0.0
0
VERTEX
8
0
10
184.9436
20
4.6781
30
0.0
0
VERTEX
8
0
10
183.9027
20
4.8611
30
0.0
0
VERTEX
8
0
10
182.8418
20
5.0463
30
0.0
0
VERTEX
8
0
10
181.7613
20
5.2334
30
0.0
0
VERTEX
8
0
10
180.6614
20
5.4224
30
0.0
0
VERTEX
8
0
10
179.5425
20
5.6132
30
0.0
0
VERTEX
8
0
10
178.4046
20
5.8057
30
0.0
0
VERTEX
8
0
10
177.2483
20
5.9996
30
0.0
0
VERTEX
8
0
10
176.0737
20
6.1950
30
0.0
0
VERTEX
8
0
10
174.8811
20
6.3916
30
0.0
0
VERTEX
8
0
10
173.6709
20
6.5894
30
0.0
0
VERTEX
8
0
10
172.4433
20
6.7883
30
0.0
0
VERTEX
8
0
10
171.1986
20
6.9880
30
0.0
0
VERTEX
8
0
10
169.9372
20
7.1885
30
0.0
0
VERTEX
8
0
10
168.6594
20
7.3897
30
0.0
0
VERTEX
8
0
10
167.3654
20
7.5913
30
0.0
0
VERTEX
8
0
10
166.0557
20
7.7934
30
0.0
0
VERTEX
8
0
10
164.7305
20
7.9958
30
0.0
0
VERTEX
8
0
10
163.3902
20
8.1983
30
0.0
0
VERTEX
8
0
10
162.0350
20
8.4009
30
0.0
0
VERTEX
8
0
10
160.6654
20
8.6034
30
0.0
0
VERTEX
8
0
10
159.2817
20
8.8056
30
0.0
0
VERTEX
8
0
10
157.8842
20
9.0075
30
0.0
0
VERTEX
8
0
10
156.4732
20
9.2090
30
0.0
0
VERTEX
8
0
10
155.0492
20
9.4098
30
0.0
0
VERTEX
8
0
10
153.6125
20
9.6100
30
0.0
0
VERTEX
8
0
10
152.1634
20
9.8093
30
0.0
0
VERTEX
8
0
10
150.7023
20
10.0078
30
0.0
0
VERTEX
8
0
10
149.2295
20
10.2051
30
0.0
0
VERTEX
8
0
10
147.7455
20
10.4013
30
0.0
0
VERTEX
8
0
10
146.2506
20
10.5962
30
0.0
0
VERTEX
8
0
10
144.7452
20
10.7897
30
0.0
0
VERTEX
8
0
10
143.2296
20
10.9817
30
0.0
0
VERTEX
8
0
10
141.7042
20
11.1721
30
0.0
0
VERTEX
8
0
10
140.1694
20
11.3608
30
0.0
0
VERTEX
8
0
10
138.6256
20
11.5476
30
0.0
0
VERTEX
8
0
10
137.0732
20
11.7326
30
0.0
0
VERTEX
8
0
10
135.5125
20
11.9154
30
0.0
0
VERTEX
8
0
10
133.9440
20
12.0961
30
0.0
0
VERTEX
8
0
10
132.3680
20
12.2746
30
0.0
0
VERTEX
8
0
10
130.7850
20
12.4507
30
0.0
0
VERTEX
8
0
10
129.1953
20
12.6243
30
0.0
0
VERTEX
8
0
10
127.5993
20
12.7954
30
0.0
0
VERTEX
8
0
10
125.9974
20
12.9638
30
0.0
0
VERTEX
8
0
10
124.3900
20
13.1294
30
0.0
0
VERTEX
8
0
10
122.7776
20
13.2922
30
0.0
0
VERTEX
8
0
10
121.1605
20
13.4519
30
0.0
0
VERTEX
8
0
10
119.5390
20
13.6086
30
0.0
0
VERTEX
8
0
10
117.9138
20
13.7621
30
0.0
0
VERTEX
8
0
10
116.2850
20
13.9123
30
0.0
0
VERTEX
8
0
10
114.6532
20
14.0590
30
0.0
0
VERTEX
8
0
10
113.0188
20
14.2023
30
0.0
0
VERTEX
8
0
10
111.3821
20
14.3418
30
0.0
0
VERTEX
8
0
10
109.7435
20
14.4776
30
0.0
0
VERTEX
8
0
10
108.1035
20
14.6096
30
0.0
0
VERTEX
8
0
10
106.4625
20
14.7375
30
0.0
0
VERTEX
8
0
10
104.8209
20
14.8613
30
0.0
0
VERTEX
8
0
10
103.1791
20
14.9808
30
0.0
0
VERTEX
8
0
10
101.5375
20
15.0959
30
0.0
0
VERTEX
8
0
10
99.8965
20
15.2066
30
0.0
0
VERTEX
8
0
10
98.2565
20
15.3126
30
0.0
0
VERTEX
8
0
10
96.6179
20
15.4138
30
0.0
0
VERTEX
8
0
10
94.9812
20
15.5101
30
0.0
0
VERTEX
8
0
10
93.3468
20
15.6013
30
0.0
0
VERTEX
8
0
10
91.7150
20
15.6874
30
0.0
0
VERTEX
8
0
10
90.0862
20
15.7681
30
0.0
0
VERTEX
8
0
10
88.4610
20
15.8433
30
0.0
0
VERTEX
8
0
10
86.8395
20
15.9130
30
0.0
0
VERTEX
8
0
10
85.2224
20
15.9769
30
0.0
0
VERTEX
8
0
10
83.6100
20
16.0350
30
0.0
0
VERTEX
8
0
10
82.0026
20
16.0870
30
0.0
0
VERTEX
8
0
10
80.4007
20
16.1329
30
0.0
0
VERTEX
8
0
10
78.8047
20
16.1726
30
0.0
0
VERTEX
8
0
10
77.2150
20
16.2059
30
0.0
0
VERTEX
8
0
10
75.6320
20
16.2327
30
0.0
0
VERTEX
8
0
10
74.0560
20
16.2529
30
0.0
0
VERTEX
8
0
10
72.4875
20
16.2663
30
0.0
0
VERTEX
8
0
10
70.9268
20
16.2730
30
0.0
0
VERTEX
8
0
10
69.3744
20
16.2728
30
0.0
0
VERTEX
8
0
10
67.8306
20
16.2656
30
0.0
0
VERTEX
8
0
10
66.2958
20
16.2514
30
0.0
0
VERTEX
8
0
10
64.7704
20
16.2300
30
0.0
0
VERTEX
8
0
10
63.2548
20
16.2015
30
0.0
0
VERTEX
8
0
10
61.7494
20
16.1658
30
0.0
0
VERTEX
8
0
10
60.2545
20
16.1228
30
0.0
0
VERTEX
8
0
10
58.7705
20
16.0726
30
0.0
0
VERTEX
8
0
10
57.2977
20
16.0151
30
0.0
0
VERTEX
8
0
10
55.8366
20
15.9504
30
0.0
0
VERTEX
8
0
10
54.3875
20
15.8784
30
0.0
0
VERTEX
8
0
10
52.9508
20
15.7991
30
0.0
0
VERTEX
8
0
10
51.5268
20
15.7127
30
0.0
0
VERTEX
8
0
10
50.1158
20
15.6191
30
0.0
0
VERTEX
8
0
10
48.7183
20
15.5184
30
0.0
0
VERTEX
8
0
10
47.3346
20
15.4107
30
0.0
0
VERTEX
8
0
10
45.9650
20
15.2960
30
0.0
0
VERTEX
8
0
10
44.6098
20
15.1745
30
0.0
0
VERTEX
8
0
10
43.2695
20
15.0462
30
0.0
0
VERTEX
8
0
10
41.9443
20
14.9112
30
0.0
0
VERTEX
8
0
10
40.6346
20
14.7697
30
0.0
0
VERTEX
8
0
10
39.3406
20
14.6217
30
0.0
0
VERTEX
8
0
10
38.0628
20
14.4674
30
0.0
0
VERTEX
8
0
10
36.8014
20
14.3070
30
0.0
0
VERTEX
8
0
10
35.5567
20
14.1405
30
0.0
0
VERTEX
8
0
10
34.3291
20
13.9681
30
0.0
0
VERTEX
8
0
10
33.1189
20
13.7899
30
0.0
0
VERTEX
8
0
10
31.9263
20
13.6062
30
0.0
0
VERTEX
8
0
10
30.7517
20
13.4170
30
0.0
0
VERTEX
8
0
10
29.5954
20
13.2224
30
0.0
0
VERTEX
8
0
10
28.4575
20
13.0228
30
0.0
0
VERTEX
8
0
10
27.3386
20
12.8181
30
0.0
0
VERTEX
8
0
10
26.2387
20
12.6085
30
0.0
0
VERTEX
8
0
10
25.1582
20
12.3943
30
0.0
0
VERTEX
8
0
10
24.0973
20
12.1754
30
0.0
0
VERTEX
8
0
10
23.0564
20
11.9522
30
0.0
0
VERTEX
8
0
10
22.0357
20
11.7247
30
0.0
0
VERTEX
8
0
10
21.0353
20
11.4931
30
0.0
0
VERTEX
8
0
10
20.0557
20
11.2575
30
0.0
0
VERTEX
8
0
10
19.0969
20
11.0180
30
0.0
0
VERTEX
8
0
10
18.1593
20
10.7749
30
0.0
0
VERTEX
8
0
10
17.2432
20
10.5281
30
0.0
0
VERTEX
8
0
10
16.3486
20
10.2778
30
0.0
0
VERTEX
8
0
10
15.4759
20
10.0243
30
0.0
0
VERTEX
8
0
10
14.6252
20
9.7675
30
0.0
0
VERTEX
8
0
10
13.7969
20
9.5076
30
0.0
0
VERTEX
8
0
10
12.9909
20
9.2447
30
0.0
0
VERTEX
8
0
10
12.2077
20
8.9790
30
0.0
0
VERTEX
8
0
10
11.4474
20
8.7105
30
0.0
0
VERTEX
8
0
10
10.7101
20
8.4394
30
0.0
0
VERTEX
8
0
10
9.9961
20
8.1658
30
0.0
0
VERTEX
8
0
10
9.3055
20
7.8898
30
0.0
0
VERTEX
8
0
10
8.6385
20
7.6115
30
0.0
0
VERTEX
8
0
10
7.9953
20
7.3310
30
0.0
0
VERTEX
8
0
10
7.3759
20
7.0485
30
0.0
0
VERTEX
8
0
10
6.7807
20
6.7641
30
0.0
0
VERTEX
8
0
10
6.2097
20
6.4778
30
0.0
0
VERTEX
8
0
10
5.6631
20
6.1899
30
0.0
0
VERTEX
8
0
10
5.1410
20
5.9005
30
0.0
0
VERTEX
8
0
10
4.6435
20
5.6096
30
0.0
0
VERTEX
8
0
10
4.1708
20
5.3174
30
0.0
0
VERTEX
8
0
10
3.7229
20
5.0241
30
0.0
0
VERTEX
8
0
10
3.3001
20
4.7297
30
0.0
0
VERTEX
8
0
10
2.9023
20
4.4345
30
0.0
0
VERTEX
8
0
10
2.5298
20
4.1386
30
0.0
0
VERTEX
8
0
10
2.1825
20
3.8421
30
0.0
0
VERTEX
8
0
10
1.8606
20
3.5451
30
0.0
0
VERTEX
8
0
10
1.5642
20
3.2479
30
0.0
0
VERTEX
8
0
10
1.2933
20
2.9505
30
0.0
0
VERTEX
8
0
10
1.0480
20
2.6531
30
0.0
0
VERTEX
8
0
10
0.8283
20
2.3558
30
0.0
0
VERTEX
8
0
10
0.6344
20
2.0589
30
0.0
0
VERTEX
8
0
10
0.4662
20
1.7624
30
0.0
0
VERTEX
8
0
10
0.3238
20
1.4665
30
0.0
0
VERTEX
8
0
10
0.2073
20
1.1712
30
0.0
0
VERTEX
8
0
10
0.1166
20
0.8769
30
0.0
0
VERTEX
8
0
10
0.0518
20
0.5835
30
0.0
0
VERTEX
8
0
10
0.0130
20
0.2911
30
0.0
0
VERTEX
8
0
10
0.0000
20
0.0000
30
0.0
0
VERTEX
8
0
10
0.0130
20
-0.2786
30
0.0
0
VERTEX
8
0
10
0.0518
20
-0.5556
30
0.0
0
VERTEX
8
0
10
0.1166
20
-0.8307
30
0.0
0
VERTEX
8
0
10
0.2073
20
-1.1036
30
0.0
0
VERTEX
8
0
10
0.3238
20
-1.3740
30
0.0
0
VERTEX
8
0
10
0.4662
20
-1.6417
30
0.0
0
VERTEX
8
0
10
0.6344
20
-1.9063
30
0.0
0
VERTEX
8
0
10
0.8283
20
-2.1676
30
0.0
0
VERTEX
8
0
10
1.0480
20
-2.4254
30
0.0
0
VERTEX
8
0
10
1.2933
20
-2.6794
30
0.0
0
VERTEX
8
0
10
1.5642
20
-2.9294
30
0.0
0
VERTEX
8
0
10
1.8606
20
-3.1752
30
0.0
0
VERTEX
8
0
10
2.1825
20
-3.4167
30
0.0
0
VERTEX
8
0
10
2.5298
20
-3.6537
30
0.0
0
VERTEX
8
0
10
2.9023
20
-3.8860
30
0.0
0
VERTEX
8
0
10
3.3001
20
-4.1135
30
0.0
0
VERTEX
8
0
10
3.7229
20
-4.3361
30
0.0
0
VERTEX
8
0
10
4.1708
20
-4.5537
30
0.0
0
VERTEX
8
0
10
4.6435
20
-4.7662
30
0.0
0
VERTEX
8
0
10
5.1410
20
-4.9735
30
0.0
0
VERTEX
8
0
10
5.6631
20
-5.1756
30
0.0
0
VERTEX
8
0
10
6.2097
20
-5.3724
30
0.0
0
VERTEX
8
0
10
6.7807
20
-5.5639
30
0.0
0
VERTEX
8
0
10
7.3759
20
-5.7500
30
0.0
0
VERTEX
8
0
10
7.9953
20
-5.9308
30
0.0
0
VERTEX
8
0
10
8.6385
20
-6.1062
30
0.0
0
VERTEX
8
0
10
9.3055
20
-6.2762
30
0.0
0
VERTEX
8
0
10
9.9961
20
-6.4409
30
0.0
0
VERTEX
8
0
10
10.7101
20
-6.6002
30
0.0
0
VERTEX
8
0
10
11.4474
20
-6.7541
30
0.0
0
VERTEX
8
0
10
12.2077
20
-6.9028
30
0.0
0
VERTEX
8
0
10
12.9909
20
-7.0461
30
0.0
0
VERTEX
8
0
10
13.7969
20
-7.1841
30
0.0
0
VERTEX
8
0
10
14.6252
20
-7.3169
30
0.0
0
VERTEX
8
0
10
15.4759
20
-7.4445
30
0.0
0
VERTEX
8
0
10
16.3486
20
-7.5669
30
0.0
0
VERTEX
8
0
10
17.2432
20
-7.6841
30
0.0
0
VERTEX
8
0
10
18.1593
20
-7.7962
30
0.0
0
VERTEX
8
0
10
19.0969
20
-7.9031
30
0.0
0
VERTEX
8
0
10
20.0557
20
-8.0051
30
0.0
0
VERTEX
8
0
10
21.0353
20
-8.1019
30
0.0
0
VERTEX
8
0
10
22.0357
20
-8.1938
30
0.0
0
VERTEX
8
0
10
23.0564
20
-8.2807
30
0.0
0
VERTEX
8
0
10
24.0973
20
-8.3626
30
0.0
0
VERTEX
8
0
10
25.1582
20
-8.4397
30
0.0
0
VERTEX
8
0
10
26.2387
20
-8.5118
30
0.0
0
VERTEX
8
0
10
27.3386
20
-8.5791
30
0.0
0
VERTEX
8
0
10
28.4575
20
-8.6416
30
0.0
0
VERTEX
8
0
10
29.5954
20
-8.6994
30
0.0
0
VERTEX
8
0
10
30.7517
20
-8.7524
30
0.0
0
VERTEX
8
0
10
31.9263
20
-8.8007
30
0.0
0
VERTEX
8
0
10
33.1189
20
-8.8445
30
0.0
0
VERTEX
8
0
10
34.3291
20
-8.8836
30
0.0
0
VERTEX
8
0
10
35.5567
20
-8.9182
30
0.0
0
VERTEX
8
0
10
36.8014
20
-8.9483
30
0.0
0
VERTEX
8
0
10
38.0628
20
-8.9740
30
0.0
0
VERTEX
8
0
10
39.3406
20
-8.9953
30
0.0
0
VERTEX
8
0
10
40.6346
20
-9.0124
30
0.0
0
VERTEX
8
0
10
41.9443
20
-9.0253
30
0.0
0
VERTEX
8
0
10
43.2695
20
-9.0341
30
0.0
0
VERTEX
8
0
10
44.6098
20
-9.0388
30
0.0
0
VERTEX
8
0
10
45.9650
20
-9.0396
30
0.0
0
VERTEX
8
0
10
47.3346
20
-9.0365
30
0.0
0
VERTEX
8
0
10
48.7183
20
-9.0297
30
0.0
0
VERTEX
8
0
10
50.1158
20
-9.0192
30
0.0
0
VERTEX
8
0
10
51.5268
20
-9.0051
30
0.0
0
VERTEX
8
0
10
52.9508
20
-8.9876
30
0.0
0
VERTEX
8
0
10
54.3875
20
-8.9667
30
0.0
0
VERTEX
8
0
10
55.8366
20
-8.9426
30
0.0
0
VERTEX
8
0
10
57.2977
20
-8.9153
30
0.0
0
VERTEX
8
0
10
58.7705
20
-8.8850
30
0.0
0
VERTEX
8
0
10
60.2545
20
-8.8517
30
0.0
0
VERTEX
8
0
10
61.7494
20
-8.8156
30
0.0
0
VERTEX
8
0
10
63.2548
20
-8.7768
30
0.0
0
VERTEX
8
0
10
64.7704
20
-8.7354
30
0.0
0
VERTEX
8
0
10
66.2958
20
-8.6914
30
0.0
0
VERTEX
8
0
10
67.8306
20
-8.6450
30
0.0
0
VERTEX
8
0
10
69.3744
20
-8.5963
30
0.0
0
VERTEX
8
0
10
70.9268
20
-8.5452
30
0.0
0
VERTEX
8
0
10
72.4875
20
-8.4921
30
0.0
0
VERTEX
8
0
10
74.0560
20
-8.4368
30
0.0
0
VERTEX
8
0
10
75.6320
20
-8.3794
30
0.0
0
VERTEX
8
0
10
77.2150
20
-8.3202
30
0.0
0
VERTEX
8
0
10
78.8047
20
-8.2590
30
0.0
0
VERTEX
8
0
10
80.4007
20
-8.1960
30
0.0
0
VERTEX
8
0
10
82.0026
20
-8.1311
30
0.0
0
VERTEX
8
0
10
83.6100
20
-8.0646
30
0.0
0
VERTEX
8
0
10
85.2224
20
-7.9963
30
0.0
0
VERTEX
8
0
10
86.8395
20
-7.9264
30
0.0
0
VERTEX
8
0
10
88.4610
20
-7.8548
30
0.0
0
VERTEX
8
0
10
90.0862
20
-7.7817
30
0.0
0
VERTEX
8
0
10
91.7150
20
-7.7070
30
0.0
0
VERTEX
8
0
10
93.3468
20
-7.6308
30
0.0
0
VERTEX
8
0
10
94.9812
20
-7.5530
30
0.0
0
VERTEX
8
0
10
96.6179
20
-7.4738
30
0.0
0
VERTEX
8
0
10
98.2565
20
-7.3931
30
0.0
0
VERTEX
8
0
10
99.8965
20
-7.3110
30
0.0
0
VERTEX
8
0
10
101.5375
20
-7.2275
30
0.0
0
VERTEX
8
0
10
103.1791
20
-7.1426
30
0.0
0
VERTEX
8
0
10
104.8209
20
-7.0563
30
0.0
0
VERTEX
8
0
10
106.4625
20
-6.9688
30
0.0
0
VERTEX
8
0
10
108.1035
20
-6.8799
30
0.0
0
VERTEX
8
0
10
109.7435
20
-6.7899
30
0.0
0
VERTEX
8
0
10
111.3821
20
-6.6986
30
0.0
0
VERTEX
8
0
10
113.0188
20
-6.6062
30
0.0
0
VERTEX
8
0
10
114.6532
20
-6.5127
30
0.0
0
VERTEX
8
0
10
116.2850
20
-6.4182
30
0.0
0
VERTEX
8
0
10
117.9138
20
-6.3227
30
0.0
0
VERTEX
8
0
10
119.5390
20
-6.2262
30
0.0
0
VERTEX
8
0
10
121.1605
20
-6.1289
30
0.0
0
VERTEX
8
0
10
122.7776
20
-6.0309
30
0.0
0
VERTEX
8
0
10
124.3900
20
-5.9321
30
0.0
0
VERTEX
8
0
10
125.9974
20
-5.8327
30
0.0
0
VERTEX
8
0
10
127.5993
20
-5.7327
30
0.0
0
VERTEX
8
0
10
129.1953
20
-5.6323
30
0.0
0
VERTEX
8
0
10
130.7850
20
-5.5315
30
0.0
0
VERTEX
8
0
10
132.3680
20
-5.4304
30
0.0
0
VERTEX
8
0
10
133.9440
20
-5.3292
30
0.0
0
VERTEX
8
0
10
135.5125
20
-5.2278
30
0.0
0
VERTEX
8
0
10
137.0732
20
-5.1263
30
0.0
0
VERTEX
8
0
10
138.6256
20
-5.0250
30
0.0
0
VERTEX
8
0
10
140.1694
20
-4.9237
30
0.0
0
VERTEX
8
0
10
141.7042
20
-4.8227
30
0.0
0
VERTEX
8
0
10
143.2296
20
-4.7220
30
0.0
0
VERTEX
8
0
10
144.7452
20
-4.6217
30
0.0
0
VERTEX
8
0
10
146.2506
20
-4.5218
30
0.0
0
VERTEX
8
0
10
147.7455
20
-4.4224
30
0.0
0
VERTEX
8
0
10
149.2295
20
-4.3237
30
0.0
0
VERTEX
8
0
10
150.7023
20
-4.2255
30
0.0
0
VERTEX
8
0
10
152.1634
20
-4.1281
30
0.0
0
VERTEX
8
0
10
153.6125
20
-4.0314
30
0.0
0
VERTEX
8
0
10
155.0492
20
-3.9355
30
0.0
0
VERTEX
8
0
10
156.4732
20
-3.8404
30
0.0
0
VERTEX
8
0
10
157.8842
20
-3.7462
30
0.0
0
VERTEX
8
0
10
159.2817
20
-3.6528
30
0.0
0
VERTEX
8
0
10
160.6654
20
-3.5604
30
0.0
0
VERTEX
8
0
10
162.0350
20
-3.4689
30
0.0
0
VERTEX
8
0
10
163.3902
20
-3.3784
30
0.0
0
VERTEX
8
0
10
164.7305
20
-3.2888
30
0.0
0
VERTEX
8
0
10
166.0557
20
-3.2002
30
0.0
0
VERTEX
8
0
10
167.3654
20
-3.1126
30
0.0
0
VERTEX
8
0
10
168.6594
20
-3.0260
30
0.0
0
VERTEX
8
0
10
169.9372
20
-2.9403
30
0.0
0
VERTEX
8
0
10
171.1986
20
-2.8557
30
0.0
0
VERTEX
8
0
10
172.4433
20
-2.7720
30
0.0
0
VERTEX
8
0
10
173.6709
20
-2.6894
30
0.0
0
VERTEX
8
0
10
174.8811
20
-2.6077
30
0.0
0
VERTEX
8
0
10
176.0737
20
-2.5270
30
0.0
0
VERTEX
8
0
10
177.2483
20
-2.4473
30
0.0
0
VERTEX
8
0
10
178.4046
20
-2.3686
30
0.0
0
VERTEX
8
0
10
179.5425
20
-2.2909
30
0.0
0
VERTEX
8
0
10
180.6614
20
-2.2143
30
0.0
0
VERTEX
8
0
10
181.7613
20
-2.1387
30
0.0
0
VERTEX
8
0
10
182.8418
20
-2.0641
30
0.0
0
VERTEX
8
0
10
183.9027
20
-1.9906
30
0.0
0
VERTEX
8
0
10
184.9436
20
-1.9182
30
0.0
0
VERTEX
8
0
10
185.9643
20
-1.8469
30
0.0
0
VERTEX
8
0
10
186.9647
20
-1.7767
30
0.0
0
VERTEX
8
0
10
187.9443
20
-1.7077
30
0.0
0
VERTEX
8
0
10
188.9031
20
-1.6399
30
0.0
0
VERTEX
8
0
10
189.8407
20
-1.5734
30
0.0
0
VERTEX
8
0
10
190.7568
20
-1.5081
30
0.0
0
VERTEX
8
0
10
191.6514
20
-1.4441
30
0.0
0
VERTEX
8
0
10
192.5241
20
-1.3815
30
0.0
0
VERTEX
8
0
10
193.3748
20
-1.3202
30
0.0
0
VERTEX
8
0
10
194.2031
20
-1.2604
30
0.0
0
VERTEX
8
0
10
195.0091
20
-1.2021
30
0.0
0
VERTEX
8
0
10
195.7923
20
-1.1453
30
0.0
0
VERTEX
8
0
10
196.5526
20
-1.0901
30
0.0
0
VERTEX
8
0
10
197.2899
20
-1.0364
30
0.0
0
VERTEX
8
0
10
198.0039
20
-0.9844
30
0.0
0
VERTEX
8
0
10
198.6945
20
-0.9340
30
0.0
0
VERTEX
8
0
10
199.3615
20
-0.8854
30
0.0
0
VERTEX
8
0
10
200.0047
20
-0.8385
30
0.0
0
VERTEX
8
0
10
200.6241
20
-0.7934
30
0.0
0
VERTEX
8
0
10
201.2193
20
-0.7500
30
0.0
0
VERTEX
8
0
10
201.7903
20
-0.7085
30
0.0
0
VERTEX
8
0
10
202.3369
20
-0.6688
30
0.0
0
VERTEX
8
0
10
202.8590
20
-0.6310
30
0.0
0
VERTEX
8
0
10
203.3565
20
-0.5950
30
0.0
0
VERTEX
8
0
10
203.8292
20
-0.5609
30
0.0
0
VERTEX
8
0
10
204.2771
20
-0.5287
30
0.0
0
VERTEX
8
0
10
204.6999
20
-0.4983
30
0.0
0
VERTEX
8
0
10
205.0977
20
-0.4699
30
0.0
0
VERTEX
8
0
10
205.4702
20
-0.4433
30
0.0
0
VERTEX
8
0
10
205.8175
20
-0.4186
30
0.0
0
VERTEX
8
0
10
206.1394
20
-0.3958
30
0.0
0
VERTEX
8
0
10
206.4358
20
-0.3749
30
0.0
0
VERTEX
8
0
10
206.7067
20
-0.3558
30
0.0
0
VERTEX
8
0
10
206.9520
20
-0.3386
30
0.0
0
VERTEX
8
0
10
207.1717
20
-0.3232
30
0.0
0
VERTEX
8
0
10
207.3656
20
-0.3096
30
0.0
0
VERTEX
8
0
10
207.5338
20
-0.2979
30
0.0
0
VERTEX
8
0
10
207.6762
20
-0.2880
30
0.0
0
VERTEX
8
0
10
207.7927
20
-0.2800
30
0.0
0
VERTEX
8
0
10
207.8834
20
-0.2737
30
0.0
0
VERTEX
8
0
10
207.9482
20
-0.2692
30
0.0
0
VERTEX
8
0
10
207.9870
20
-0.2665
30
0.0
0
VERTEX
8
0
10
208.0000
20
-0.2656
30
0.0
0
SEQEND
0
CIRCLE
8
0
10
62.4000
20
3.6912
40
5.0000
0
TEXT
8
0
10
60.0000
20
-14.0000
40
4.0000
1
RIB 1/8  STA 0 MM  (CUT 2X)
0
POLYLINE
8
0
66
1
70
1
0
VERTEX
8
0
10
468.0000
20
0.2656
30
0.0
0
VERTEX
8
0
10
467.9870
20
0.2683
30
0.0
0
VERTEX
8
0
10
467.9482
20
0.2763
30
0.0
0
VERTEX
8
0
10
467.8834
20
0.2898
30
0.0
0
VERTEX
8
0
10
467.7927
20
0.3085
30
0.0
0
VERTEX
8
0
10
467.6762
20
0.3326
30
0.0
0
VERTEX
8
0
10
467.5338
20
0.3621
30
0.0
0
VERTEX
8
0
10
467.3656
20
0.3968
30
0.0
0
VERTEX
8
0
10
467.1717
20
0.4368
30
0.0
0
VERTEX
8
0
10
466.9520
20
0.4820
30
0.0
0
VERTEX
8
0
10
466.7067
20
0.5324
30
0.0
0
VERTEX
8
0
10
466.4358
20
0.5880
30
0.0
0
VERTEX
8
0
10
466.1394
20
0.6487
30
0.0
0
VERTEX
8
0
10
465.8175
20
0.7144
30
0.0
0
VERTEX
8
0
10
465.4702
20
0.7852
30
0.0
0
VERTEX
8
0
10
465.0977
20
0.8609
30
0.0
0
VERTEX
8
0
10
464.6999
20
0.9416
30
0.0
0
VERTEX
8
0
10
464.2771
20
1.0270
30
0.0
0
VERTEX
8
0
10
463.8292
20
1.1173
30
0.0
0
VERTEX
8
0
10
463.3565
20
1.2122
30
0.0
0
VERTEX
8
0
10
462.8590
20
1.3118
30
0.0
0
VERTEX
8
0
10
462.3369
20
1.4160
30
0.0
0
VERTEX
8
0
10
461.7903
20
1.5246
30
0.0
0
VERTEX
8
0
10
461.2193
20
1.6376
30
0.0
0
VERTEX
8
0
10
460.6241
20
1.7550
30
0.0
0
VERTEX
8
0
10
460.0047
20
1.8765
30
0.0
0
VERTEX
8
0
10
459.3615
20
2.0023
30
0.0
0
VERTEX
8
0
10
458.6945
20
2.1320
30
0.0
0
VERTEX
8
0
10
458.0039
20
2.2658
30
0.0
0
VERTEX
8
0
10
457.2899
20
2.4034
30
0.0
0
VERTEX
8
0
10
456.5526
20
2.5447
30
0.0
0
VERTEX
8
0
10
455.7923
20
2.6898
30
0.0
0
VERTEX
8
0
10
455.0091
20
2.8384
30
0.0
0
VERTEX
8
0
10
454.2031
20
2.9904
30
0.0
0
VERTEX
8
0
10
453.3748
20
3.1459
30
0.0
0
VERTEX
8
0
10
452.5241
20
3.3045
30
0.0
0
VERTEX
8
0
10
451.6514
20
3.4664
30
0.0
0
VERTEX
8
0
10
450.7568
20
3.6313
30
0.0
0
VERTEX
8
0
10
449.8407
20
3.7991
30
0.0
0
VERTEX
8
0
10
448.9031
20
3.9697
30
0.0
0
VERTEX
8
0
10
447.9443
20
4.1430
30
0.0
0
VERTEX
8
0
10
446.9647
20
4.3189
30
0.0
0
VERTEX
8
0
10
445.9643
20
4.4973
30
0.0
0
VERTEX
8
0
10
444.9436
20
4.6781
30
0.0
0
VERTEX
8
0
10
443.9027
20
4.8611
30
0.0
0
VERTEX
8
0
10
442.8418
20
5.0463
30
0.0
0
VERTEX
8
0
10
441.7613
20
5.2334
30
0.0
0
VERTEX
8
0
10
440.6614
20
5.4224
30
0.0
0
VERTEX
8
0
10
439.5425
20
5.6132
30
0.0
0
VERTEX
8
0
10
438.4046
20
5.8057
30
0.0
0
VERTEX
8
0
10
437.2483
20
5.9996
30
0.0
0
VERTEX
8
0
10
436.0737
20
6.1950
30
0.0
0
VERTEX
8
0
10
434.8811
20
6.3916
30
0.0
0
VERTEX
8
0
10
433.6709
20
6.5894
30
0.0
0
VERTEX
8
0
10
432.4433
20
6.7883
30
0.0
0
VERTEX
8
0
10
431.1986
20
6.9880
30
0.0
0
VERTEX
8
0
10
429.9372
20
7.1885
30
0.0
0
VERTEX
8
0
10
428.6594
20
7.3897
30
0.0
0
VERTEX
8
0
10
427.3654
20
7.5913
30
0.0
0
VERTEX
8
0
10
426.0557
20
7.7934
30
0.0
0
VERTEX
8
0
10
424.7305
20
7.9958
30
0.0
0
VERTEX
8
0
10
423.3902
20
8.1983
30
0.0
0
VERTEX
8
0
10
422.0350
20
8.4009
30
0.0
0
VERTEX
8
0
10
420.6654
20
8.6034
30
0.0
0
VERTEX
8
0
10
419.2817
20
8.8056
30
0.0
0
VERTEX
8
0
10
417.8842
20
9.0075
30
0.0
0
VERTEX
8
0
10
416.4732
20
9.2090
30
0.0
0
VERTEX
8
0
10
415.0492
20
9.4098
30
0.0
0
VERTEX
8
0
10
413.6125
20
9.6100
30
0.0
0
VERTEX
8
0
10
412.1634
20
9.8093
30
0.0
0
VERTEX
8
0
10
410.7023
20
10.0078
30
0.0
0
VERTEX
8
0
10
409.2295
20
10.2051
30
0.0
0
VERTEX
8
0
10
407.7455
20
10.4013
30
0.0
0
VERTEX
8
0
10
406.2506
20
10.5962
30
0.0
0
VERTEX
8
0
10
404.7452
20
10.7897
30
0.0
0
VERTEX
8
0
10
403.2296
20
10.9817
30
0.0
0
VERTEX
8
0
10
401.7042
20
11.1721
30
0.0
0
VERTEX
8
0
10
400.1694
20
11.3608
30
0.0
0
VERTEX
8
0
10
398.6256
20
11.5476
30
0.0
0
VERTEX
8
0
10
397.0732
20
11.7326
30
0.0
0
VERTEX
8
0
10
395.5125
20
11.9154
30
0.0
0
VERTEX
8
0
10
393.9440
20
12.0961
30
0.0
0
VERTEX
8
0
10
392.3680
20
12.2746
30
0.0
0
VERTEX
8
0
10
390.7850
20
12.4507
30
0.0
0
VERTEX
8
0
10
389.1953
20
12.6243
30
0.0
0
VERTEX
8
0
10
387.5993
20
12.7954
30
0.0
0
VERTEX
8
0
10
385.9974
20
12.9638
30
0.0
0
VERTEX
8
0
10
384.3900
20
13.1294
30
0.0
0
VERTEX
8
0
10
382.7776
20
13.2922
30
0.0
0
VERTEX
8
0
10
381.1605
20
13.4519
30
0.0
0
VERTEX
8
0
10
379.5390
20
13.6086
30
0.0
0
VERTEX
8
0
10
377.9138
20
13.7621
30
0.0
0
VERTEX
8
0
10
376.2850
20
13.9123
30
0.0
0
VERTEX
8
0
10
374.6532
20
14.0590
30
0.0
0
VERTEX
8
0
10
373.0188
20
14.2023
30
0.0
0
VERTEX
8
0
10
371.3821
20
14.3418
30
0.0
0
VERTEX
8
0
10
369.7435
20
14.4776
30
0.0
0
VERTEX
8
0
10
368.1035
20
14.6096
30
0.0
0
VERTEX
8
0
10
366.4625
20
14.7375
30
0.0
0
VERTEX
8
0
10
364.8209
20
14.8613
30
0.0
0
VERTEX
8
0
10
363.1791
20
14.9808
30
0.0
0
VERTEX
8
0
10
361.5375
20
15.0959
30
0.0
0
VERTEX
8
0
10
359.8965
20
15.2066
30
0.0
0
VERTEX
8
0
10
358.2565
20
15.3126
30
0.0
0
VERTEX
8
0
10
356.6179
20
15.4138
30
0.0
0
VERTEX
8
0
10
354.9812
20
15.5101
30
0.0
0
VERTEX
8
0
10
353.3468
20
15.6013
30
0.0
0
VERTEX
8
0
10
351.7150
20
15.6874
30
0.0
0
VERTEX
8
0
10
350.0862
20
15.7681
30
0.0
0
VERTEX
8
0
10
348.4610
20
15.8433
30
0.0
0
VERTEX
8
0
10
346.8395
20
15.9130
30
0.0
0
VERTEX
8
0
10
345.2224
20
15.9769
30
0.0
0
VERTEX
8
0
10
343.6100
20
16.0350
30
0.0
0
VERTEX
8
0
10
342.0026
20
16.0870
30
0.0
0
VERTEX
8
0
10
340.4007
20
16.1329
30
0.0
0
VERTEX
8
0
10
338.8047
20
16.1726
30
0.0
0
VERTEX
8
0
10
337.2150
20
16.2059
30
0.0
0
VERTEX
8
0
10
335.6320
20
16.2327
30
0.0
0
VERTEX
8
0
10
334.0560
20
16.2529
30
0.0
0
VERTEX
8
0
10
332.4875
20
16.2663
30
0.0
0
VERTEX
8
0
10
330.9268
20
16.2730
30
0.0
0
VERTEX
8
0
10
329.3744
20
16.2728
30
0.0
0
VERTEX
8
0
10
327.8306
20
16.2656
30
0.0
0
VERTEX
8
0
10
326.2958
20
16.2514
30
0.0
0
VERTEX
8
0
10
324.7704
20
16.2300
30
0.0
0
VERTEX
8
0
10
323.2548
20
16.2015
30
0.0
0
VERTEX
8
0
10
321.7494
20
16.1658
30
0.0
0
VERTEX
8
0
10
320.2545
20
16.1228
30
0.0
0
VERTEX
8
0
10
318.7705
20
16.0726
30
0.0
0
VERTEX
8
0
10
317.2977
20
16.0151
30
0.0
0
VERTEX
8
0
10
315.8366
20
15.9504
30
0.0
0
VERTEX
8
0
10
314.3875
20
15.8784
30
0.0
0
VERTEX
8
0
10
312.9508
20
15.7991
30
0.0
0
VERTEX
8
0
10
311.5268
20
15.7127
30
0.0
0
VERTEX
8
0
10
310.1158
20
15.6191
30
0.0
0
VERTEX
8
0
10
308.7183
20
15.5184
30
0.0
0
VERTEX
8
0
10
307.3346
20
15.4107
30
0.0
0
VERTEX
8
0
10
305.9650
20
15.2960
30
0.0
0
VERTEX
8
0
10
304.6098
20
15.1745
30
0.0
0
VERTEX
8
0
10
303.2695
20
15.0462
30
0.0
0
VERTEX
8
0
10
301.9443
20
14.9112
30
0.0
0
VERTEX
8
0
10
300.6346
20
14.7697
30
0.0
0
VERTEX
8
0
10
299.3406
20
14.6217
30
0.0
0
VERTEX
8
0
10
298.0628
20
14.4674
30
0.0
0
VERTEX
8
0
10
296.8014
20
14.3070
30
0.0
0
VERTEX
8
0
10
295.5567
20
14.1405
30
0.0
0
VERTEX
8
0
10
294.3291
20
13.9681
30
0.0
0
VERTEX
8
0
10
293.1189
20
13.7899
30
0.0
0
VERTEX
8
0
10
291.9263
20
13.6062
30
0.0
0
VERTEX
8
0
10
290.7517
20
13.4170
30
0.0
0
VERTEX
8
0
10
289.5954
20
13.2224
30
0.0
0
VERTEX
8
0
10
288.4575
20
13.0228
30
0.0
0
VERTEX
8
0
10
287.3386
20
12.8181
30
0.0
0
VERTEX
8
0
10
286.2387
20
12.6085
30
0.0
0
VERTEX
8
0
10
285.1582
20
12.3943
30
0.0
0
VERTEX
8
0
10
284.0973
20
12.1754
30
0.0
0
VERTEX
8
0
10
283.0564
20
11.9522
30
0.0
0
VERTEX
8
0
10
282.0357
20
11.7247
30
0.0
0
VERTEX
8
0
10
281.0353
20
11.4931
30
0.0
0
VERTEX
8
0
10
280.0557
20
11.2575
30
0.0
0
VERTEX
8
0
10
279.0969
20
11.0180
30
0.0
0
VERTEX
8
0
10
278.1593
20
10.7749
30
0.0
0
VERTEX
8
0
10
277.2432
20
10.5281
30
0.0
0
VERTEX
8
0
10
276.3486
20
10.2778
30
0.0
0
VERTEX
8
0
10
275.4759
20
10.0243
30
0.0
0
VERTEX
8
0
10
274.6252
20
9.7675
30
0.0
0
VERTEX
8
0
10
273.7969
20
9.5076
30
0.0
0
VERTEX
8
0
10
272.9909
20
9.2447
30
0.0
0
VERTEX
8
0
10
272.2077
20
8.9790
30
0.0
0
VERTEX
8
0
10
271.4474
20
8.7105
30
0.0
0
VERTEX
8
0
10
270.7101
20
8.4394
30
0.0
0
VERTEX
8
0
10
269.9961
20
8.1658
30
0.0
0
VERTEX
8
0
10
269.3055
20
7.8898
30
0.0
0
VERTEX
8
0
10
268.6385
20
7.6115
30
0.0
0
VERTEX
8
0
10
267.9953
20
7.3310
30
0.0
0
VERTEX
8
0
10
267.3759
20
7.0485
30
0.0
0
VERTEX
8
0
10
266.7807
20
6.7641
30
0.0
0
VERTEX
8
0
10
266.2097
20
6.4778
30
0.0
0
VERTEX
8
0
10
265.6631
20
6.1899
30
0.0
0
VERTEX
8
0
10
265.1410
20
5.9005
30
0.0
0
VERTEX
8
0
10
264.6435
20
5.6096
30
0.0
0
VERTEX
8
0
10
264.1708
20
5.3174
30
0.0
0
VERTEX
8
0
10
263.7229
20
5.0241
30
0.0
0
VERTEX
8
0
10
263.3001
20
4.7297
30
0.0
0
VERTEX
8
0
10
262.9023
20
4.4345
30
0.0
0
VERTEX
8
0
10
262.5298
20
4.1386
30
0.0
0
VERTEX
8
0
10
262.1825
20
3.8421
30
0.0
0
VERTEX
8
0
10
261.8606
20
3.5451
30
0.0
0
VERTEX
8
0
10
261.5642
20
3.2479
30
0.0
0
VERTEX
8
0
10
261.2933
20
2.9505
30
0.0
0
VERTEX
8
0
10
261.0480
20
2.6531
30
0.0
0
VERTEX
8
0
10
260.8283
20
2.3558
30
0.0
0
VERTEX
8
0
10
260.6344
20
2.0589
30
0.0
0
VERTEX
8
0
10
260.4662
20
1.7624
30
0.0
0
VERTEX
8
0
10
260.3238
20
1.4665
30
0.0
0
VERTEX
8
0
10
260.2073
20
1.1712
30
0.0
0
VERTEX
8
0
10
260.1166
20
0.8769
30
0.0
0
VERTEX
8
0
10
260.0518
20
0.5835
30
0.0
0
VERTEX
8
0
10
260.0130
20
0.2911
30
0.0
0
VERTEX
8
0
10
260.0000
20
0.0000
30
0.0
0
VERTEX
8
0
10
260.0130
20
-0.2786
30
0.0
0
VERTEX
8
0
10
260.0518
20
-0.5556
30
0.0
0
VERTEX
8
0
10
260.1166
20
-0.8307
30
0.0
0
VERTEX
8
0
10
260.2073
20
-1.1036
30
0.0
0
VERTEX
8
0
10
260.3238
20
-1.3740
30
0.0
0
VERTEX
8
0
10
260.4662
20
-1.6417
30
0.0
0
VERTEX
8
0
10
260.6344
20
-1.9063
30
0.0
0
VERTEX
8
0
10
260.8283
20
-2.1676
30
0.0
0
VERTEX
8
0
10
261.0480
20
-2.4254
30
0.0
0
VERTEX
8
0
10
261.2933
20
-2.6794
30
0.0
0
VERTEX
8
0
10
261.5642
20
-2.9294
30
0.0
0
VERTEX
8
0
10
261.8606
20
-3.1752
30
0.0
0
VERTEX
8
0
10
262.1825
20
-3.4167
30
0.0
0
VERTEX
8
0
10
262.5298
20
-3.6537
30
0.0
0
VERTEX
8
0
10
262.9023
20
-3.8860
30
0.0
0
VERTEX
8
0
10
263.3001
20
-4.1135
30
0.0
0
VERTEX
8
0
10
263.7229
20
-4.3361
30
0.0
0
VERTEX
8
0
10
264.1708
20
-4.5537
30
0.0
0
VERTEX
8
0
10
264.6435
20
-4.7662
30
0.0
0
VERTEX
8
0
10
265.1410
20
-4.9735
30
0.0
0
VERTEX
8
0
10
265.6631
20
-5.1756
30
0.0
0
VERTEX
8
0
10
266.2097
20
-5.3724
30
0.0
0
VERTEX
8
0
10
266.7807
20
-5.5639
30
0.0
0
VERTEX
8
0
10
267.3759
20
-5.7500
30
0.0
0
VERTEX
8
0
10
267.9953
20
-5.9308
30
0.0
0
VERTEX
8
0
10
268.6385
20
-6.1062
30
0.0
0
VERTEX
8
0
10
269.3055
20
-6.2762
30
0.0
0
VERTEX
8
0
10
269.9961
20
-6.4409
30
0.0
0
VERTEX
8
0
10
270.7101
20
-6.6002
30
0.0
0
VERTEX
8
0
10
271.4474
20
-6.7541
30
0.0
0
VERTEX
8
0
10
272.2077
20
-6.9028
30
0.0
0
VERTEX
8
0
10
272.9909
20
-7.0461
30
0.0
0
VERTEX
8
0
10
273.7969
20
-7.1841
30
0.0
0
VERTEX
8
0
10
274.6252
20
-7.3169
30
0.0
0
VERTEX
8
0
10
275.4759
20
-7.4445
30
0.0
0
VERTEX
8
0
10
276.3486
20
-7.5669
30
0.0
0
VERTEX
8
0
10
277.2432
20
-7.6841
30
0.0
0
VERTEX
8
0
10
278.1593
20
-7.7962
30
0.0
0
VERTEX
8
0
10
279.0969
20
-7.9031
30
0.0
0
VERTEX
8
0
10
280.0557
20
-8.0051
30
0.0
0
VERTEX
8
0
10
281.0353
20
-8.1019
30
0.0
0
VERTEX
8
0
10
282.0357
20
-8.1938
30
0.0
0
VERTEX
8
0
10
283.0564
20
-8.2807
30
0.0
0
VERTEX
8
0
10
284.0973
20
-8.3626
30
0.0
0
VERTEX
8
0
10
285.1582
20
-8.4397
30
0.0
0
VERTEX
8
0
10
286.2387
20
-8.5118
30
0.0
0
VERTEX
8
0
10
287.3386
20
-8.5791
30
0.0
0
VERTEX
8
0
10
288.4575
20
-8.6416
30
0.0
0
VERTEX
8
0
10
289.5954
20
-8.6994
30
0.0
0
VERTEX
8
0
10
290.7517
20
-8.7524
30
0.0
0
VERTEX
8
0
10
291.9263
20
-8.8007
30
0.0
0
VERTEX
8
0
10
293.1189
20
-8.8445
30
0.0
0
VERTEX
8
0
10
294.3291
20
-8.8836
30
0.0
0
VERTEX
8
0
10
295.5567
20
-8.9182
30
0.0
0
VERTEX
8
0
10
296.8014
20
-8.9483
30
0.0
0
VERTEX
8
0
10
298.0628
20
-8.9740
30
0.0
0
VERTEX
8
0
10
299.3406
20
-8.9953
30
0.0
0
VERTEX
8
0
10
300.6346
20
-9.0124
30
0.0
0
VERTEX
8
0
10
301.9443
20
-9.0253
30
0.0
0
VERTEX
8
0
10
303.2695
20
-9.0341
30
0.0
0
VERTEX
8
0
10
304.6098
20
-9.0388
30
0.0
0
VERTEX
8
0
10
305.9650
20
-9.0396
30
0.0
0
VERTEX
8
0
10
307.3346
20
-9.0365
30
0.0
0
VERTEX
8
0
10
308.7183
20
-9.0297
30
0.0
0
VERTEX
8
0
10
310.1158
20
-9.0192
30
0.0
0
VERTEX
8
0
10
311.5268
20
-9.0051
30
0.0
0
VERTEX
8
0
10
312.9508
20
-8.9876
30
0.0
0
VERTEX
8
0
10
314.3875
20
-8.9667
30
0.0
0
VERTEX
8
0
10
315.8366
20
-8.9426
30
0.0
0
VERTEX
8
0
10
317.2977
20
-8.9153
30
0.0
0
VERTEX
8
0
10
318.7705
20
-8.8850
30
0.0
0
VERTEX
8
0
10
320.2545
20
-8.8517
30
0.0
0
VERTEX
8
0
10
321.7494
20
-8.8156
30
0.0
0
VERTEX
8
0
10
323.2548
20
-8.7768
30
0.0
0
VERTEX
8
0
10
324.7704
20
-8.7354
30
0.0
0
VERTEX
8
0
10
326.2958
20
-8.6914
30
0.0
0
VERTEX
8
0
10
327.8306
20
-8.6450
30
0.0
0
VERTEX
8
0
10
329.3744
20
-8.5963
30
0.0
0
VERTEX
8
0
10
330.9268
20
-8.5452
30
0.0
0
VERTEX
8
0
10
332.4875
20
-8.4921
30
0.0
0
VERTEX
8
0
10
334.0560
20
-8.4368
30
0.0
0
VERTEX
8
0
10
335.6320
20
-8.3794
30
0.0
0
VERTEX
8
0
10
337.2150
20
-8.3202
30
0.0
0
VERTEX
8
0
10
338.8047
20
-8.2590
30
0.0
0
VERTEX
8
0
10
340.4007
20
-8.1960
30
0.0
0
VERTEX
8
0
10
342.0026
20
-8.1311
30
0.0
0
VERTEX
8
0
10
343.6100
20
-8.0646
30
0.0
0
VERTEX
8
0
10
345.2224
20
-7.9963
30
0.0
0
VERTEX
8
0
10
346.8395
20
-7.9264
30
0.0
0
VERTEX
8
0
10
348.4610
20
-7.8548
30
0.0
0
VERTEX
8
0
10
350.0862
20
-7.7817
30
0.0
0
VERTEX
8
0
10
351.7150
20
-7.7070
30
0.0
0
VERTEX
8
0
10
353.3468
20
-7.6308
30
0.0
0
VERTEX
8
0
10
354.9812
20
-7.5530
30
0.0
0
VERTEX
8
0
10
356.6179
20
-7.4738
30
0.0
0
VERTEX
8
0
10
358.2565
20
-7.3931
30
0.0
0
VERTEX
8
0
10
359.8965
20
-7.3110
30
0.0
0
VERTEX
8
0
10
361.5375
20
-7.2275
30
0.0
0
VERTEX
8
0
10
363.1791
20
-7.1426
30
0.0
0
VERTEX
8
0
10
364.8209
20
-7.0563
30
0.0
0
VERTEX
8
0
10
366.4625
20
-6.9688
30
0.0
0
VERTEX
8
0
10
368.1035
20
-6.8799
30
0.0
0
VERTEX
8
0
10
369.7435
20
-6.7899
30
0.0
0
VERTEX
8
0
10
371.3821
20
-6.6986
30
0.0
0
VERTEX
8
0
10
373.0188
20
-6.6062
30
0.0
0
VERTEX
8
0
10
374.6532
20
-6.5127
30
0.0
0
VERTEX
8
0
10
376.2850
20
-6.4182
30
0.0
0
VERTEX
8
0
10
377.9138
20
-6.3227
30
0.0
0
VERTEX
8
0
10
379.5390
20
-6.2262
30
0.0
0
VERTEX
8
0
10
381.1605
20
-6.1289
30
0.0
0
VERTEX
8
0
10
382.7776
20
-6.0309
30
0.0
0
VERTEX
8
0
10
384.3900
20
-5.9321
30
0.0
0
VERTEX
8
0
10
385.9974
20
-5.8327
30
0.0
0
VERTEX
8
0
10
387.5993
20
-5.7327
30
0.0
0
VERTEX
8
0
10
389.1953
20
-5.6323
30
0.0
0
VERTEX
8
0
10
390.7850
20
-5.5315
30
0.0
0
VERTEX
8
0
10
392.3680
20
-5.4304
30
0.0
0
VERTEX
8
0
10
393.9440
20
-5.3292
30
0.0
0
VERTEX
8
0
10
395.5125
20
-5.2278
30
0.0
0
VERTEX
8
0
10
397.0732
20
-5.1263
30
0.0
0
VERTEX
8
0
10
398.6256
20
-5.0250
30
0.0
0
VERTEX
8
0
10
400.1694
20
-4.9237
30
0.0
0
VERTEX
8
0
10
401.7042
20
-4.8227
30
0.0
0
VERTEX
8
0
10
403.2296
20
-4.7220
30
0.0
0
VERTEX
8
0
10
404.7452
20
-4.6217
30
0.0
0
VERTEX
8
0
10
406.2506
20
-4.5218
30
0.0
0
VERTEX
8
0
10
407.7455
20
-4.4224
30
0.0
0
VERTEX
8
0
10
409.2295
20
-4.3237
30
0.0
0
VERTEX
8
0
10
410.7023
20
-4.2255
30
0.0
0
VERTEX
8
0
10
412.1634
20
-4.1281
30
0.0
0
VERTEX
8
0
10
413.6125
20
-4.0314
30
0.0
0
VERTEX
8
0
10
415.0492
20
-3.9355
30
0.0
0
VERTEX
8
0
10
416.4732
20
-3.8404
30
0.0
0
VERTEX
8
0
10
417.8842
20
-3.7462
30
0.0
0
VERTEX
8
0
10
419.2817
20
-3.6528
30
0.0
0
VERTEX
8
0
10
420.6654
20
-3.5604
30
0.0
0
VERTEX
8
0
10
422.0350
20
-3.4689
30
0.0
0
VERTEX
8
0
10
423.3902
20
-3.3784
30
0.0
0
VERTEX
8
0
10
424.7305
20
-3.2888
30
0.0
0
VERTEX
8
0
10
426.0557
20
-3.2002
30
0.0
0
VERTEX
8
0
10
427.3654
20
-3.1126
30
0.0
0
VERTEX
8
0
10
428.6594
20
-3.0260
30
0.0
0
VERTEX
8
0
10
429.9372
20
-2.9403
30
0.0
0
VERTEX
8
0
10
431.1986
20
-2.8557
30
0.0
0
VERTEX
8
0
10
432.4433
20
-2.7720
30
0.0
0
VERTEX
8
0
10
433.6709
20
-2.6894
30
0.0
0
VERTEX
8
0
10
434.8811
20
-2.6077
30
0.0
0
VERTEX
8
0
10
436.0737
20
-2.5270
30
0.0
0
VERTEX
8
0
10
437.2483
20
-2.4473
30
0.0
0
VERTEX
8
0
10
438.4046
20
-2.3686
30
0.0
0
VERTEX
8
0
10
439.5425
20
-2.2909
30
0.0
0
VERTEX
8
0
10
440.6614
20
-2.2143
30
0.0
0
VERTEX
8
0
10
441.7613
20
-2.1387
30
0.0
0
VERTEX
8
0
10
442.8418
20
-2.0641
30
0.0
0
VERTEX
8
0
10
443.9027
20
-1.9906
30
0.0
0
VERTEX
8
0
10
444.9436
20
-1.9182
30
0.0
0
VERTEX
8
0
10
445.9643
20
-1.8469
30
0.0
0
VERTEX
8
0
10
446.9647
20
-1.7767
30
0.0
0
VERTEX
8
0
10
447.9443
20
-1.7077
30
0.0
0
VERTEX
8
0
10
448.9031
20
-1.6399
30
0.0
0
VERTEX
8
0
10
449.8407
20
-1.5734
30
0.0
0
VERTEX
8
0
10
450.7568
20
-1.5081
30
0.0
0
VERTEX
8
0
10
451.6514
20
-1.4441
30
0.0
0
VERTEX
8
0
10
452.5241
20
-1.3815
30
0.0
0
VERTEX
8
0
10
453.3748
20
-1.3202
30
0.0
0
VERTEX
8
0
10
454.2031
20
-1.2604
30
0.0
0
VERTEX
8
0
10
455.0091
20
-1.2021
30
0.0
0
VERTEX
8
0
10
455.7923
20
-1.1453
30
0.0
0
VERTEX
8
0
10
456.5526
20
-1.0901
30
0.0
0
VERTEX
8
0
10
457.2899
20
-1.0364
30
0.0
0
VERTEX
8
0
10
458.0039
20
-0.9844
30
0.0
0
VERTEX
8
0
10
458.6945
20
-0.9340
30
0.0
0
VERTEX
8
0
10
459.3615
20
-0.8854
30
0.0
0
VERTEX
8
0
10
460.0047
20
-0.8385
30
0.0
0
VERTEX
8
0
10
460.6241
20
-0.7934
30
0.0
0
VERTEX
8
0
10
461.2193
20
-0.7500
30
0.0
0
VERTEX
8
0
10
461.7903
20
-0.7085
30
0.0
0
VERTEX
8
0
10
462.3369
20
-0.6688
30
0.0
0
VERTEX
8
0
10
462.8590
20
-0.6310
30
0.0
0
VERTEX
8
0
10
463.3565
20
-0.5950
30
0.0
0
VERTEX
8
0
10
463.8292
20
-0.5609
30
0.0
0
VERTEX
8
0
10
464.2771
20
-0.5287
30
0.0
0
VERTEX
8
0
10
464.6999
20
-0.4983
30
0.0
0
VERTEX
8
0
10
465.0977
20
-0.4699
30
0.0
0
VERTEX
8
0
10
465.4702
20
-0.4433
30
0.0
0
VERTEX
8
0
10
465.8175
20
-0.4186
30
0.0
0
VERTEX
8
0
10
466.1394
20
-0.3958
30
0.0
0
VERTEX
8
0
10
466.4358
20
-0.3749
30
0.0
0
VERTEX
8
0
10
466.7067
20
-0.3558
30
0.0
0
VERTEX
8
0
10
466.9520
20
-0.3386
30
0.0
0
VERTEX
8
0
10
467.1717
20
-0.3232
30
0.0
0
VERTEX
8
0
10
467.3656
20
-0.3096
30
0.0
0
VERTEX
8
0
10
467.5338
20
-0.2979
30
0.0
0
VERTEX
8
0
10
467.6762
20
-0.2880
30
0.0
0
VERTEX
8
0
10
467.7927
20
-0.2800
30
0.0
0
VERTEX
8
0
10
467.8834
20
-0.2737
30
0.0
0
VERTEX
8
0
10
467.9482
20
-0.2692
30
0.0
0
VERTEX
8
0
10
467.9870
20
-0.2665
30
0.0
0
VERTEX
8
0
10
468.0000
20
-0.2656
30
0.0
0
SEQEND
0
CIRCLE
8
0
10
322.4000
20
3.6912
40
5.0000
0
TEXT
8
0
10
320.0000
20
-14.0000
40
4.0000
1
RIB 2/8  STA 179 MM  (CUT 2X)
0
POLYLINE
8
0
66
1
70
1
0
VERTEX
8
0
10
728.0000
20
0.2656
30
0.0
0
VERTEX
8
0
10
727.9870
20
0.2683
30
0.0
0
VERTEX
8
0
10
727.9482
20
0.2763
30
0.0
0
VERTEX
8
0
10
727.8834
20
0.2898
30
0.0
0
VERTEX
8
0
10
727.7927
20
0.3085
30
0.0
0
VERTEX
8
0
10
727.6762
20
0.3326
30
0.0
0
VERTEX
8
0
10
727.5338
20
0.3621
30
0.0
0
VERTEX
8
0
10
727.3656
20
0.3968
30
0.0
0
VERTEX
8
0
10
727.1717
20
0.4368
30
0.0
0
VERTEX
8
0
10
726.9520
20
0.4820
30
0.0
0
VERTEX
8
0
10
726.7067
20
0.5324
30
0.0
0
VERTEX
8
0
10
726.4358
20
0.5880
30
0.0
0
VERTEX
8
0
10
726.1394
20
0.6487
30
0.0
0
VERTEX
8
0
10
725.8175
20
0.7144
30
0.0
0
VERTEX
8
0
10
725.4702
20
0.7852
30
0.0
0
VERTEX
8
0
10
725.0977
20
0.8609
30
0.0
0
VERTEX
8
0
10
724.6999
20
0.9416
30
0.0
0
VERTEX
8
0
10
724.2771
20
1.0270
30
0.0
0
VERTEX
8
0
10
723.8292
20
1.1173
30
0.0
0
VERTEX
8
0
10
723.3565
20
1.2122
30
0.0
0
VERTEX
8
0
10
722.8590
20
1.3118
30
0.0
0
VERTEX
8
0
10
722.3369
20
1.4160
30
0.0
0
VERTEX
8
0
10
721.7903
20
1.5246
30
0.0
0
VERTEX
8
0
10
721.2193
20
1.6376
30
0.0
0
VERTEX
8
0
10
720.6241
20
1.7550
30
0.0
0
VERTEX
8
0
10
720.0047
20
1.8765
30
0.0
0
VERTEX
8
0
10
719.3615
20
2.0023
30
0.0
0
VERTEX
8
0
10
718.6945
20
2.1320
30
0.0
0
VERTEX
8
0
10
718.0039
20
2.2658
30
0.0
0
VERTEX
8
0
10
717.2899
20
2.4034
30
0.0
0
VERTEX
8
0
10
716.5526
20
2.5447
30
0.0
0
VERTEX
8
0
10
715.7923
20
2.6898
30
0.0
0
VERTEX
8
0
10
715.0091
20
2.8384
30
0.0
0
VERTEX
8
0
10
714.2031
20
2.9904
30
0.0
0
VERTEX
8
0
10
713.3748
20
3.1459
30
0.0
0
VERTEX
8
0
10
712.5241
20
3.3045
30
0.0
0
VERTEX
8
0
10
711.6514
20
3.4664
30
0.0
0
VERTEX
8
0
10
710.7568
20
3.6313
30
0.0
0
VERTEX
8
0
10
709.8407
20
3.7991
30
0.0
0
VERTEX
8
0
10
708.9031
20
3.9697
30
0.0
0
VERTEX
8
0
10
707.9443
20
4.1430
30
0.0
0
VERTEX
8
0
10
706.9647
20
4.3189
30
0.0
0
VERTEX
8
0
10
705.9643
20
4.4973
30
0.0
0
VERTEX
8
0
10
704.9436
20
4.6781
30
0.0
0
VERTEX
8
0
10
703.9027
20
4.8611
30
0.0
0
VERTEX
8
0
10
702.8418
20
5.0463
30
0.0
0
VERTEX
8
0
10
701.7613
20
5.2334
30
0.0
0
VERTEX
8
0
10
700.6614
20
5.4224
30
0.0
0
VERTEX
8
0
10
699.5425
20
5.6132
30
0.0
0
VERTEX
8
0
10
698.4046
20
5.8057
30
0.0
0
VERTEX
8
0
10
697.2483
20
5.9996
30
0.0
0
VERTEX
8
0
10
696.0737
20
6.1950
30
0.0
0
VERTEX
8
0
10
694.8811
20
6.3916
30
0.0
0
VERTEX
8
0
10
693.6709
20
6.5894
30
0.0
0
VERTEX
8
0
10
692.4433
20
6.7883
30
0.0
0
VERTEX
8
0
10
691.1986
20
6.9880
30
0.0
0
VERTEX
8
0
10
689.9372
20
7.1885
30
0.0
0
VERTEX
8
0
10
688.6594
20
7.3897
30
0.0
0
VERTEX
8
0
10
687.3654
20
7.5913
30
0.0
0
VERTEX
8
0
10
686.0557
20
7.7934
30
0.0
0
VERTEX
8
0
10
684.7305
20
7.9958
30
0.0
0
VERTEX
8
0
10
683.3902
20
8.1983
30
0.0
0
VERTEX
8
0
10
682.0350
20
8.4009
30
0.0
0
VERTEX
8
0
10
680.6654
20
8.6034
30
0.0
0
VERTEX
8
0
10
679.2817
20
8.8056
30
0.0
0
VERTEX
8
0
10
677.8842
20
9.0075
30
0.0
0
VERTEX
8
0
10
676.4732
20
9.2090
30
0.0
0
VERTEX
8
0
10
675.0492
20
9.4098
30
0.0
0
VERTEX
8
0
10
673.6125
20
9.6100
30
0.0
0
VERTEX
8
0
10
672.1634
20
9.8093
30
0.0
0
VERTEX
8
0
10
670.7023
20
10.0078
30
0.0
0
VERTEX
8
0
10
669.2295
20
10.2051
30
0.0
0
VERTEX
8
0
10
667.7455
20
10.4013
30
0.0
0
VERTEX
8
0
10
666.2506
20
10.5962
30
0.0
0
VERTEX
8
0
10
664.7452
20
10.7897
30
0.0
0
VERTEX
8
0
10
663.2296
20
10.9817
30
0.0
0
VERTEX
8
0
10
661.7042
20
11.1721
30
0.0
0
VERTEX
8
0
10
660.1694
20
11.3608
30
0.0
0
VERTEX
8
0
10
658.6256
20
11.5476
30
0.0
0
VERTEX
8
0
10
657.0732
20
11.7326
30
0.0
0
VERTEX
8
0
10
655.5125
20
11.9154
30
0.0
0
VERTEX
8
0
10
653.9440
20
12.0961
30
0.0
0
VERTEX
8
0
10
652.3680
20
12.2746
30
0.0
0
VERTEX
8
0
10
650.7850
20
12.4507
30
0.0
0
VERTEX
8
0
10
649.1953
20
12.6243
30
0.0
0
VERTEX
8
0
10
647.5993
20
12.7954
30
0.0
0
VERTEX
8
0
10
645.9974
20
12.9638
30
0.0
0
VERTEX
8
0
10
644.3900
20
13.1294
30
0.0
0
VERTEX
8
0
10
642.7776
20
13.2922
30
0.0
0
VERTEX
8
0
10
641.1605
20
13.4519
30
0.0
0
VERTEX
8
0
10
639.5390
20
13.6086
30
0.0
0
VERTEX
8
0
10
637.9138
20
13.7621
30
0.0
0
VERTEX
8
0
10
636.2850
20
13.9123
30
0.0
0
VERTEX
8
0
10
634.6532
20
14.0590
30
0.0
0
VERTEX
8
0
10
633.0188
20
14.2023
30
0.0
0
VERTEX
8
0
10
631.3821
20
14.3418
30
0.0
0
VERTEX
8
0
10
629.7435
20
14.4776
30
0.0
0
VERTEX
8
0
10
628.1035
20
14.6096
30
0.0
0
VERTEX
8
0
10
626.4625
20
14.7375
30
0.0
0
VERTEX
8
0
10
624.8209
20
14.8613
30
0.0
0
VERTEX
8
0
10
623.1791
20
14.9808
30
0.0
0
VERTEX
8
0
10
621.5375
20
15.0959
30
0.0
0
VERTEX
8
0
10
619.8965
20
15.2066
30
0.0
0
VERTEX
8
0
10
618.2565
20
15.3126
30
0.0
0
VERTEX
8
0
10
616.6179
20
15.4138
30
0.0
0
VERTEX
8
0
10
614.9812
20
15.5101
30
0.0
0
VERTEX
8
0
10
613.3468
20
15.6013
30
0.0
0
VERTEX
8
0
10
611.7150
20
15.6874
30
0.0
0
VERTEX
8
0
10
610.0862
20
15.7681
30
0.0
0
VERTEX
8
0
10
608.4610
20
15.8433
30
0.0
0
VERTEX
8
0
10
606.8395
20
15.9130
30
0.0
0
VERTEX
8
0
10
605.2224
20
15.9769
30
0.0
0
VERTEX
8
0
10
603.6100
20
16.0350
30
0.0
0
VERTEX
8
0
10
602.0026
20
16.0870
30
0.0
0
VERTEX
8
0
10
600.4007
20
16.1329
30
0.0
0
VERTEX
8
0
10
598.8047
20
16.1726
30
0.0
0
VERTEX
8
0
10
597.2150
20
16.2059
30
0.0
0
VERTEX
8
0
10
595.6320
20
16.2327
30
0.0
0
VERTEX
8
0
10
594.0560
20
16.2529
30
0.0
0
VERTEX
8
0
10
592.4875
20
16.2663
30
0.0
0
VERTEX
8
0
10
590.9268
20
16.2730
30
0.0
0
VERTEX
8
0
10
589.3744
20
16.2728
30
0.0
0
VERTEX
8
0
10
587.8306
20
16.2656
30
0.0
0
VERTEX
8
0
10
586.2958
20
16.2514
30
0.0
0
VERTEX
8
0
10
584.7704
20
16.2300
30
0.0
0
VERTEX
8
0
10
583.2548
20
16.2015
30
0.0
0
VERTEX
8
0
10
581.7494
20
16.1658
30
0.0
0
VERTEX
8
0
10
580.2545
20
16.1228
30
0.0
0
VERTEX
8
0
10
578.7705
20
16.0726
30
0.0
0
VERTEX
8
0
10
577.2977
20
16.0151
30
0.0
0
VERTEX
8
0
10
575.8366
20
15.9504
30
0.0
0
VERTEX
8
0
10
574.3875
20
15.8784
30
0.0
0
VERTEX
8
0
10
572.9508
20
15.7991
30
0.0
0
VERTEX
8
0
10
571.5268
20
15.7127
30
0.0
0
VERTEX
8
0
10
570.1158
20
15.6191
30
0.0
0
VERTEX
8
0
10
568.7183
20
15.5184
30
0.0
0
VERTEX
8
0
10
567.3346
20
15.4107
30
0.0
0
VERTEX
8
0
10
565.9650
20
15.2960
30
0.0
0
VERTEX
8
0
10
564.6098
20
15.1745
30
0.0
0
VERTEX
8
0
10
563.2695
20
15.0462
30
0.0
0
VERTEX
8
0
10
561.9443
20
14.9112
30
0.0
0
VERTEX
8
0
10
560.6346
20
14.7697
30
0.0
0
VERTEX
8
0
10
559.3406
20
14.6217
30
0.0
0
VERTEX
8
0
10
558.0628
20
14.4674
30
0.0
0
VERTEX
8
0
10
556.8014
20
14.3070
30
0.0
0
VERTEX
8
0
10
555.5567
20
14.1405
30
0.0
0
VERTEX
8
0
10
554.3291
20
13.9681
30
0.0
0
VERTEX
8
0
10
553.1189
20
13.7899
30
0.0
0
VERTEX
8
0
10
551.9263
20
13.6062
30
0.0
0
VERTEX
8
0
10
550.7517
20
13.4170
30
0.0
0
VERTEX
8
0
10
549.5954
20
13.2224
30
0.0
0
VERTEX
8
0
10
548.4575
20
13.0228
30
0.0
0
VERTEX
8
0
10
547.3386
20
12.8181
30
0.0
0
VERTEX
8
0
10
546.2387
20
12.6085
30
0.0
0
VERTEX
8
0
10
545.1582
20
12.3943
30
0.0
0
VERTEX
8
0
10
544.0973
20
12.1754
30
0.0
0
VERTEX
8
0
10
543.0564
20
11.9522
30
0.0
0
VERTEX
8
0
10
542.0357
20
11.7247
30
0.0
0
VERTEX
8
0
10
541.0353
20
11.4931
30
0.0
0
VERTEX
8
0
10
540.0557
20
11.2575
30
0.0
0
VERTEX
8
0
10
539.0969
20
11.0180
30
0.0
0
VERTEX
8
0
10
538.1593
20
10.7749
30
0.0
0
VERTEX
8
0
10
537.2432
20
10.5281
30
0.0
0
VERTEX
8
0
10
536.3486
20
10.2778
30
0.0
0
VERTEX
8
0
10
535.4759
20
10.0243
30
0.0
0
VERTEX
8
0
10
534.6252
20
9.7675
30
0.0
0
VERTEX
8
0
10
533.7969
20
9.5076
30
0.0
0
VERTEX
8
0
10
532.9909
20
9.2447
30
0.0
0
VERTEX
8
0
10
532.2077
20
8.9790
30
0.0
0
VERTEX
8
0
10
531.4474
20
8.7105
30
0.0
0
VERTEX
8
0
10
530.7101
20
8.4394
30
0.0
0
VERTEX
8
0
10
529.9961
20
8.1658
30
0.0
0
VERTEX
8
0
10
529.3055
20
7.8898
30
0.0
0
VERTEX
8
0
10
528.6385
20
7.6115
30
0.0
0
VERTEX
8
0
10
527.9953
20
7.3310
30
0.0
0
VERTEX
8
0
10
527.3759
20
7.0485
30
0.0
0
VERTEX
8
0
10
526.7807
20
6.7641
30
0.0
0
VERTEX
8
0
10
526.2097
20
6.4778
30
0.0
0
VERTEX
8
0
10
525.6631
20
6.1899
30
0.0
0
VERTEX
8
0
10
525.1410
20
5.9005
30
0.0
0
VERTEX
8
0
10
524.6435
20
5.6096
30
0.0
0
VERTEX
8
0
10
524.1708
20
5.3174
30
0.0
0
VERTEX
8
0
10
523.7229
20
5.0241
30
0.0
0
VERTEX
8
0
10
523.3001
20
4.7297
30
0.0
0
VERTEX
8
0
10
522.9023
20
4.4345
30
0.0
0
VERTEX
8
0
10
522.5298
20
4.1386
30
0.0
0
VERTEX
8
0
10
522.1825
20
3.8421
30
0.0
0
VERTEX
8
0
10
521.8606
20
3.5451
30
0.0
0
VERTEX
8
0
10
521.5642
20
3.2479
30
0.0
0
VERTEX
8
0
10
521.2933
20
2.9505
30
0.0
0
VERTEX
8
0
10
521.0480
20
2.6531
30
0.0
0
VERTEX
8
0
10
520.8283
20
2.3558
30
0.0
0
VERTEX
8
0
10
520.6344
20
2.0589
30
0.0
0
VERTEX
8
0
10
520.4662
20
1.7624
30
0.0
0
VERTEX
8
0
10
520.3238
20
1.4665
30
0.0
0
VERTEX
8
0
10
520.2073
20
1.1712
30
0.0
0
VERTEX
8
0
10
520.1166
20
0.8769
30
0.0
0
VERTEX
8
0
10
520.0518
20
0.5835
30
0.0
0
VERTEX
8
0
10
520.0130
20
0.2911
30
0.0
0
VERTEX
8
0
10
520.0000
20
0.0000
30
0.0
0
VERTEX
8
0
10
520.0130
20
-0.2786
30
0.0
0
VERTEX
8
0
10
520.0518
20
-0.5556
30
0.0
0
VERTEX
8
0
10
520.1166
20
-0.8307
30
0.0
0
VERTEX
8
0
10
520.2073
20
-1.1036
30
0.0
0
VERTEX
8
0
10
520.3238
20
-1.3740
30
0.0
0
VERTEX
8
0
10
520.4662
20
-1.6417
30
0.0
0
VERTEX
8
0
10
520.6344
20
-1.9063
30
0.0
0
VERTEX
8
0
10
520.8283
20
-2.1676
30
0.0
0
VERTEX
8
0
10
521.0480
20
-2.4254
30
0.0
0
VERTEX
8
0
10
521.2933
20
-2.6794
30
0.0
0
VERTEX
8
0
10
521.5642
20
-2.9294
30
0.0
0
VERTEX
8
0
10
521.8606
20
-3.1752
30
0.0
0
VERTEX
8
0
10
522.1825
20
-3.4167
30
0.0
0
VERTEX
8
0
10
522.5298
20
-3.6537
30
0.0
0
VERTEX
8
0
10
522.9023
20
-3.8860
30
0.0
0
VERTEX
8
0
10
523.3001
20
-4.1135
30
0.0
0
VERTEX
8
0
10
523.7229
20
-4.3361
30
0.0
0
VERTEX
8
0
10
524.1708
20
-4.5537
30
0.0
0
VERTEX
8
0
10
524.6435
20
-4.7662
30
0.0
0
VERTEX
8
0
10
525.1410
20
-4.9735
30
0.0
0
VERTEX
8
0
10
525.6631
20
-5.1756
30
0.0
0
VERTEX
8
0
10
526.2097
20
-5.3724
30
0.0
0
VERTEX
8
0
10
526.7807
20
-5.5639
30
0.0
0
VERTEX
8
0
10
527.3759
20
-5.7500
30
0.0
0
VERTEX
8
0
10
527.9953
20
-5.9308
30
0.0
0
VERTEX
8
0
10
528.6385
20
-6.1062
30
0.0
0
VERTEX
8
0
10
529.3055
20
-6.2762
30
0.0
0
VERTEX
8
0
10
529.9961
20
-6.4409
30
0.0
0
VERTEX
8
0
10
530.7101
20
-6.6002
30
0.0
0
VERTEX
8
0
10
531.4474
20
-6.7541
30
0.0
0
VERTEX
8
0
10
532.2077
20
-6.9028
30
0.0
0
VERTEX
8
0
10
532.9909
20
-7.0461
30
0.0
0
VERTEX
8
0
10
533.7969
20
-7.1841
30
0.0
0
VERTEX
8
0
10
534.6252
20
-7.3169
30
0.0
0
VERTEX
8
0
10
535.4759
20
-7.4445
30
0.0
0
VERTEX
8
0
10
536.3486
20
-7.5669
30
0.0
0
VERTEX
8
0
10
537.2432
20
-7.6841
30
0.0
0
VERTEX
8
0
10
538.1593
20
-7.7962
30
0.0
0
VERTEX
8
0
10
539.0969
20
-7.9031
30
0.0
0
VERTEX
8
0
10
540.0557
20
-8.0051
30
0.0
0
VERTEX
8
0
10
541.0353
20
-8.1019
30
0.0
0
VERTEX
8
0
10
542.0357
20
-8.1938
30
0.0
0
VERTEX
8
0
10
543.0564
20
-8.2807
30
0.0
0
VERTEX
8
0
10
544.0973
20
-8.3626
30
0.0
0
VERTEX
8
0
10
545.1582
20
-8.4397
30
0.0
0
VERTEX
8
0
10
546.2387
20
-8.5118
30
0.0
0
VERTEX
8
0
10
547.3386
20
-8.5791
30
0.0
0
VERTEX
8
0
10
548.4575
20
-8.6416
30
0.0
0
VERTEX
8
0
10
549.5954
20
-8.6994
30
0.0
0
VERTEX
8
0
10
550.7517
20
-8.7524
30
0.0
0
VERTEX
8
0
10
551.9263
20
-8.8007
30
0.0
0
VERTEX
8
0
10
553.1189
20
-8.8445
30
0.0
0
VERTEX
8
0
10
554.3291
20
-8.8836
30
0.0
0
VERTEX
8
0
10
555.5567
20
-8.9182
30
0.0
0
VERTEX
8
0
10
556.8014
20
-8.9483
30
0.0
0
VERTEX
8
0
10
558.0628
20
-8.9740
30
0.0
0
VERTEX
8
0
10
559.3406
20
-8.9953
30
0.0
0
VERTEX
8
0
10
560.6346
20
-9.0124
30
0.0
0
VERTEX
8
0
10
561.9443
20
-9.0253
30
0.0
0
VERTEX
8
0
10
563.2695
20
-9.0341
30
0.0
0
VERTEX
8
0
10
564.6098
20
-9.0388
30
0.0
0
VERTEX
8
0
10
565.9650
20
-9.0396
30
0.0
0
VERTEX
8
0
10
567.3346
20
-9.0365
30
0.0
0
VERTEX
8
0
10
568.7183
20
-9.0297
30
0.0
0
VERTEX
8
0
10
570.1158
20
-9.0192
30
0.0
0
VERTEX
8
0
10
571.5268
20
-9.0051
30
0.0
0
VERTEX
8
0
10
572.9508
20
-8.9876
30
0.0
0
VERTEX
8
0
10
574.3875
20
-8.9667
30
0.0
0
VERTEX
8
0
10
575.8366
20
-8.9426
30
0.0
0
VERTEX
8
0
10
577.2977
20
-8.9153
30
0.0
0
VERTEX
8
0
10
578.7705
20
-8.8850
30
0.0
0
VERTEX
8
0
10
580.2545
20
-8.8517
30
0.0
0
VERTEX
8
0
10
581.7494
20
-8.8156
30
0.0
0
VERTEX
8
0
10
583.2548
20
-8.7768
30
0.0
0
VERTEX
8
0
10
584.7704
20
-8.7354
30
0.0
0
VERTEX
8
0
10
586.2958
20
-8.6914
30
0.0
0
VERTEX
8
0
10
587.8306
20
-8.6450
30
0.0
0
VERTEX
8
0
10
589.3744
20
-8.5963
30
0.0
0
VERTEX
8
0
10
590.9268
20
-8.5452
30
0.0
0
VERTEX
8
0
10
592.4875
20
-8.4921
30
0.0
0
VERTEX
8
0
10
594.0560
20
-8.4368
30
0.0
0
VERTEX
8
0
10
595.6320
20
-8.3794
30
0.0
0
VERTEX
8
0
10
597.2150
20
-8.3202
30
0.0
0
VERTEX
8
0
10
598.8047
20
-8.2590
30
0.0
0
VERTEX
8
0
10
600.4007
20
-8.1960
30
0.0
0
VERTEX
8
0
10
602.0026
20
-8.1311
30
0.0
0
VERTEX
8
0
10
603.6100
20
-8.0646
30
0.0
0
VERTEX
8
0
10
605.2224
20
-7.9963
30
0.0
0
VERTEX
8
0
10
606.8395
20
-7.9264
30
0.0
0
VERTEX
8
0
10
608.4610
20
-7.8548
30
0.0
0
VERTEX
8
0
10
610.0862
20
-7.7817
30
0.0
0
VERTEX
8
0
10
611.7150
20
-7.7070
30
0.0
0
VERTEX
8
0
10
613.3468
20
-7.6308
30
0.0
0
VERTEX
8
0
10
614.9812
20
-7.5530
30
0.0
0
VERTEX
8
0
10
616.6179
20
-7.4738
30
0.0
0
VERTEX
8
0
10
618.2565
20
-7.3931
30
0.0
0
VERTEX
8
0
10
619.8965
20
-7.3110
30
0.0
0
VERTEX
8
0
10
621.5375
20
-7.2275
30
0.0
0
VERTEX
8
0
10
623.1791
20
-7.1426
30
0.0
0
VERTEX
8
0
10
624.8209
20
-7.0563
30
0.0
0
VERTEX
8
0
10
626.4625
20
-6.9688
30
0.0
0
VERTEX
8
0
10
628.1035
20
-6.8799
30
0.0
0
VERTEX
8
0
10
629.7435
20
-6.7899
30
0.0
0
VERTEX
8
0
10
631.3821
20
-6.6986
30
0.0
0
VERTEX
8
0
10
633.0188
20
-6.6062
30
0.0
0
VERTEX
8
0
10
634.6532
20
-6.5127
30
0.0
0
VERTEX
8
0
10
636.2850
20
-6.4182
30
0.0
0
VERTEX
8
0
10
637.9138
20
-6.3227
30
0.0
0
VERTEX
8
0
10
639.5390
20
-6.2262
30
0.0
0
VERTEX
8
0
10
641.1605
20
-6.1289
30
0.0
0
VERTEX
8
0
10
642.7776
20
-6.0309
30
0.0
0
VERTEX
8
0
10
644.3900
20
-5.9321
30
0.0
0
VERTEX
8
0
10
645.9974
20
-5.8327
30
0.0
0
VERTEX
8
0
10
647.5993
20
-5.7327
30
0.0
0
VERTEX
8
0
10
649.1953
20
-5.6323
30
0.0
0
VERTEX
8
0
10
650.7850
20
-5.5315
30
0.0
0
VERTEX
8
0
10
652.3680
20
-5.4304
30
0.0
0
VERTEX
8
0
10
653.9440
20
-5.3292
30
0.0
0
VERTEX
8
0
10
655.5125
20
-5.2278
30
0.0
0
VERTEX
8
0
10
657.0732
20
-5.1263
30
0.0
0
VERTEX
8
0
10
658.6256
20
-5.0250
30
0.0
0
VERTEX
8
0
10
660.1694
20
-4.9237
30
0.0
0
VERTEX
8
0
10
661.7042
20
-4.8227
30
0.0
0
VERTEX
8
0
10
663.2296
20
-4.7220
30
0.0
0
VERTEX
8
0
10
664.7452
20
-4.6217
30
0.0
0
VERTEX
8
0
10
666.2506
20
-4.5218
30
0.0
0
VERTEX
8
0
10
667.7455
20
-4.4224
30
0.0
0
VERTEX
8
0
10
669.2295
20
-4.3237
30
0.0
0
VERTEX
8
0
10
670.7023
20
-4.2255
30
0.0
0
VERTEX
8
0
10
672.1634
20
-4.1281
30
0.0
0
VERTEX
8
0
10
673.6125
20
-4.0314
30
0.0
0
VERTEX
8
0
10
675.0492
20
-3.9355
30
0.0
0
VERTEX
8
0
10
676.4732
20
-3.8404
30
0.0
0
VERTEX
8
0
10
677.8842
20
-3.7462
30
0.0
0
VERTEX
8
0
10
679.2817
20
-3.6528
30
0.0
0
VERTEX
8
0
10
680.6654
20
-3.5604
30
0.0
0
VERTEX
8
0
10
682.0350
20
-3.4689
30
0.0
0
VERTEX
8
0
10
683.3902
20
-3.3784
30
0.0
0
VERTEX
8
0
10
684.7305
20
-3.2888
30
0.0
0
VERTEX
8
0
10
686.0557
20
-3.2002
30
0.0
0
VERTEX
8
0
10
687.3654
20
-3.1126
30
0.0
0
VERTEX
8
0
10
688.6594
20
-3.0260
30
0.0
0
VERTEX
8
0
10
689.9372
20
-2.9403
30
0.0
0
VERTEX
8
0
10
691.1986
20
-2.8557
30
0.0
0
VERTEX
8
0
10
692.4433
20
-2.7720
30
0.0
0
VERTEX
8
0
10
693.6709
20
-2.6894
30
0.0
0
VERTEX
8
0
10
694.8811
20
-2.6077
30
0.0
0
VERTEX
8
0
10
696.0737
20
-2.5270
30
0.0
0
VERTEX
8
0
10
697.2483
20
-2.4473
30
0.0
0
VERTEX
8
0
10
698.4046
20
-2.3686
30
0.0
0
VERTEX
8
0
10
699.5425
20
-2.2909
30
0.0
0
VERTEX
8
0
10
700.6614
20
-2.2143
30
0.0
0
VERTEX
8
0
10
701.7613
20
-2.1387
30
0.0
0
VERTEX
8
0
10
702.8418
20
-2.0641
30
0.0
0
VERTEX
8
0
10
703.9027
20
-1.9906
30
0.0
0
VERTEX
8
0
10
704.9436
20
-1.9182
30
0.0
0
VERTEX
8
0
10
705.9643
20
-1.8469
30
0.0
0
VERTEX
8
0
10
706.9647
20
-1.7767
30
0.0
0
VERTEX
8
0
10
707.9443
20
-1.7077
30
0.0
0
VERTEX
8
0
10
708.9031
20
-1.6399
30
0.0
0
VERTEX
8
0
10
709.8407
20
-1.5734
30
0.0
0
VERTEX
8
0
10
710.7568
20
-1.5081
30
0.0
0
VERTEX
8
0
10
711.6514
20
-1.4441
30
0.0
0
VERTEX
8
0
10
712.5241
20
-1.3815
30
0.0
0
VERTEX
8
0
10
713.3748
20
-1.3202
30
0.0
0
VERTEX
8
0
10
714.2031
20
-1.2604
30
0.0
0
VERTEX
8
0
10
715.0091
20
-1.2021
30
0.0
0
VERTEX
8
0
10
715.7923
20
-1.1453
30
0.0
0
VERTEX
8
0
10
716.5526
20
-1.0901
30
0.0
0
VERTEX
8
0
10
717.2899
20
-1.0364
30
0.0
0
VERTEX
8
0
10
718.0039
20
-0.9844
30
0.0
0
VERTEX
8
0
10
718.6945
20
-0.9340
30
0.0
0
VERTEX
8
0
10
719.3615
20
-0.8854
30
0.0
0
VERTEX
8
0
10
720.0047
20
-0.8385
30
0.0
0
VERTEX
8
0
10
720.6241
20
-0.7934
30
0.0
0
VERTEX
8
0
10
721.2193
20
-0.7500
30
0.0
0
VERTEX
8
0
10
721.7903
20
-0.7085
30
0.0
0
VERTEX
8
0
10
722.3369
20
-0.6688
30
0.0
0
VERTEX
8
0
10
722.8590
20
-0.6310
30
0.0
0
VERTEX
8
0
10
723.3565
20
-0.5950
30
0.0
0
VERTEX
8
0
10
723.8292
20
-0.5609
30
0.0
0
VERTEX
8
0
10
724.2771
20
-0.5287
30
0.0
0
VERTEX
8
0
10
724.6999
20
-0.4983
30
0.0
0
VERTEX
8
0
10
725.0977
20
-0.4699
30
0.0
0
VERTEX
8
0
10
725.4702
20
-0.4433
30
0.0
0
VERTEX
8
0
10
725.8175
20
-0.4186
30
0.0
0
VERTEX
8
0
10
726.1394
20
-0.3958
30
0.0
0
VERTEX
8
0
10
726.4358
20
-0.3749
30
0.0
0
VERTEX
8
0
10
726.7067
20
-0.3558
30
0.0
0
VERTEX
8
0
10
726.9520
20
-0.3386
30
0.0
0
VERTEX
8
0
10
727.1717
20
-0.3232
30
0.0
0
VERTEX
8
0
10
727.3656
20
-0.3096
30
0.0
0
VERTEX
8
0
10
727.5338
20
-0.2979
30
0.0
0
VERTEX
8
0
10
727.6762
20
-0.2880
30
0.0
0
VERTEX
8
0
10
727.7927
20
-0.2800
30
0.0
0
VERTEX
8
0
10
727.8834
20
-0.2737
30
0.0
0
VERTEX
8
0
10
727.9482
20
-0.2692
30
0.0
0
VERTEX
8
0
10
727.9870
20
-0.2665
30
0.0
0
VERTEX
8
0
10
728.0000
20
-0.2656
30
0.0
0
SEQEND
0
CIRCLE
8
0
10
582.4000
20
3.6912
40
5.0000
0
TEXT
8
0
10
580.0000
20
-14.0000
40
4.0000
1
RIB 3/8  STA 357 MM  (CUT 2X)
0
POLYLINE
8
0
66
1
70
1
0
VERTEX
8
0
10
988.0000
20
0.2656
30
0.0
0
VERTEX
8
0
10
987.9870
20
0.2683
30
0.0
0
VERTEX
8
0
10
987.9482
20
0.2763
30
0.0
0
VERTEX
8
0
10
987.8834
20
0.2898
30
0.0
0
VERTEX
8
0
10
987.7927
20
0.3085
30
0.0
0
VERTEX
8
0
10
987.6762
20
0.3326
30
0.0
0
VERTEX
8
0
10
987.5338
20
0.3621
30
0.0
0
VERTEX
8
0
10
987.3656
20
0.3968
30
0.0
0
VERTEX
8
0
10
987.1717
20
0.4368
30
0.0
0
VERTEX
8
0
10
986.9520
20
0.4820
30
0.0
0
VERTEX
8
0
10
986.7067
20
0.5324
30
0.0
0
VERTEX
8
0
10
986.4358
20
0.5880
30
0.0
0
VERTEX
8
0
10
986.1394
20
0.6487
30
0.0
0
VERTEX
8
0
10
985.8175
20
0.7144
30
0.0
0
VERTEX
8
0
10
985.4702
20
0.7852
30
0.0
0
VERTEX
8
0
10
985.0977
20
0.8609
30
0.0
0
VERTEX
8
0
10
984.6999
20
0.9416
30
0.0
0
VERTEX
8
0
10
984.2771
20
1.0270
30
0.0
0
VERTEX
8
0
10
983.8292
20
1.1173
30
0.0
0
VERTEX
8
0
10
983.3565
20
1.2122
30
0.0
0
VERTEX
8
0
10
982.8590
20
1.3118
30
0.0
0
VERTEX
8
0
10
982.3369
20
1.4160
30
0.0
0
VERTEX
8
0
10
981.7903
20
1.5246
30
0.0
0
VERTEX
8
0
10
981.2193
20
1.6376
30
0.0
0
VERTEX
8
0
10
980.6241
20
1.7550
30
0.0
0
VERTEX
8
0
10
980.0047
20
1.8765
30
0.0
0
VERTEX
8
0
10
979.3615
20
2.0023
30
0.0
0
VERTEX
8
0
10
978.6945
20
2.1320
30
0.0
0
VERTEX
8
0
10
978.0039
20
2.2658
30
0.0
0
VERTEX
8
0
10
977.2899
20
2.4034
30
0.0
0
VERTEX
8
0
10
976.5526
20
2.5447
30
0.0
0
VERTEX
8
0
10
975.7923
20
2.6898
30
0.0
0
VERTEX
8
0
10
975.0091
20
2.8384
30
0.0
0
VERTEX
8
0
10
974.2031
20
2.9904
30
0.0
0
VERTEX
8
0
10
973.3748
20
3.1459
30
0.0
0
VERTEX
8
0
10
972.5241
20
3.3045
30
0.0
0
VERTEX
8
0
10
971.6514
20
3.4664
30
0.0
0
VERTEX
8
0
10
970.7568
20
3.6313
30
0.0
0
VERTEX
8
0
10
969.8407
20
3.7991
30
0.0
0
VERTEX
8
0
10
968.9031
20
3.9697
30
0.0
0
VERTEX
8
0
10
967.9443
20
4.1430
30
0.0
0
VERTEX
8
0
10
966.9647
20
4.3189
30
0.0
0
VERTEX
8
0
10
965.9643
20
4.4973
30
0.0
0
VERTEX
8
0
10
964.9436
20
4.6781
30
0.0
0
VERTEX
8
0
10
963.9027
20
4.8611
30
0.0
0
VERTEX
8
0
10
962.8418
20
5.0463
30
0.0
0
VERTEX
8
0
10
961.7613
20
5.2334
30
0.0
0
VERTEX
8
0
10
960.6614
20
5.4224
30
0.0
0
VERTEX
8
0
10
959.5425
20
5.6132
30
0.0
0
VERTEX
8
0
10
958.4046
20
5.8057
30
0.0
0
VERTEX
8
0
10
957.2483
20
5.9996
30
0.0
0
VERTEX
8
0
10
956.0737
20
6.1950
30
0.0
0
VERTEX
8
0
10
954.8811
20
6.3916
30
0.0
0
VERTEX
8
0
10
953.6709
20
6.5894
30
0.0
0
VERTEX
8
0
10
952.4433
20
6.7883
30
0.0
0
VERTEX
8
0
10
951.1986
20
6.9880
30
0.0
0
VERTEX
8
0
10
949.9372
20
7.1885
30
0.0
0
VERTEX
8
0
10
948.6594
20
7.3897
30
0.0
0
VERTEX
8
0
10
947.3654
20
7.5913
30
0.0
0
VERTEX
8
0
10
946.0557
20
7.7934
30
0.0
0
VERTEX
8
0
10
944.7305
20
7.9958
30
0.0
0
VERTEX
8
0
10
943.3902
20
8.1983
30
0.0
0
VERTEX
8
0
10
942.0350
20
8.4009
30
0.0
0
VERTEX
8
0
10
940.6654
20
8.6034
30
0.0
0
VERTEX
8
0
10
939.2817
20
8.8056
30
0.0
0
VERTEX
8
0
10
937.8842
20
9.0075
30
0.0
0
VERTEX
8
0
10
936.4732
20
9.2090
30
0.0
0
VERTEX
8
0
10
935.0492
20
9.4098
30
0.0
0
VERTEX
8
0
10
933.6125
20
9.6100
30
0.0
0
VERTEX
8
0
10
932.1634
20
9.8093
30
0.0
0
VERTEX
8
0
10
930.7023
20
10.0078
30
0.0
0
VERTEX
8
0
10
929.2295
20
10.2051
30
0.0
0
VERTEX
8
0
10
927.7455
20
10.4013
30
0.0
0
VERTEX
8
0
10
926.2506
20
10.5962
30
0.0
0
VERTEX
8
0
10
924.7452
20
10.7897
30
0.0
0
VERTEX
8
0
10
923.2296
20
10.9817
30
0.0
0
VERTEX
8
0
10
921.7042
20
11.1721
30
0.0
0
VERTEX
8
0
10
920.1694
20
11.3608
30
0.0
0
VERTEX
8
0
10
918.6256
20
11.5476
30
0.0
0
VERTEX
8
0
10
917.0732
20
11.7326
30
0.0
0
VERTEX
8
0
10
915.5125
20
11.9154
30
0.0
0
VERTEX
8
0
10
913.9440
20
12.0961
30
0.0
0
VERTEX
8
0
10
912.3680
20
12.2746
30
0.0
0
VERTEX
8
0
10
910.7850
20
12.4507
30
0.0
0
VERTEX
8
0
10
909.1953
20
12.6243
30
0.0
0
VERTEX
8
0
10
907.5993
20
12.7954
30
0.0
0
VERTEX
8
0
10
905.9974
20
12.9638
30
0.0
0
VERTEX
8
0
10
904.3900
20
13.1294
30
0.0
0
VERTEX
8
0
10
902.7776
20
13.2922
30
0.0
0
VERTEX
8
0
10
901.1605
20
13.4519
30
0.0
0
VERTEX
8
0
10
899.5390
20
13.6086
30
0.0
0
VERTEX
8
0
10
897.9138
20
13.7621
30
0.0
0
VERTEX
8
0
10
896.2850
20
13.9123
30
0.0
0
VERTEX
8
0
10
894.6532
20
14.0590
30
0.0
0
VERTEX
8
0
10
893.0188
20
14.2023
30
0.0
0
VERTEX
8
0
10
891.3821
20
14.3418
30
0.0
0
VERTEX
8
0
10
889.7435
20
14.4776
30
0.0
0
VERTEX
8
0
10
888.1035
20
14.6096
30
0.0
0
VERTEX
8
0
10
886.4625
20
14.7375
30
0.0
0
VERTEX
8
0
10
884.8209
20
14.8613
30
0.0
0
VERTEX
8
0
10
883.1791
20
14.9808
30
0.0
0
VERTEX
8
0
10
881.5375
20
15.0959
30
0.0
0
VERTEX
8
0
10
879.8965
20
15.2066
30
0.0
0
VERTEX
8
0
10
878.2565
20
15.3126
30
0.0
0
VERTEX
8
0
10
876.6179
20
15.4138
30
0.0
0
VERTEX
8
0
10
874.9812
20
15.5101
30
0.0
0
VERTEX
8
0
10
873.3468
20
15.6013
30
0.0
0
VERTEX
8
0
10
871.7150
20
15.6874
30
0.0
0
VERTEX
8
0
10
870.0862
20
15.7681
30
0.0
0
VERTEX
8
0
10
868.4610
20
15.8433
30
0.0
0
VERTEX
8
0
10
866.8395
20
15.9130
30
0.0
0
VERTEX
8
0
10
865.2224
20
15.9769
30
0.0
0
VERTEX
8
0
10
863.6100
20
16.0350
30
0.0
0
VERTEX
8
0
10
862.0026
20
16.0870
30
0.0
0
VERTEX
8
0
10
860.4007
20
16.1329
30
0.0
0
VERTEX
8
0
10
858.8047
20
16.1726
30
0.0
0
VERTEX
8
0
10
857.2150
20
16.2059
30
0.0
0
VERTEX
8
0
10
855.6320
20
16.2327
30
0.0
0
VERTEX
8
0
10
854.0560
20
16.2529
30
0.0
0
VERTEX
8
0
10
852.4875
20
16.2663
30
0.0
0
VERTEX
8
0
10
850.9268
20
16.2730
30
0.0
0
VERTEX
8
0
10
849.3744
20
16.2728
30
0.0
0
VERTEX
8
0
10
847.8306
20
16.2656
30
0.0
0
VERTEX
8
0
10
846.2958
20
16.2514
30
0.0
0
VERTEX
8
0
10
844.7704
20
16.2300
30
0.0
0
VERTEX
8
0
10
843.2548
20
16.2015
30
0.0
0
VERTEX
8
0
10
841.7494
20
16.1658
30
0.0
0
VERTEX
8
0
10
840.2545
20
16.1228
30
0.0
0
VERTEX
8
0
10
838.7705
20
16.0726
30
0.0
0
VERTEX
8
0
10
837.2977
20
16.0151
30
0.0
0
VERTEX
8
0
10
835.8366
20
15.9504
30
0.0
0
VERTEX
8
0
10
834.3875
20
15.8784
30
0.0
0
VERTEX
8
0
10
832.9508
20
15.7991
30
0.0
0
VERTEX
8
0
10
831.5268
20
15.7127
30
0.0
0
VERTEX
8
0
10
830.1158
20
15.6191
30
0.0
0
VERTEX
8
0
10
828.7183
20
15.5184
30
0.0
0
VERTEX
8
0
10
827.3346
20
15.4107
30
0.0
0
VERTEX
8
0
10
825.9650
20
15.2960
30
0.0
0
VERTEX
8
0
10
824.6098
20
15.1745
30
0.0
0
VERTEX
8
0
10
823.2695
20
15.0462
30
0.0
0
VERTEX
8
0
10
821.9443
20
14.9112
30
0.0
0
VERTEX
8
0
10
820.6346
20
14.7697
30
0.0
0
VERTEX
8
0
10
819.3406
20
14.6217
30
0.0
0
VERTEX
8
0
10
818.0628
20
14.4674
30
0.0
0
VERTEX
8
0
10
816.8014
20
14.3070
30
0.0
0
VERTEX
8
0
10
815.5567
20
14.1405
30
0.0
0
VERTEX
8
0
10
814.3291
20
13.9681
30
0.0
0
VERTEX
8
0
10
813.1189
20
13.7899
30
0.0
0
VERTEX
8
0
10
811.9263
20
13.6062
30
0.0
0
VERTEX
8
0
10
810.7517
20
13.4170
30
0.0
0
VERTEX
8
0
10
809.5954
20
13.2224
30
0.0
0
VERTEX
8
0
10
808.4575
20
13.0228
30
0.0
0
VERTEX
8
0
10
807.3386
20
12.8181
30
0.0
0
VERTEX
8
0
10
806.2387
20
12.6085
30
0.0
0
VERTEX
8
0
10
805.1582
20
12.3943
30
0.0
0
VERTEX
8
0
10
804.0973
20
12.1754
30
0.0
0
VERTEX
8
0
10
803.0564
20
11.9522
30
0.0
0
VERTEX
8
0
10
802.0357
20
11.7247
30
0.0
0
VERTEX
8
0
10
801.0353
20
11.4931
30
0.0
0
VERTEX
8
0
10
800.0557
20
11.2575
30
0.0
0
VERTEX
8
0
10
799.0969
20
11.0180
30
0.0
0
VERTEX
8
0
10
798.1593
20
10.7749
30
0.0
0
VERTEX
8
0
10
797.2432
20
10.5281
30
0.0
0
VERTEX
8
0
10
796.3486
20
10.2778
30
0.0
0
VERTEX
8
0
10
795.4759
20
10.0243
30
0.0
0
VERTEX
8
0
10
794.6252
20
9.7675
30
0.0
0
VERTEX
8
0
10
793.7969
20
9.5076
30
0.0
0
VERTEX
8
0
10
792.9909
20
9.2447
30
0.0
0
VERTEX
8
0
10
792.2077
20
8.9790
30
0.0
0
VERTEX
8
0
10
791.4474
20
8.7105
30
0.0
0
VERTEX
8
0
10
790.7101
20
8.4394
30
0.0
0
VERTEX
8
0
10
789.9961
20
8.1658
30
0.0
0
VERTEX
8
0
10
789.3055
20
7.8898
30
0.0
0
VERTEX
8
0
10
788.6385
20
7.6115
30
0.0
0
VERTEX
8
0
10
787.9953
20
7.3310
30
0.0
0
VERTEX
8
0
10
787.3759
20
7.0485
30
0.0
0
VERTEX
8
0
10
786.7807
20
6.7641
30
0.0
0
VERTEX
8
0
10
786.2097
20
6.4778
30
0.0
0
VERTEX
8
0
10
785.6631
20
6.1899
30
0.0
0
VERTEX
8
0
10
785.1410
20
5.9005
30
0.0
0
VERTEX
8
0
10
784.6435
20
5.6096
30
0.0
0
VERTEX
8
0
10
784.1708
20
5.3174
30
0.0
0
VERTEX
8
0
10
783.7229
20
5.0241
30
0.0
0
VERTEX
8
0
10
783.3001
20
4.7297
30
0.0
0
VERTEX
8
0
10
782.9023
20
4.4345
30
0.0
0
VERTEX
8
0
10
782.5298
20
4.1386
30
0.0
0
VERTEX
8
0
10
782.1825
20
3.8421
30
0.0
0
VERTEX
8
0
10
781.8606
20
3.5451
30
0.0
0
VERTEX
8
0
10
781.5642
20
3.2479
30
0.0
0
VERTEX
8
0
10
781.2933
20
2.9505
30
0.0
0
VERTEX
8
0
10
781.0480
20
2.6531
30
0.0
0
VERTEX
8
0
10
780.8283
20
2.3558
30
0.0
0
VERTEX
8
0
10
780.6344
20
2.0589
30
0.0
0
VERTEX
8
0
10
780.4662
20
1.7624
30
0.0
0
VERTEX
8
0
10
780.3238
20
1.4665
30
0.0
0
VERTEX
8
0
10
780.2073
20
1.1712
30
0.0
0
VERTEX
8
0
10
780.1166
20
0.8769
30
0.0
0
VERTEX
8
0
10
780.0518
20
0.5835
30
0.0
0
VERTEX
8
0
10
780.0130
20
0.2911
30
0.0
0
VERTEX
8
0
10
780.0000
20
0.0000
30
0.0
0
VERTEX
8
0
10
780.0130
20
-0.2786
30
0.0
0
VERTEX
8
0
10
780.0518
20
-0.5556
30
0.0
0
VERTEX
8
0
10
780.1166
20
-0.8307
30
0.0
0
VERTEX
8
0
10
780.2073
20
-1.1036
30
0.0
0
VERTEX
8
0
10
780.3238
20
-1.3740
30
0.0
0
VERTEX
8
0
10
780.4662
20
-1.6417
30
0.0
0
VERTEX
8
0
10
780.6344
20
-1.9063
30
0.0
0
VERTEX
8
0
10
780.8283
20
-2.1676
30
0.0
0
VERTEX
8
0
10
781.0480
20
-2.4254
30
0.0
0
VERTEX
8
0
10
781.2933
20
-2.6794
30
0.0
0
VERTEX
8
0
10
781.5642
20
-2.9294
30
0.0
0
VERTEX
8
0
10
781.8606
20
-3.1752
30
0.0
0
VERTEX
8
0
10
782.1825
20
-3.4167
30
0.0
0
VERTEX
8
0
10
782.5298
20
-3.6537
30
0.0
0
VERTEX
8
0
10
782.9023
20
-3.8860
30
0.0
0
VERTEX
8
0
10
783.3001
20
-4.1135
30
0.0
0
VERTEX
8
0
10
783.7229
20
-4.3361
30
0.0
0
VERTEX
8
0
10
784.1708
20
-4.5537
30
0.0
0
VERTEX
8
0
10
784.6435
20
-4.7662
30
0.0
0
VERTEX
8
0
10
785.1410
20
-4.9735
30
0.0
0
VERTEX
8
0
10
785.6631
20
-5.1756
30
0.0
0
VERTEX
8
0
10
786.2097
20
-5.3724
30
0.0
0
VERTEX
8
0
10
786.7807
20
-5.5639
30
0.0
0
VERTEX
8
0
10
787.3759
20
-5.7500
30
0.0
0
VERTEX
8
0
10
787.9953
20
-5.9308
30
0.0
0
VERTEX
8
0
10
788.6385
20
-6.1062
30
0.0
0
VERTEX
8
0
10
789.3055
20
-6.2762
30
0.0
0
VERTEX
8
0
10
789.9961
20
-6.4409
30
0.0
0
VERTEX
8
0
10
790.7101
20
-6.6002
30
0.0
0
VERTEX
8
0
10
791.4474
20
-6.7541
30
0.0
0
VERTEX
8
0
10
792.2077
20
-6.9028
30
0.0
0
VERTEX
8
0
10
792.9909
20
-7.0461
30
0.0
0
VERTEX
8
0
10
793.7969
20
-7.1841
30
0.0
0
VERTEX
8
0
10
794.6252
20
-7.3169
30
0.0
0
VERTEX
8
0
10
795.4759
20
-7.4445
30
0.0
0
VERTEX
8
0
10
796.3486
20
-7.5669
30
0.0
0
VERTEX
8
0
10
797.2432
20
-7.6841
30
0.0
0
VERTEX
8
0
10
798.1593
20
-7.7962
30
0.0
0
VERTEX
8
0
10
799.0969
20
-7.9031
30
0.0
0
VERTEX
8
0
10
800.0557
20
-8.0051
30
0.0
0
VERTEX
8
0
10
801.0353
20
-8.1019
30
0.0
0
VERTEX
8
0
10
802.0357
20
-8.1938
30
0.0
0
VERTEX
8
0
10
803.0564
20
-8.2807
30
0.0
0
VERTEX
8
0
10
804.0973
20
-8.3626
30
0.0
0
VERTEX
8
0
10
805.1582
20
-8.4397
30
0.0
0
VERTEX
8
0
10
806.2387
20
-8.5118
30
0.0
0
VERTEX
8
0
10
807.3386
20
-8.5791
30
0.0
0
VERTEX
8
0
10
808.4575
20
-8.6416
30
0.0
0
VERTEX
8
0
10
809.5954
20
-8.6994
30
0.0
0
VERTEX
8
0
10
810.7517
20
-8.7524
30
0.0
0
VERTEX
8
0
10
811.9263
20
-8.8007
30
0.0
0
VERTEX
8
0
10
813.1189
20
-8.8445
30
0.0
0
VERTEX
8
0
10
814.3291
20
-8.8836
30
0.0
0
VERTEX
8
0
10
815.5567
20
-8.9182
30
0.0
0
VERTEX
8
0
10
816.8014
20
-8.9483
30
0.0
0
VERTEX
8
0
10
818.0628
20
-8.9740
30
0.0
0
VERTEX
8
0
10
819.3406
20
-8.9953
30
0.0
0
VERTEX
8
0
10
820.6346
20
-9.0124
30
0.0
0
VERTEX
8
0
10
821.9443
20
-9.0253
30
0.0
0
VERTEX
8
0
10
823.2695
20
-9.0341
30
0.0
0
VERTEX
8
0
10
824.6098
20
-9.0388
30
0.0
0
VERTEX
8
0
10
825.9650
20
-9.0396
30
0.0
0
VERTEX
8
0
10
827.3346
20
-9.0365
30
0.0
0
VERTEX
8
0
10
828.7183
20
-9.0297
30
0.0
0
VERTEX
8
0
10
830.1158
20
-9.0192
30
0.0
0
VERTEX
8
0
10
831.5268
20
-9.0051
30
0.0
0
VERTEX
8
0
10
832.9508
20
-8.9876
30
0.0
0
VERTEX
8
0
10
834.3875
20
-8.9667
30
0.0
0
VERTEX
8
0
10
835.8366
20
-8.9426
30
0.0
0
VERTEX
8
0
10
837.2977
20
-8.9153
30
0.0
0
VERTEX
8
0
10
838.7705
20
-8.8850
30
0.0
0
VERTEX
8
0
10
840.2545
20
-8.8517
30
0.0
0
VERTEX
8
0
10
841.7494
20
-8.8156
30
0.0
0
VERTEX
8
0
10
843.2548
20
-8.7768
30
0.0
0
VERTEX
8
0
10
844.7704
20
-8.7354
30
0.0
0
VERTEX
8
0
10
846.2958
20
-8.6914
30
0.0
0
VERTEX
8
0
10
847.8306
20
-8.6450
30
0.0
0
VERTEX
8
0
10
849.3744
20
-8.5963
30
0.0
0
VERTEX
8
0
10
850.9268
20
-8.5452
30
0.0
0
VERTEX
8
0
10
852.4875
20
-8.4921
30
0.0
0
VERTEX
8
0
10
854.0560
20
-8.4368
30
0.0
0
VERTEX
8
0
10
855.6320
20
-8.3794
30
0.0
0
VERTEX
8
0
10
857.2150
20
-8.3202
30
0.0
0
VERTEX
8
0
10
858.8047
20
-8.2590
30
0.0
0
VERTEX
8
0
10
860.4007
20
-8.1960
30
0.0
0
VERTEX
8
0
10
862.0026
20
-8.1311
30
0.0
0
VERTEX
8
0
10
863.6100
20
-8.0646
30
0.0
0
VERTEX
8
0
10
865.2224
20
-7.9963
30
0.0
0
VERTEX
8
0
10
866.8395
20
-7.9264
30
0.0
0
VERTEX
8
0
10
868.4610
20
-7.8548
30
0.0
0
VERTEX
8
0
10
870.0862
20
-7.7817
30
0.0
0
VERTEX
8
0
10
871.7150
20
-7.7070
30
0.0
0
VERTEX
8
0
10
873.3468
20
-7.6308
30
0.0
0
VERTEX
8
0
10
874.9812
20
-7.5530
30
0.0
0
VERTEX
8
0
10
876.6179
20
-7.4738
30
0.0
0
VERTEX
8
0
10
878.2565
20
-7.3931
30
0.0
0
VERTEX
8
0
10
879.8965
20
-7.3110
30
0.0
0
VERTEX
8
0
10
881.5375
20
-7.2275
30
0.0
0
VERTEX
8
0
10
883.1791
20
-7.1426
30
0.0
0
VERTEX
8
0
10
884.8209
20
-7.0563
30
0.0
0
VERTEX
8
0
10
886.4625
20
-6.9688
30
0.0
0
VERTEX
8
0
10
888.1035
20
-6.8799
30
0.0
0
VERTEX
8
0
10
889.7435
20
-6.7899
30
0.0
0
VERTEX
8
0
10
891.3821
20
-6.6986
30
0.0
0
VERTEX
8
0
10
893.0188
20
-6.6062
30
0.0
0
VERTEX
8
0
10
894.6532
20
-6.5127
30
0.0
0
VERTEX
8
0
10
896.2850
20
-6.4182
30
0.0
0
VERTEX
8
0
10
897.9138
20
-6.3227
30
0.0
0
VERTEX
8
0
10
899.5390
20
-6.2262
30
0.0
0
VERTEX
8
0
10
901.1605
20
-6.1289
30
0.0
0
VERTEX
8
0
10
902.7776
20
-6.0309
30
0.0
0
VERTEX
8
0
10
904.3900
20
-5.9321
30
0.0
0
VERTEX
8
0
10
905.9974
20
-5.8327
30
0.0
0
VERTEX
8
0
10
907.5993
20
-5.7327
30
0.0
0
VERTEX
8
0
10
909.1953
20
-5.6323
30
0.0
0
VERTEX
8
0
10
910.7850
20
-5.5315
30
0.0
0
VERTEX
8
0
10
912.3680
20
-5.4304
30
0.0
0
VERTEX
8
0
10
913.9440
20
-5.3292
30
0.0
0
VERTEX
8
0
10
915.5125
20
-5.2278
30
0.0
0
VERTEX
8
0
10
917.0732
20
-5.1263
30
0.0
0
VERTEX
8
0
10
918.6256
20
-5.0250
30
0.0
0
VERTEX
8
0
10
920.1694
20
-4.9237
30
0.0
0
VERTEX
8
0
10
921.7042
20
-4.8227
30
0.0
0
VERTEX
8
0
10
923.2296
20
-4.7220
30
0.0
0
VERTEX
8
0
10
924.7452
20
-4.6217
30
0.0
0
VERTEX
8
0
10
926.2506
20
-4.5218
30
0.0
0
VERTEX
8
0
10
927.7455
20
-4.4224
30
0.0
0
VERTEX
8
0
10
929.2295
20
-4.3237
30
0.0
0
VERTEX
8
0
10
930.7023
20
-4.2255
30
0.0
0
VERTEX
8
0
10
932.1634
20
-4.1281
30
0.0
0
VERTEX
8
0
10
933.6125
20
-4.0314
30
0.0
0
VERTEX
8
0
10
935.0492
20
-3.9355
30
0.0
0
VERTEX
8
0
10
936.4732
20
-3.8404
30
0.0
0
VERTEX
8
0
10
937.8842
20
-3.7462
30
0.0
0
VERTEX
8
0
10
939.2817
20
-3.6528
30
0.0
0
VERTEX
8
0
10
940.6654
20
-3.5604
30
0.0
0
VERTEX
8
0
10
942.0350
20
-3.4689
30
0.0
0
VERTEX
8
0
10
943.3902
20
-3.3784
30
0.0
0
VERTEX
8
0
10
944.7305
20
-3.2888
30
0.0
0
VERTEX
8
0
10
946.0557
20
-3.2002
30
0.0
0
VERTEX
8
0
10
947.3654
20
-3.1126
30
0.0
0
VERTEX
8
0
10
948.6594
20
-3.0260
30
0.0
0
VERTEX
8
0
10
949.9372
20
-2.9403
30
0.0
0
VERTEX
8
0
10
951.1986
20
-2.8557
30
0.0
0
VERTEX
8
0
10
952.4433
20
-2.7720
30
0.0
0
VERTEX
8
0
10
953.6709
20
-2.6894
30
0.0
0
VERTEX
8
0
10
954.8811
20
-2.6077
30
0.0
0
VERTEX
8
0
10
956.0737
20
-2.5270
30
0.0
0
VERTEX
8
0
10
957.2483
20
-2.4473
30
0.0
0
VERTEX
8
0
10
958.4046
20
-2.3686
30
0.0
0
VERTEX
8
0
10
959.5425
20
-2.2909
30
0.0
0
VERTEX
8
0
10
960.6614
20
-2.2143
30
0.0
0
VERTEX
8
0
10
961.7613
20
-2.1387
30
0.0
0
VERTEX
8
0
10
962.8418
20
-2.0641
30
0.0
0
VERTEX
8
0
10
963.9027
20
-1.9906
30
0.0
0
VERTEX
8
0
10
964.9436
20
-1.9182
30
0.0
0
VERTEX
8
0
10
965.9643
20
-1.8469
30
0.0
0
VERTEX
8
0
10
966.9647
20
-1.7767
30
0.0
0
VERTEX
8
0
10
967.9443
20
-1.7077
30
0.0
0
VERTEX
8
0
10
968.9031
20
-1.6399
30
0.0
0
VERTEX
8
0
10
969.8407
20
-1.5734
30
0.0
0
VERTEX
8
0
10
970.7568
20
-1.5081
30
0.0
0
VERTEX
8
0
10
971.6514
20
-1.4441
30
0.0
0
VERTEX
8
0
10
972.5241
20
-1.3815
30
0.0
0
VERTEX
8
0
10
973.3748
20
-1.3202
30
0.0
0
VERTEX
8
0
10
974.2031
20
-1.2604
30
0.0
0
VERTEX
8
0
10
975.0091
20
-1.2021
30
0.0
0
VERTEX
8
0
10
975.7923
20
-1.1453
30
0.0
0
VERTEX
8
0
10
976.5526
20
-1.0901
30
0.0
0
VERTEX
8
0
10
977.2899
20
-1.0364
30
0.0
0
VERTEX
8
0
10
978.0039
20
-0.9844
30
0.0
0
VERTEX
8
0
10
978.6945
20
-0.9340
30
0.0
0
VERTEX
8
0
10
979.3615
20
-0.8854
30
0.0
0
VERTEX
8
0
10
980.0047
20
-0.8385
30
0.0
0
VERTEX
8
0
10
980.6241
20
-0.7934
30
0.0
0
VERTEX
8
0
10
981.2193
20
-0.7500
30
0.0
0
VERTEX
8
0
10
981.7903
20
-0.7085
30
0.0
0
VERTEX
8
0
10
982.3369
20
-0.6688
30
0.0
0
VERTEX
8
0
10
982.8590
20
-0.6310
30
0.0
0
VERTEX
8
0
10
983.3565
20
-0.5950
30
0.0
0
VERTEX
8
0
10
983.8292
20
-0.5609
30
0.0
0
VERTEX
8
0
10
984.2771
20
-0.5287
30
0.0
0
VERTEX
8
0
10
984.6999
20
-0.4983
30
0.0
0
VERTEX
8
0
10
985.0977
20
-0.4699
30
0.0
0
VERTEX
8
0
10
985.4702
20
-0.4433
30
0.0
0
VERTEX
8
0
10
985.8175
20
-0.4186
30
0.0
0
VERTEX
8
0
10
986.1394
20
-0.3958
30
0.0
0
VERTEX
8
0
10
986.4358
20
-0.3749
30
0.0
0
VERTEX
8
0
10
986.7067
20
-0.3558
30
0.0
0
VERTEX
8
0
10
986.9520
20
-0.3386
30
0.0
0
VERTEX
8
0
10
987.1717
20
-0.3232
30
0.0
0
VERTEX
8
0
10
987.3656
20
-0.3096
30
0.0
0
VERTEX
8
0
10
987.5338
20
-0.2979
30
0.0
0
VERTEX
8
0
10
987.6762
20
-0.2880
30
0.0
0
VERTEX
8
0
10
987.7927
20
-0.2800
30
0.0
0
VERTEX
8
0
10
987.8834
20
-0.2737
30
0.0
0
VERTEX
8
0
10
987.9482
20
-0.2692
30
0.0
0
VERTEX
8
0
10
987.9870
20
-0.2665
30
0.0
0
VERTEX
8
0
10
988.0000
20
-0.2656
30
0.0
0
SEQEND
0
CIRCLE
8
0
10
842.4000
20
3.6912
40
5.0000
0
TEXT
8
0
10
840.0000
20
-14.0000
40
4.0000
1
RIB 4/8  STA 536 MM  (CUT 2X)
0
POLYLINE
8
0
66
1
70
1
0
VERTEX
8
0
10
208.0000
20
-69.7344
30
0.0
0
VERTEX
8
0
10
207.9870
20
-69.7317
30
0.0
0
VERTEX
8
0
10
207.9482
20
-69.7237
30
0.0
0
VERTEX
8
0
10
207.8834
20
-69.7102
30
0.0
0
VERTEX
8
0
10
207.7927
20
-69.6915
30
0.0
0
VERTEX
8
0
10
207.6762
20
-69.6674
30
0.0
0
VERTEX
8
0
10
207.5338
20
-69.6379
30
0.0
0
VERTEX
8
0
10
207.3656
20
-69.6032
30
0.0
0
VERTEX
8
0
10
207.1717
20
-69.5632
30
0.0
0
VERTEX
8
0
10
206.9520
20
-69.5180
30
0.0
0
VERTEX
8
0
10
206.7067
20
-69.4676
30
0.0
0
VERTEX
8
0
10
206.4358
20
-69.4120
30
0.0
0
VERTEX
8
0
10
206.1394
20
-69.3513
30
0.0
0
VERTEX
8
0
10
205.8175
20
-69.2856
30
0.0
0
VERTEX
8
0
10
205.4702
20
-69.2148
30
0.0
0
VERTEX
8
0
10
205.0977
20
-69.1391
30
0.0
0
VERTEX
8
0
10
204.6999
20
-69.0584
30
0.0
0
VERTEX
8
0
10
204.2771
20
-68.9730
30
0.0
0
VERTEX
8
0
10
203.8292
20
-68.8827
30
0.0
0
VERTEX
8
0
10
203.3565
20
-68.7878
30
0.0
0
VERTEX
8
0
10
202.8590
20
-68.6882
30
0.0
0
VERTEX
8
0
10
202.3369
20
-68.5840
30
0.0
0
VERTEX
8
0
10
201.7903
20
-68.4754
30
0.0
0
VERTEX
8
0
10
201.2193
20
-68.3624
30
0.0
0
VERTEX
8
0
10
200.6241
20
-68.2450
30
0.0
0
VERTEX
8
0
10
200.0047
20
-68.1235
30
0.0
0
VERTEX
8
0
10
199.3615
20
-67.9977
30
0.0
0
VERTEX
8
0
10
198.6945
20
-67.8680
30
0.0
0
VERTEX
8
0
10
198.0039
20
-67.7342
30
0.0
0
VERTEX
8
0
10
197.2899
20
-67.5966
30
0.0
0
VERTEX
8
0
10
196.5526
20
-67.4553
30
0.0
0
VERTEX
8
0
10
195.7923
20
-67.3102
30
0.0
0
VERTEX
8
0
10
195.0091
20
-67.1616
30
0.0
0
VERTEX
8
0
10
194.2031
20
-67.0096
30
0.0
0
VERTEX
8
0
10
193.3748
20
-66.8541
30
0.0
0
VERTEX
8
0
10
192.5241
20
-66.6955
30
0.0
0
VERTEX
8
0
10
191.6514
20
-66.5336
30
0.0
0
VERTEX
8
0
10
190.7568
20
-66.3687
30
0.0
0
VERTEX
8
0
10
189.8407
20
-66.2009
30
0.0
0
VERTEX
8
0
10
188.9031
20
-66.0303
30
0.0
0
VERTEX
8
0
10
187.9443
20
-65.8570
30
0.0
0
VERTEX
8
0
10
186.9647
20
-65.6811
30
0.0
0
VERTEX
8
0
10
185.9643
20
-65.5027
30
0.0
0
VERTEX
8
0
10
184.9436
20
-65.3219
30
0.0
0
VERTEX
8
0
10
183.9027
20
-65.1389
30
0.0
0
VERTEX
8
0
10
182.8418
20
-64.9537
30
0.0
0
VERTEX
8
0
10
181.7613
20
-64.7666
30
0.0
0
VERTEX
8
0
10
180.6614
20
-64.5776
30
0.0
0
VERTEX
8
0
10
179.5425
20
-64.3868
30
0.0
0
VERTEX
8
0
10
178.4046
20
-64.1943
30
0.0
0
VERTEX
8
0
10
177.2483
20
-64.0004
30
0.0
0
VERTEX
8
0
10
176.0737
20
-63.8050
30
0.0
0
VERTEX
8
0
10
174.8811
20
-63.6084
30
0.0
0
VERTEX
8
0
10
173.6709
20
-63.4106
30
0.0
0
VERTEX
8
0
10
172.4433
20
-63.2117
30
0.0
0
VERTEX
8
0
10
171.1986
20
-63.0120
30
0.0
0
VERTEX
8
0
10
169.9372
20
-62.8115
30
0.0
0
VERTEX
8
0
10
168.6594
20
-62.6103
30
0.0
0
VERTEX
8
0
10
167.3654
20
-62.4087
30
0.0
0
VERTEX
8
0
10
166.0557
20
-62.2066
30
0.0
0
VERTEX
8
0
10
164.7305
20
-62.0042
30
0.0
0
VERTEX
8
0
10
163.3902
20
-61.8017
30
0.0
0
VERTEX
8
0
10
162.0350
20
-61.5991
30
0.0
0
VERTEX
8
0
10
160.6654
20
-61.3966
30
0.0
0
VERTEX
8
0
10
159.2817
20
-61.1944
30
0.0
0
VERTEX
8
0
10
157.8842
20
-60.9925
30
0.0
0
VERTEX
8
0
10
156.4732
20
-60.7910
30
0.0
0
VERTEX
8
0
10
155.0492
20
-60.5902
30
0.0
0
VERTEX
8
0
10
153.6125
20
-60.3900
30
0.0
0
VERTEX
8
0
10
152.1634
20
-60.1907
30
0.0
0
VERTEX
8
0
10
150.7023
20
-59.9922
30
0.0
0
VERTEX
8
0
10
149.2295
20
-59.7949
30
0.0
0
VERTEX
8
0
10
147.7455
20
-59.5987
30
0.0
0
VERTEX
8
0
10
146.2506
20
-59.4038
30
0.0
0
VERTEX
8
0
10
144.7452
20
-59.2103
30
0.0
0
VERTEX
8
0
10
143.2296
20
-59.0183
30
0.0
0
VERTEX
8
0
10
141.7042
20
-58.8279
30
0.0
0
VERTEX
8
0
10
140.1694
20
-58.6392
30
0.0
0
VERTEX
8
0
10
138.6256
20
-58.4524
30
0.0
0
VERTEX
8
0
10
137.0732
20
-58.2674
30
0.0
0
VERTEX
8
0
10
135.5125
20
-58.0846
30
0.0
0
VERTEX
8
0
10
133.9440
20
-57.9039
30
0.0
0
VERTEX
8
0
10
132.3680
20
-57.7254
30
0.0
0
VERTEX
8
0
10
130.7850
20
-57.5493
30
0.0
0
VERTEX
8
0
10
129.1953
20
-57.3757
30
0.0
0
VERTEX
8
0
10
127.5993
20
-57.2046
30
0.0
0
VERTEX
8
0
10
125.9974
20
-57.0362
30
0.0
0
VERTEX
8
0
10
124.3900
20
-56.8706
30
0.0
0
VERTEX
8
0
10
122.7776
20
-56.7078
30
0.0
0
VERTEX
8
0
10
121.1605
20
-56.5481
30
0.0
0
VERTEX
8
0
10
119.5390
20
-56.3914
30
0.0
0
VERTEX
8
0
10
117.9138
20
-56.2379
30
0.0
0
VERTEX
8
0
10
116.2850
20
-56.0877
30
0.0
0
VERTEX
8
0
10
114.6532
20
-55.9410
30
0.0
0
VERTEX
8
0
10
113.0188
20
-55.7977
30
0.0
0
VERTEX
8
0
10
111.3821
20
-55.6582
30
0.0
0
VERTEX
8
0
10
109.7435
20
-55.5224
30
0.0
0
VERTEX
8
0
10
108.1035
20
-55.3904
30
0.0
0
VERTEX
8
0
10
106.4625
20
-55.2625
30
0.0
0
VERTEX
8
0
10
104.8209
20
-55.1387
30
0.0
0
VERTEX
8
0
10
103.1791
20
-55.0192
30
0.0
0
VERTEX
8
0
10
101.5375
20
-54.9041
30
0.0
0
VERTEX
8
0
10
99.8965
20
-54.7934
30
0.0
0
VERTEX
8
0
10
98.2565
20
-54.6874
30
0.0
0
VERTEX
8
0
10
96.6179
20
-54.5862
30
0.0
0
VERTEX
8
0
10
94.9812
20
-54.4899
30
0.0
0
VERTEX
8
0
10
93.3468
20
-54.3987
30
0.0
0
VERTEX
8
0
10
91.7150
20
-54.3126
30
0.0
0
VERTEX
8
0
10
90.0862
20
-54.2319
30
0.0
0
VERTEX
8
0
10
88.4610
20
-54.1567
30
0.0
0
VERTEX
8
0
10
86.8395
20
-54.0870
30
0.0
0
VERTEX
8
0
10
85.2224
20
-54.0231
30
0.0
0
VERTEX
8
0
10
83.6100
20
-53.9650
30
0.0
0
VERTEX
8
0
10
82.0026
20
-53.9130
30
0.0
0
VERTEX
8
0
10
80.4007
20
-53.8671
30
0.0
0
VERTEX
8
0
10
78.8047
20
-53.8274
30
0.0
0
VERTEX
8
0
10
77.2150
20
-53.7941
30
0.0
0
VERTEX
8
0
10
75.6320
20
-53.7673
30
0.0
0
VERTEX
8
0
10
74.0560
20
-53.7471
30
0.0
0
VERTEX
8
0
10
72.4875
20
-53.7337
30
0.0
0
VERTEX
8
0
10
70.9268
20
-53.7270
30
0.0
0
VERTEX
8
0
10
69.3744
20
-53.7272
30
0.0
0
VERTEX
8
0
10
67.8306
20
-53.7344
30
0.0
0
VERTEX
8
0
10
66.2958
20
-53.7486
30
0.0
0
VERTEX
8
0
10
64.7704
20
-53.7700
30
0.0
0
VERTEX
8
0
10
63.2548
20
-53.7985
30
0.0
0
VERTEX
8
0
10
61.7494
20
-53.8342
30
0.0
0
VERTEX
8
0
10
60.2545
20
-53.8772
30
0.0
0
VERTEX
8
0
10
58.7705
20
-53.9274
30
0.0
0
VERTEX
8
0
10
57.2977
20
-53.9849
30
0.0
0
VERTEX
8
0
10
55.8366
20
-54.0496
30
0.0
0
VERTEX
8
0
10
54.3875
20
-54.1216
30
0.0
0
VERTEX
8
0
10
52.9508
20
-54.2009
30
0.0
0
VERTEX
8
0
10
51.5268
20
-54.2873
30
0.0
0
VERTEX
8
0
10
50.1158
20
-54.3809
30
0.0
0
VERTEX
8
0
10
48.7183
20
-54.4816
30
0.0
0
VERTEX
8
0
10
47.3346
20
-54.5893
30
0.0
0
VERTEX
8
0
10
45.9650
20
-54.7040
30
0.0
0
VERTEX
8
0
10
44.6098
20
-54.8255
30
0.0
0
VERTEX
8
0
10
43.2695
20
-54.9538
30
0.0
0
VERTEX
8
0
10
41.9443
20
-55.0888
30
0.0
0
VERTEX
8
0
10
40.6346
20
-55.2303
30
0.0
0
VERTEX
8
0
10
39.3406
20
-55.3783
30
0.0
0
VERTEX
8
0
10
38.0628
20
-55.5326
30
0.0
0
VERTEX
8
0
10
36.8014
20
-55.6930
30
0.0
0
VERTEX
8
0
10
35.5567
20
-55.8595
30
0.0
0
VERTEX
8
0
10
34.3291
20
-56.0319
30
0.0
0
VERTEX
8
0
10
33.1189
20
-56.2101
30
0.0
0
VERTEX
8
0
10
31.9263
20
-56.3938
30
0.0
0
VERTEX
8
0
10
30.7517
20
-56.5830
30
0.0
0
VERTEX
8
0
10
29.5954
20
-56.7776
30
0.0
0
VERTEX
8
0
10
28.4575
20
-56.9772
30
0.0
0
VERTEX
8
0
10
27.3386
20
-57.1819
30
0.0
0
VERTEX
8
0
10
26.2387
20
-57.3915
30
0.0
0
VERTEX
8
0
10
25.1582
20
-57.6057
30
0.0
0
VERTEX
8
0
10
24.0973
20
-57.8246
30
0.0
0
VERTEX
8
0
10
23.0564
20
-58.0478
30
0.0
0
VERTEX
8
0
10
22.0357
20
-58.2753
30
0.0
0
VERTEX
8
0
10
21.0353
20
-58.5069
30
0.0
0
VERTEX
8
0
10
20.0557
20
-58.7425
30
0.0
0
VERTEX
8
0
10
19.0969
20
-58.9820
30
0.0
0
VERTEX
8
0
10
18.1593
20
-59.2251
30
0.0
0
VERTEX
8
0
10
17.2432
20
-59.4719
30
0.0
0
VERTEX
8
0
10
16.3486
20
-59.7222
30
0.0
0
VERTEX
8
0
10
15.4759
20
-59.9757
30
0.0
0
VERTEX
8
0
10
14.6252
20
-60.2325
30
0.0
0
VERTEX
8
0
10
13.7969
20
-60.4924
30
0.0
0
VERTEX
8
0
10
12.9909
20
-60.7553
30
0.0
0
VERTEX
8
0
10
12.2077
20
-61.0210
30
0.0
0
VERTEX
8
0
10
11.4474
20
-61.2895
30
0.0
0
VERTEX
8
0
10
10.7101
20
-61.5606
30
0.0
0
VERTEX
8
0
10
9.9961
20
-61.8342
30
0.0
0
VERTEX
8
0
10
9.3055
20
-62.1102
30
0.0
0
VERTEX
8
0
10
8.6385
20
-62.3885
30
0.0
0
VERTEX
8
0
10
7.9953
20
-62.6690
30
0.0
0
VERTEX
8
0
10
7.3759
20
-62.9515
30
0.0
0
VERTEX
8
0
10
6.7807
20
-63.2359
30
0.0
0
VERTEX
8
0
10
6.2097
20
-63.5222
30
0.0
0
VERTEX
8
0
10
5.6631
20
-63.8101
30
0.0
0
VERTEX
8
0
10
5.1410
20
-64.0995
30
0.0
0
VERTEX
8
0
10
4.6435
20
-64.3904
30
0.0
0
VERTEX
8
0
10
4.1708
20
-64.6826
30
0.0
0
VERTEX
8
0
10
3.7229
20
-64.9759
30
0.0
0
VERTEX
8
0
10
3.3001
20
-65.2703
30
0.0
0
VERTEX
8
0
10
2.9023
20
-65.5655
30
0.0
0
VERTEX
8
0
10
2.5298
20
-65.8614
30
0.0
0
VERTEX
8
0
10
2.1825
20
-66.1579
30
0.0
0
VERTEX
8
0
10
1.8606
20
-66.4549
30
0.0
0
VERTEX
8
0
10
1.5642
20
-66.7521
30
0.0
0
VERTEX
8
0
10
1.2933
20
-67.0495
30
0.0
0
VERTEX
8
0
10
1.0480
20
-67.3469
30
0.0
0
VERTEX
8
0
10
0.8283
20
-67.6442
30
0.0
0
VERTEX
8
0
10
0.6344
20
-67.9411
30
0.0
0
VERTEX
8
0
10
0.4662
20
-68.2376
30
0.0
0
VERTEX
8
0
10
0.3238
20
-68.5335
30
0.0
0
VERTEX
8
0
10
0.2073
20
-68.8288
30
0.0
0
VERTEX
8
0
10
0.1166
20
-69.1231
30
0.0
0
VERTEX
8
0
10
0.0518
20
-69.4165
30
0.0
0
VERTEX
8
0
10
0.0130
20
-69.7089
30
0.0
0
VERTEX
8
0
10
0.0000
20
-70.0000
30
0.0
0
VERTEX
8
0
10
0.0130
20
-70.2786
30
0.0
0
VERTEX
8
0
10
0.0518
20
-70.5556
30
0.0
0
VERTEX
8
0
10
0.1166
20
-70.8307
30
0.0
0
VERTEX
8
0
10
0.2073
20
-71.1036
30
0.0
0
VERTEX
8
0
10
0.3238
20
-71.3740
30
0.0
0
VERTEX
8
0
10
0.4662
20
-71.6417
30
0.0
0
VERTEX
8
0
10
0.6344
20
-71.9063
30
0.0
0
VERTEX
8
0
10
0.8283
20
-72.1676
30
0.0
0
VERTEX
8
0
10
1.0480
20
-72.4254
30
0.0
0
VERTEX
8
0
10
1.2933
20
-72.6794
30
0.0
0
VERTEX
8
0
10
1.5642
20
-72.9294
30
0.0
0
VERTEX
8
0
10
1.8606
20
-73.1752
30
0.0
0
VERTEX
8
0
10
2.1825
20
-73.4167
30
0.0
0
VERTEX
8
0
10
2.5298
20
-73.6537
30
0.0
0
VERTEX
8
0
10
2.9023
20
-73.8860
30
0.0
0
VERTEX
8
0
10
3.3001
20
-74.1135
30
0.0
0
VERTEX
8
0
10
3.7229
20
-74.3361
30
0.0
0
VERTEX
8
0
10
4.1708
20
-74.5537
30
0.0
0
VERTEX
8
0
10
4.6435
20
-74.7662
30
0.0
0
VERTEX
8
0
10
5.1410
20
-74.9735
30
0.0
0
VERTEX
8
0
10
5.6631
20
-75.1756
30
0.0
0
VERTEX
8
0
10
6.2097
20
-75.3724
30
0.0
0
VERTEX
8
0
10
6.7807
20
-75.5639
30
0.0
0
VERTEX
8
0
10
7.3759
20
-75.7500
30
0.0
0
VERTEX
8
0
10
7.9953
20
-75.9308
30
0.0
0
VERTEX
8
0
10
8.6385
20
-76.1062
30
0.0
0
VERTEX
8
0
10
9.3055
20
-76.2762
30
0.0
0
VERTEX
8
0
10
9.9961
20
-76.4409
30
0.0
0
VERTEX
8
0
10
10.7101
20
-76.6002
30
0.0
0
VERTEX
8
0
10
11.4474
20
-76.7541
30
0.0
0
VERTEX
8
0
10
12.2077
20
-76.9028
30
0.0
0
VERTEX
8
0
10
12.9909
20
-77.0461
30
0.0
0
VERTEX
8
0
10
13.7969
20
-77.1841
30
0.0
0
VERTEX
8
0
10
14.6252
20
-77.3169
30
0.0
0
VERTEX
8
0
10
15.4759
20
-77.4445
30
0.0
0
VERTEX
8
0
10
16.3486
20
-77.5669
30
0.0
0
VERTEX
8
0
10
17.2432
20
-77.6841
30
0.0
0
VERTEX
8
0
10
18.1593
20
-77.7962
30
0.0
0
VERTEX
8
0
10
19.0969
20
-77.9031
30
0.0
0
VERTEX
8
0
10
20.0557
20
-78.0051
30
0.0
0
VERTEX
8
0
10
21.0353
20
-78.1019
30
0.0
0
VERTEX
8
0
10
22.0357
20
-78.1938
30
0.0
0
VERTEX
8
0
10
23.0564
20
-78.2807
30
0.0
0
VERTEX
8
0
10
24.0973
20
-78.3626
30
0.0
0
VERTEX
8
0
10
25.1582
20
-78.4397
30
0.0
0
VERTEX
8
0
10
26.2387
20
-78.5118
30
0.0
0
VERTEX
8
0
10
27.3386
20
-78.5791
30
0.0
0
VERTEX
8
0
10
28.4575
20
-78.6416
30
0.0
0
VERTEX
8
0
10
29.5954
20
-78.6994
30
0.0
0
VERTEX
8
0
10
30.7517
20
-78.7524
30
0.0
0
VERTEX
8
0
10
31.9263
20
-78.8007
30
0.0
0
VERTEX
8
0
10
33.1189
20
-78.8445
30
0.0
0
VERTEX
8
0
10
34.3291
20
-78.8836
30
0.0
0
VERTEX
8
0
10
35.5567
20
-78.9182
30
0.0
0
VERTEX
8
0
10
36.8014
20
-78.9483
30
0.0
0
VERTEX
8
0
10
38.0628
20
-78.9740
30
0.0
0
VERTEX
8
0
10
39.3406
20
-78.9953
30
0.0
0
VERTEX
8
0
10
40.6346
20
-79.0124
30
0.0
0
VERTEX
8
0
10
41.9443
20
-79.0253
30
0.0
0
VERTEX
8
0
10
43.2695
20
-79.0341
30
0.0
0
VERTEX
8
0
10
44.6098
20
-79.0388
30
0.0
0
VERTEX
8
0
10
45.9650
20
-79.0396
30
0.0
0
VERTEX
8
0
10
47.3346
20
-79.0365
30
0.0
0
VERTEX
8
0
10
48.7183
20
-79.0297
30
0.0
0
VERTEX
8
0
10
50.1158
20
-79.0192
30
0.0
0
VERTEX
8
0
10
51.5268
20
-79.0051
30
0.0
0
VERTEX
8
0
10
52.9508
20
-78.9876
30
0.0
0
VERTEX
8
0
10
54.3875
20
-78.9667
30
0.0
0
VERTEX
8
0
10
55.8366
20
-78.9426
30
0.0
0
VERTEX
8
0
10
57.2977
20
-78.9153
30
0.0
0
VERTEX
8
0
10
58.7705
20
-78.8850
30
0.0
0
VERTEX
8
0
10
60.2545
20
-78.8517
30
0.0
0
VERTEX
8
0
10
61.7494
20
-78.8156
30
0.0
0
VERTEX
8
0
10
63.2548
20
-78.7768
30
0.0
0
VERTEX
8
0
10
64.7704
20
-78.7354
30
0.0
0
VERTEX
8
0
10
66.2958
20
-78.6914
30
0.0
0
VERTEX
8
0
10
67.8306
20
-78.6450
30
0.0
0
VERTEX
8
0
10
69.3744
20
-78.5963
30
0.0
0
VERTEX
8
0
10
70.9268
20
-78.5452
30
0.0
0
VERTEX
8
0
10
72.4875
20
-78.4921
30
0.0
0
VERTEX
8
0
10
74.0560
20
-78.4368
30
0.0
0
VERTEX
8
0
10
75.6320
20
-78.3794
30
0.0
0
VERTEX
8
0
10
77.2150
20
-78.3202
30
0.0
0
VERTEX
8
0
10
78.8047
20
-78.2590
30
0.0
0
VERTEX
8
0
10
80.4007
20
-78.1960
30
0.0
0
VERTEX
8
0
10
82.0026
20
-78.1311
30
0.0
0
VERTEX
8
0
10
83.6100
20
-78.0646
30
0.0
0
VERTEX
8
0
10
85.2224
20
-77.9963
30
0.0
0
VERTEX
8
0
10
86.8395
20
-77.9264
30
0.0
0
VERTEX
8
0
10
88.4610
20
-77.8548
30
0.0
0
VERTEX
8
0
10
90.0862
20
-77.7817
30
0.0
0
VERTEX
8
0
10
91.7150
20
-77.7070
30
0.0
0
VERTEX
8
0
10
93.3468
20
-77.6308
30
0.0
0
VERTEX
8
0
10
94.9812
20
-77.5530
30
0.0
0
VERTEX
8
0
10
96.6179
20
-77.4738
30
0.0
0
VERTEX
8
0
10
98.2565
20
-77.3931
30
0.0
0
VERTEX
8
0
10
99.8965
20
-77.3110
30
0.0
0
VERTEX
8
0
10
101.5375
20
-77.2275
30
0.0
0
VERTEX
8
0
10
103.1791
20
-77.1426
30
0.0
0
VERTEX
8
0
10
104.8209
20
-77.0563
30
0.0
0
VERTEX
8
0
10
106.4625
20
-76.9688
30
0.0
0
VERTEX
8
0
10
108.1035
20
-76.8799
30
0.0
0
VERTEX
8
0
10
109.7435
20
-76.7899
30
0.0
0
VERTEX
8
0
10
111.3821
20
-76.6986
30
0.0
0
VERTEX
8
0
10
113.0188
20
-76.6062
30
0.0
0
VERTEX
8
0
10
114.6532
20
-76.5127
30
0.0
0
VERTEX
8
0
10
116.2850
20
-76.4182
30
0.0
0
VERTEX
8
0
10
117.9138
20
-76.3227
30
0.0
0
VERTEX
8
0
10
119.5390
20
-76.2262
30
0.0
0
VERTEX
8
0
10
121.1605
20
-76.1289
30
0.0
0
VERTEX
8
0
10
122.7776
20
-76.0309
30
0.0
0
VERTEX
8
0
10
124.3900
20
-75.9321
30
0.0
0
VERTEX
8
0
10
125.9974
20
-75.8327
30
0.0
0
VERTEX
8
0
10
127.5993
20
-75.7327
30
0.0
0
VERTEX
8
0
10
129.1953
20
-75.6323
30
0.0
0
VERTEX
8
0
10
130.7850
20
-75.5315
30
0.0
0
VERTEX
8
0
10
132.3680
20
-75.4304
30
0.0
0
VERTEX
8
0
10
133.9440
20
-75.3292
30
0.0
0
VERTEX
8
0
10
135.5125
20
-75.2278
30
0.0
0
VERTEX
8
0
10
137.0732
20
-75.1263
30
0.0
0
VERTEX
8
0
10
138.6256
20
-75.0250
30
0.0
0
VERTEX
8
0
10
140.1694
20
-74.9237
30
0.0
0
VERTEX
8
0
10
141.7042
20
-74.8227
30
0.0
0
VERTEX
8
0
10
143.2296
20
-74.7220
30
0.0
0
VERTEX
8
0
10
144.7452
20
-74.6217
30
0.0
0
VERTEX
8
0
10
146.2506
20
-74.5218
30
0.0
0
VERTEX
8
0
10
147.7455
20
-74.4224
30
0.0
0
VERTEX
8
0
10
149.2295
20
-74.3237
30
0.0
0
VERTEX
8
0
10
150.7023
20
-74.2255
30
0.0
0
VERTEX
8
0
10
152.1634
20
-74.1281
30
0.0
0
VERTEX
8
0
10
153.6125
20
-74.0314
30
0.0
0
VERTEX
8
0
10
155.0492
20
-73.9355
30
0.0
0
VERTEX
8
0
10
156.4732
20
-73.8404
30
0.0
0
VERTEX
8
0
10
157.8842
20
-73.7462
30
0.0
0
VERTEX
8
0
10
159.2817
20
-73.6528
30
0.0
0
VERTEX
8
0
10
160.6654
20
-73.5604
30
0.0
0
VERTEX
8
0
10
162.0350
20
-73.4689
30
0.0
0
VERTEX
8
0
10
163.3902
20
-73.3784
30
0.0
0
VERTEX
8
0
10
164.7305
20
-73.2888
30
0.0
0
VERTEX
8
0
10
166.0557
20
-73.2002
30
0.0
0
VERTEX
8
0
10
167.3654
20
-73.1126
30
0.0
0
VERTEX
8
0
10
168.6594
20
-73.0260
30
0.0
0
VERTEX
8
0
10
169.9372
20
-72.9403
30
0.0
0
VERTEX
8
0
10
171.1986
20
-72.8557
30
0.0
0
VERTEX
8
0
10
172.4433
20
-72.7720
30
0.0
0
VERTEX
8
0
10
173.6709
20
-72.6894
30
0.0
0
VERTEX
8
0
10
174.8811
20
-72.6077
30
0.0
0
VERTEX
8
0
10
176.0737
20
-72.5270
30
0.0
0
VERTEX
8
0
10
177.2483
20
-72.4473
30
0.0
0
VERTEX
8
0
10
178.4046
20
-72.3686
30
0.0
0
VERTEX
8
0
10
179.5425
20
-72.2909
30
0.0
0
VERTEX
8
0
10
180.6614
20
-72.2143
30
0.0
0
VERTEX
8
0
10
181.7613
20
-72.1387
30
0.0
0
VERTEX
8
0
10
182.8418
20
-72.0641
30
0.0
0
VERTEX
8
0
10
183.9027
20
-71.9906
30
0.0
0
VERTEX
8
0
10
184.9436
20
-71.9182
30
0.0
0
VERTEX
8
0
10
185.9643
20
-71.8469
30
0.0
0
VERTEX
8
0
10
186.9647
20
-71.7767
30
0.0
0
VERTEX
8
0
10
187.9443
20
-71.7077
30
0.0
0
VERTEX
8
0
10
188.9031
20
-71.6399
30
0.0
0
VERTEX
8
0
10
189.8407
20
-71.5734
30
0.0
0
VERTEX
8
0
10
190.7568
20
-71.5081
30
0.0
0
VERTEX
8
0
10
191.6514
20
-71.4441
30
0.0
0
VERTEX
8
0
10
192.5241
20
-71.3815
30
0.0
0
VERTEX
8
0
10
193.3748
20
-71.3202
30
0.0
0
VERTEX
8
0
10
194.2031
20
-71.2604
30
0.0
0
VERTEX
8
0
10
195.0091
20
-71.2021
30
0.0
0
VERTEX
8
0
10
195.7923
20
-71.1453
30
0.0
0
VERTEX
8
0
10
196.5526
20
-71.0901
30
0.0
0
VERTEX
8
0
10
197.2899
20
-71.0364
30
0.0
0
VERTEX
8
0
10
198.0039
20
-70.9844
30
0.0
0
VERTEX
8
0
10
198.6945
20
-70.9340
30
0.0
0
VERTEX
8
0
10
199.3615
20
-70.8854
30
0.0
0
VERTEX
8
0
10
200.0047
20
-70.8385
30
0.0
0
VERTEX
8
0
10
200.6241
20
-70.7934
30
0.0
0
VERTEX
8
0
10
201.2193
20
-70.7500
30
0.0
0
VERTEX
8
0
10
201.7903
20
-70.7085
30
0.0
0
VERTEX
8
0
10
202.3369
20
-70.6688
30
0.0
0
VERTEX
8
0
10
202.8590
20
-70.6310
30
0.0
0
VERTEX
8
0
10
203.3565
20
-70.5950
30
0.0
0
VERTEX
8
0
10
203.8292
20
-70.5609
30
0.0
0
VERTEX
8
0
10
204.2771
20
-70.5287
30
0.0
0
VERTEX
8
0
10
204.6999
20
-70.4983
30
0.0
0
VERTEX
8
0
10
205.0977
20
-70.4699
30
0.0
0
VERTEX
8
0
10
205.4702
20
-70.4433
30
0.0
0
VERTEX
8
0
10
205.8175
20
-70.4186
30
0.0
0
VERTEX
8
0
10
206.1394
20
-70.3958
30
0.0
0
VERTEX
8
0
10
206.4358
20
-70.3749
30
0.0
0
VERTEX
8
0
10
206.7067
20
-70.3558
30
0.0
0
VERTEX
8
0
10
206.9520
20
-70.3386
30
0.0
0
VERTEX
8
0
10
207.1717
20
-70.3232
30
0.0
0
VERTEX
8
0
10
207.3656
20
-70.3096
30
0.0
0
VERTEX
8
0
10
207.5338
20
-70.2979
30
0.0
0
VERTEX
8
0
10
207.6762
20
-70.2880
30
0.0
0
VERTEX
8
0
10
207.7927
20
-70.2800
30
0.0
0
VERTEX
8
0
10
207.8834
20
-70.2737
30
0.0
0
VERTEX
8
0
10
207.9482
20
-70.2692
30
0.0
0
VERTEX
8
0
10
207.9870
20
-70.2665
30
0.0
0
VERTEX
8
0
10
208.0000
20
-70.2656
30
0.0
0
SEQEND
0
CIRCLE
8
0
10
62.4000
20
-66.3088
40
5.0000
0
TEXT
8
0
10
60.0000
20
-84.0000
40
4.0000
1
RIB 5/8  STA 714 MM  (CUT 2X)
0
POLYLINE
8
0
66
1
70
1
0
VERTEX
8
0
10
468.0000
20
-69.7344
30
0.0
0
VERTEX
8
0
10
467.9870
20
-69.7317
30
0.0
0
VERTEX
8
0
10
467.9482
20
-69.7237
30
0.0
0
VERTEX
8
0
10
467.8834
20
-69.7102
30
0.0
0
VERTEX
8
0
10
467.7927
20
-69.6915
30
0.0
0
VERTEX
8
0
10
467.6762
20
-69.6674
30
0.0
0
VERTEX
8
0
10
467.5338
20
-69.6379
30
0.0
0
VERTEX
8
0
10
467.3656
20
-69.6032
30
0.0
0
VERTEX
8
0
10
467.1717
20
-69.5632
30
0.0
0
VERTEX
8
0
10
466.9520
20
-69.5180
30
0.0
0
VERTEX
8
0
10
466.7067
20
-69.4676
30
0.0
0
VERTEX
8
0
10
466.4358
20
-69.4120
30
0.0
0
VERTEX
8
0
10
466.1394
20
-69.3513
30
0.0
0
VERTEX
8
0
10
465.8175
20
-69.2856
30
0.0
0
VERTEX
8
0
10
465.4702
20
-69.2148
30
0.0
0
VERTEX
8
0
10
465.0977
20
-69.1391
30
0.0
0
VERTEX
8
0
10
464.6999
20
-69.0584
30
0.0
0
VERTEX
8
0
10
464.2771
20
-68.9730
30
0.0
0
VERTEX
8
0
10
463.8292
20
-68.8827
30
0.0
0
VERTEX
8
0
10
463.3565
20
-68.7878
30
0.0
0
VERTEX
8
0
10
462.8590
20
-68.6882
30
0.0
0
VERTEX
8
0
10
462.3369
20
-68.5840
30
0.0
0
VERTEX
8
0
10
461.7903
20
-68.4754
30
0.0
0
VERTEX
8
0
10
461.2193
20
-68.3624
30
0.0
0
VERTEX
8
0
10
460.6241
20
-68.2450
30
0.0
0
VERTEX
8
0
10
460.0047
20
-68.1235
30
0.0
0
VERTEX
8
0
10
459.3615
20
-67.9977
30
0.0
0
VERTEX
8
0
10
458.6945
20
-67.8680
30
0.0
0
VERTEX
8
0
10
458.0039
20
-67.7342
30
0.0
0
VERTEX
8
0
10
457.2899
20
-67.5966
30
0.0
0
VERTEX
8
0
10
456.5526
20
-67.4553
30
0.0
0
VERTEX
8
0
10
455.7923
20
-67.3102
30
0.0
0
VERTEX
8
0
10
455.0091
20
-67.1616
30
0.0
0
VERTEX
8
0
10
454.2031
20
-67.0096
30
0.0
0
VERTEX
8
0
10
453.3748
20
-66.8541
30
0.0
0
VERTEX
8
0
10
452.5241
20
-66.6955
30
0.0
0
VERTEX
8
0
10
451.6514
20
-66.5336
30
0.0
0
VERTEX
8
0
10
450.7568
20
-66.3687
30
0.0
0
VERTEX
8
0
10
449.8407
20
-66.2009
30
0.0
0
VERTEX
8
0
10
448.9031
20
-66.0303
30
0.0
0
VERTEX
8
0
10
447.9443
20
-65.8570
30
0.0
0
VERTEX
8
0
10
446.9647
20
-65.6811
30
0.0
0
VERTEX
8
0
10
445.9643
20
-65.5027
30
0.0
0
VERTEX
8
0
10
444.9436
20
-65.3219
30
0.0
0
VERTEX
8
0
10
443.9027
20
-65.1389
30
0.0
0
VERTEX
8
0
10
442.8418
20
-64.9537
30
0.0
0
VERTEX
8
0
10
441.7613
20
-64.7666
30
0.0
0
VERTEX
8
0
10
440.6614
20
-64.5776
30
0.0
0
VERTEX
8
0
10
439.5425
20
-64.3868
30
0.0
0
VERTEX
8
0
10
438.4046
20
-64.1943
30
0.0
0
VERTEX
8
0
10
437.2483
20
-64.0004
30
0.0
0
VERTEX
8
0
10
436.0737
20
-63.8050
30
0.0
0
VERTEX
8
0
10
434.8811
20
-63.6084
30
0.0
0
VERTEX
8
0
10
433.6709
20
-63.4106
30
0.0
0
VERTEX
8
0
10
432.4433
20
-63.2117
30
0.0
0
VERTEX
8
0
10
431.1986
20
-63.0120
30
0.0
0
VERTEX
8
0
10
429.9372
20
-62.8115
30
0.0
0
VERTEX
8
0
10
428.6594
20
-62.6103
30
0.0
0
VERTEX
8
0
10
427.3654
20
-62.4087
30
0.0
0
VERTEX
8
0
10
426.0557
20
-62.2066
30
0.0
0
VERTEX
8
0
10
424.7305
20
-62.0042
30
0.0
0
VERTEX
8
0
10
423.3902
20
-61.8017
30
0.0
0
VERTEX
8
0
10
422.0350
20
-61.5991
30
0.0
0
VERTEX
8
0
10
420.6654
20
-61.3966
30
0.0
0
VERTEX
8
0
10
419.2817
20
-61.1944
30
0.0
0
VERTEX
8
0
10
417.8842
20
-60.9925
30
0.0
0
VERTEX
8
0
10
416.4732
20
-60.7910
30
0.0
0
VERTEX
8
0
10
415.0492
20
-60.5902
30
0.0
0
VERTEX
8
0
10
413.6125
20
-60.3900
30
0.0
0
VERTEX
8
0
10
412.1634
20
-60.1907
30
0.0
0
VERTEX
8
0
10
410.7023
20
-59.9922
30
0.0
0
VERTEX
8
0
10
409.2295
20
-59.7949
30
0.0
0
VERTEX
8
0
10
407.7455
20
-59.5987
30
0.0
0
VERTEX
8
0
10
406.2506
20
-59.4038
30
0.0
0
VERTEX
8
0
10
404.7452
20
-59.2103
30
0.0
0
VERTEX
8
0
10
403.2296
20
-59.0183
30
0.0
0
VERTEX
8
0
10
401.7042
20
-58.8279
30
0.0
0
VERTEX
8
0
10
400.1694
20
-58.6392
30
0.0
0
VERTEX
8
0
10
398.6256
20
-58.4524
30
0.0
0
VERTEX
8
0
10
397.0732
20
-58.2674
30
0.0
0
VERTEX
8
0
10
395.5125
20
-58.0846
30
0.0
0
VERTEX
8
0
10
393.9440
20
-57.9039
30
0.0
0
VERTEX
8
0
10
392.3680
20
-57.7254
30
0.0
0
VERTEX
8
0
10
390.7850
20
-57.5493
30
0.0
0
VERTEX
8
0
10
389.1953
20
-57.3757
30
0.0
0
VERTEX
8
0
10
387.5993
20
-57.2046
30
0.0
0
VERTEX
8
0
10
385.9974
20
-57.0362
30
0.0
0
VERTEX
8
0
10
384.3900
20
-56.8706
30
0.0
0
VERTEX
8
0
10
382.7776
20
-56.7078
30
0.0
0
VERTEX
8
0
10
381.1605
20
-56.5481
30
0.0
0
VERTEX
8
0
10
379.5390
20
-56.3914
30
0.0
0
VERTEX
8
0
10
377.9138
20
-56.2379
30
0.0
0
VERTEX
8
0
10
376.2850
20
-56.0877
30
0.0
0
VERTEX
8
0
10
374.6532
20
-55.9410
30
0.0
0
VERTEX
8
0
10
373.0188
20
-55.7977
30
0.0
0
VERTEX
8
0
10
371.3821
20
-55.6582
30
0.0
0
VERTEX
8
0
10
369.7435
20
-55.5224
30
0.0
0
VERTEX
8
0
10
368.1035
20
-55.3904
30
0.0
0
VERTEX
8
0
10
366.4625
20
-55.2625
30
0.0
0
VERTEX
8
0
10
364.8209
20
-55.1387
30
0.0
0
VERTEX
8
0
10
363.1791
20
-55.0192
30
0.0
0
VERTEX
8
0
10
361.5375
20
-54.9041
30
0.0
0
VERTEX
8
0
10
359.8965
20
-54.7934
30
0.0
0
VERTEX
8
0
10
358.2565
20
-54.6874
30
0.0
0
VERTEX
8
0
10
356.6179
20
-54.5862
30
0.0
0
VERTEX
8
0
10
354.9812
20
-54.4899
30
0.0
0
VERTEX
8
0
10
353.3468
20
-54.3987
30
0.0
0
VERTEX
8
0
10
351.7150
20
-54.3126
30
0.0
0
VERTEX
8
0
10
350.0862
20
-54.2319
30
0.0
0
VERTEX
8
0
10
348.4610
20
-54.1567
30
0.0
0
VERTEX
8
0
10
346.8395
20
-54.0870
30
0.0
0
VERTEX
8
0
10
345.2224
20
-54.0231
30
0.0
0
VERTEX
8
0
10
343.6100
20
-53.9650
30
0.0
0
VERTEX
8
0
10
342.0026
20
-53.9130
30
0.0
0
VERTEX
8
0
10
340.4007
20
-53.8671
30
0.0
0
VERTEX
8
0
10
338.8047
20
-53.8274
30
0.0
0
VERTEX
8
0
10
337.2150
20
-53.7941
30
0.0
0
VERTEX
8
0
10
335.6320
20
-53.7673
30
0.0
0
VERTEX
8
0
10
334.0560
20
-53.7471
30
0.0
0
VERTEX
8
0
10
332.4875
20
-53.7337
30
0.0
0
VERTEX
8
0
10
330.9268
20
-53.7270
30
0.0
0
VERTEX
8
0
10
329.3744
20
-53.7272
30
0.0
0
VERTEX
8
0
10
327.8306
20
-53.7344
30
0.0
0
VERTEX
8
0
10
326.2958
20
-53.7486
30
0.0
0
VERTEX
8
0
10
324.7704
20
-53.7700
30
0.0
0
VERTEX
8
0
10
323.2548
20
-53.7985
30
0.0
0
VERTEX
8
0
10
321.7494
20
-53.8342
30
0.0
0
VERTEX
8
0
10
320.2545
20
-53.8772
30
0.0
0
VERTEX
8
0
10
318.7705
20
-53.9274
30
0.0
0
VERTEX
8
0
10
317.2977
20
-53.9849
30
0.0
0
VERTEX
8
0
10
315.8366
20
-54.0496
30
0.0
0
VERTEX
8
0
10
314.3875
20
-54.1216
30
0.0
0
VERTEX
8
0
10
312.9508
20
-54.2009
30
0.0
0
VERTEX
8
0
10
311.5268
20
-54.2873
30
0.0
0
VERTEX
8
0
10
310.1158
20
-54.3809
30
0.0
0
VERTEX
8
0
10
308.7183
20
-54.4816
30
0.0
0
VERTEX
8
0
10
307.3346
20
-54.5893
30
0.0
0
VERTEX
8
0
10
305.9650
20
-54.7040
30
0.0
0
VERTEX
8
0
10
304.6098
20
-54.8255
30
0.0
0
VERTEX
8
0
10
303.2695
20
-54.9538
30
0.0
0
VERTEX
8
0
10
301.9443
20
-55.0888
30
0.0
0
VERTEX
8
0
10
300.6346
20
-55.2303
30
0.0
0
VERTEX
8
0
10
299.3406
20
-55.3783
30
0.0
0
VERTEX
8
0
10
298.0628
20
-55.5326
30
0.0
0
VERTEX
8
0
10
296.8014
20
-55.6930
30
0.0
0
VERTEX
8
0
10
295.5567
20
-55.8595
30
0.0
0
VERTEX
8
0
10
294.3291
20
-56.0319
30
0.0
0
VERTEX
8
0
10
293.1189
20
-56.2101
30
0.0
0
VERTEX
8
0
10
291.9263
20
-56.3938
30
0.0
0
VERTEX
8
0
10
290.7517
20
-56.5830
30
0.0
0
VERTEX
8
0
10
289.5954
20
-56.7776
30
0.0
0
VERTEX
8
0
10
288.4575
20
-56.9772
30
0.0
0
VERTEX
8
0
10
287.3386
20
-57.1819
30
0.0
0
VERTEX
8
0
10
286.2387
20
-57.3915
30
0.0
0
VERTEX
8
0
10
285.1582
20
-57.6057
30
0.0
0
VERTEX
8
0
10
284.0973
20
-57.8246
30
0.0
0
VERTEX
8
0
10
283.0564
20
-58.0478
30
0.0
0
VERTEX
8
0
10
282.0357
20
-58.2753
30
0.0
0
VERTEX
8
0
10
281.0353
20
-58.5069
30
0.0
0
VERTEX
8
0
10
280.0557
20
-58.7425
30
0.0
0
VERTEX
8
0
10
279.0969
20
-58.9820
30
0.0
0
VERTEX
8
0
10
278.1593
20
-59.2251
30
0.0
0
VERTEX
8
0
10
277.2432
20
-59.4719
30
0.0
0
VERTEX
8
0
10
276.3486
20
-59.7222
30
0.0
0
VERTEX
8
0
10
275.4759
20
-59.9757
30
0.0
0
VERTEX
8
0
10
274.6252
20
-60.2325
30
0.0
0
VERTEX
8
0
10
273.7969
20
-60.4924
30
0.0
0
VERTEX
8
0
10
272.9909
20
-60.7553
30
0.0
0
VERTEX
8
0
10
272.2077
20
-61.0210
30
0.0
0
VERTEX
8
0
10
271.4474
20
-61.2895
30
0.0
0
VERTEX
8
0
10
270.7101
20
-61.5606
30
0.0
0
VERTEX
8
0
10
269.9961
20
-61.8342
30
0.0
0
VERTEX
8
0
10
269.3055
20
-62.1102
30
0.0
0
VERTEX
8
0
10
268.6385
20
-62.3885
30
0.0
0
VERTEX
8
0
10
267.9953
20
-62.6690
30
0.0
0
VERTEX
8
0
10
267.3759
20
-62.9515
30
0.0
0
VERTEX
8
0
10
266.7807
20
-63.2359
30
0.0
0
VERTEX
8
0
10
266.2097
20
-63.5222
30
0.0
0
VERTEX
8
0
10
265.6631
20
-63.8101
30
0.0
0
VERTEX
8
0
10
265.1410
20
-64.0995
30
0.0
0
VERTEX
8
0
10
264.6435
20
-64.3904
30
0.0
0
VERTEX
8
0
10
264.1708
20
-64.6826
30
0.0
0
VERTEX
8
0
10
263.7229
20
-64.9759
30
0.0
0
VERTEX
8
0
10
263.3001
20
-65.2703
30
0.0
0
VERTEX
8
0
10
262.9023
20
-65.5655
30
0.0
0
VERTEX
8
0
10
262.5298
20
-65.8614
30
0.0
0
VERTEX
8
0
10
262.1825
20
-66.1579
30
0.0
0
VERTEX
8
0
10
261.8606
20
-66.4549
30
0.0
0
VERTEX
8
0
10
261.5642
20
-66.7521
30
0.0
0
VERTEX
8
0
10
261.2933
20
-67.0495
30
0.0
0
VERTEX
8
0
10
261.0480
20
-67.3469
30
0.0
0
VERTEX
8
0
10
260.8283
20
-67.6442
30
0.0
0
VERTEX
8
0
10
260.6344
20
-67.9411
30
0.0
0
VERTEX
8
0
10
260.4662
20
-68.2376
30
0.0
0
VERTEX
8
0
10
260.3238
20
-68.5335
30
0.0
0
VERTEX
8
0
10
260.2073
20
-68.8288
30
0.0
0
VERTEX
8
0
10
260.1166
20
-69.1231
30
0.0
0
VERTEX
8
0
10
260.0518
20
-69.4165
30
0.0
0
VERTEX
8
0
10
260.0130
20
-69.7089
30
0.0
0
VERTEX
8
0
10
260.0000
20
-70.0000
30
0.0
0
VERTEX
8
0
10
260.0130
20
-70.2786
30
0.0
0
VERTEX
8
0
10
260.0518
20
-70.5556
30
0.0
0
VERTEX
8
0
10
260.1166
20
-70.8307
30
0.0
0
VERTEX
8
0
10
260.2073
20
-71.1036
30
0.0
0
VERTEX
8
0
10
260.3238
20
-71.3740
30
0.0
0
VERTEX
8
0
10
260.4662
20
-71.6417
30
0.0
0
VERTEX
8
0
10
260.6344
20
-71.9063
30
0.0
0
VERTEX
8
0
10
260.8283
20
-72.1676
30
0.0
0
VERTEX
8
0
10
261.0480
20
-72.4254
30
0.0
0
VERTEX
8
0
10
261.2933
20
-72.6794
30
0.0
0
VERTEX
8
0
10
261.5642
20
-72.9294
30
0.0
0
VERTEX
8
0
10
261.8606
20
-73.1752
30
0.0
0
VERTEX
8
0
10
262.1825
20
-73.4167
30
0.0
0
VERTEX
8
0
10
262.5298
20
-73.6537
30
0.0
0
VERTEX
8
0
10
262.9023
20
-73.8860
30
0.0
0
VERTEX
8
0
10
263.3001
20
-74.1135
30
0.0
0
VERTEX
8
0
10
263.7229
20
-74.3361
30
0.0
0
VERTEX
8
0
10
264.1708
20
-74.5537
30
0.0
0
VERTEX
8
0
10
264.6435
20
-74.7662
30
0.0
0
VERTEX
8
0
10
265.1410
20
-74.9735
30
0.0
0
VERTEX
8
0
10
265.6631
20
-75.1756
30
0.0
0
VERTEX
8
0
10
266.2097
20
-75.3724
30
0.0
0
VERTEX
8
0
10
266.7807
20
-75.5639
30
0.0
0
VERTEX
8
0
10
267.3759
20
-75.7500
30
0.0
0
VERTEX
8
0
10
267.9953
20
-75.9308
30
0.0
0
VERTEX
8
0
10
268.6385
20
-76.1062
30
0.0
0
VERTEX
8
0
10
269.3055
20
-76.2762
30
0.0
0
VERTEX
8
0
10
269.9961
20
-76.4409
30
0.0
0
VERTEX
8
0
10
270.7101
20
-76.6002
30
0.0
0
VERTEX
8
0
10
271.4474
20
-76.7541
30
0.0
0
VERTEX
8
0
10
272.2077
20
-76.9028
30
0.0
0
VERTEX
8
0
10
272.9909
20
-77.0461
30
0.0
0
VERTEX
8
0
10
273.7969
20
-77.1841
30
0.0
0
VERTEX
8
0
10
274.6252
20
-77.3169
30
0.0
0
VERTEX
8
0
10
275.4759
20
-77.4445
30
0.0
0
VERTEX
8
0
10
276.3486
20
-77.5669
30
0.0
0
VERTEX
8
0
10
277.2432
20
-77.6841
30
0.0
0
VERTEX
8
0
10
278.1593
20
-77.7962
30
0.0
0
VERTEX
8
0
10
279.0969
20
-77.9031
30
0.0
0
VERTEX
8
0
10
280.0557
20
-78.0051
30
0.0
0
VERTEX
8
0
10
281.0353
20
-78.1019
30
0.0
0
VERTEX
8
0
10
282.0357
20
-78.1938
30
0.0
0
VERTEX
8
0
10
283.0564
20
-78.2807
30
0.0
0
VERTEX
8
0
10
284.0973
20
-78.3626
30
0.0
0
VERTEX
8
0
10
285.1582
20
-78.4397
30
0.0
0
VERTEX
8
0
10
286.2387
20
-78.5118
30
0.0
0
VERTEX
8
0
10
287.3386
20
-78.5791
30
0.0
0
VERTEX
8
0
10
288.4575
20
-78.6416
30
0.0
0
VERTEX
8
0
10
289.5954
20
-78.6994
30
0.0
0
VERTEX
8
0
10
290.7517
20
-78.7524
30
0.0
0
VERTEX
8
0
10
291.9263
20
-78.8007
30
0.0
0
VERTEX
8
0
10
293.1189
20
-78.8445
30
0.0
0
VERTEX
8
0
10
294.3291
20
-78.8836
30
0.0
0
VERTEX
8
0
10
295.5567
20
-78.9182
30
0.0
0
VERTEX
8
0
10
296.8014
20
-78.9483
30
0.0
0
VERTEX
8
0
10
298.0628
20
-78.9740
30
0.0
0
VERTEX
8
0
10
299.3406
20
-78.9953
30
0.0
0
VERTEX
8
0
10
300.6346
20
-79.0124
30
0.0
0
VERTEX
8
0
10
301.9443
20
-79.0253
30
0.0
0
VERTEX
8
0
10
303.2695
20
-79.0341
30
0.0
0
VERTEX
8
0
10
304.6098
20
-79.0388
30
0.0
0
VERTEX
8
0
10
305.9650
20
-79.0396
30
0.0
0
VERTEX
8
0
10
307.3346
20
-79.0365
30
0.0
0
VERTEX
8
0
10
308.7183
20
-79.0297
30
0.0
0
VERTEX
8
0
10
310.1158
20
-79.0192
30
0.0
0
VERTEX
8
0
10
311.5268
20
-79.0051
30
0.0
0
VERTEX
8
0
10
312.9508
20
-78.9876
30
0.0
0
VERTEX
8
0
10
314.3875
20
-78.9667
30
0.0
0
VERTEX
8
0
10
315.8366
20
-78.9426
30
0.0
0
VERTEX
8
0
10
317.2977
20
-78.9153
30
0.0
0
VERTEX
8
0
10
318.7705
20
-78.8850
30
0.0
0
VERTEX
8
0
10
320.2545
20
-78.8517
30
0.0
0
VERTEX
8
0
10
321.7494
20
-78.8156
30
0.0
0
VERTEX
8
0
10
323.2548
20
-78.7768
30
0.0
0
VERTEX
8
0
10
324.7704
20
-78.7354
30
0.0
0
VERTEX
8
0
10
326.2958
20
-78.6914
30
0.0
0
VERTEX
8
0
10
327.8306
20
-78.6450
30
0.0
0
VERTEX
8
0
10
329.3744
20
-78.5963
30
0.0
0
VERTEX
8
0
10
330.9268
20
-78.5452
30
0.0
0
VERTEX
8
0
10
332.4875
20
-78.4921
30
0.0
0
VERTEX
8
0
10
334.0560
20
-78.4368
30
0.0
0
VERTEX
8
0
10
335.6320
20
-78.3794
30
0.0
0
VERTEX
8
0
10
337.2150
20
-78.3202
30
0.0
0
VERTEX
8
0
10
338.8047
20
-78.2590
30
0.0
0
VERTEX
8
0
10
340.4007
20
-78.1960
30
0.0
0
VERTEX
8
0
10
342.0026
20
-78.1311
30
0.0
0
VERTEX
8
0
10
343.6100
20
-78.0646
30
0.0
0
VERTEX
8
0
10
345.2224
20
-77.9963
30
0.0
0
VERTEX
8
0
10
346.8395
20
-77.9264
30
0.0
0
VERTEX
8
0
10
348.4610
20
-77.8548
30
0.0
0
VERTEX
8
0
10
350.0862
20
-77.7817
30
0.0
0
VERTEX
8
0
10
351.7150
20
-77.7070
30
0.0
0
VERTEX
8
0
10
353.3468
20
-77.6308
30
0.0
0
VERTEX
8
0
10
354.9812
20
-77.5530
30
0.0
0
VERTEX
8
0
10
356.6179
20
-77.4738
30
0.0
0
VERTEX
8
0
10
358.2565
20
-77.3931
30
0.0
0
VERTEX
8
0
10
359.8965
20
-77.3110
30
0.0
0
VERTEX
8
0
10
361.5375
20
-77.2275
30
0.0
0
VERTEX
8
0
10
363.1791
20
-77.1426
30
0.0
0
VERTEX
8
0
10
364.8209
20
-77.0563
30
0.0
0
VERTEX
8
0
10
366.4625
20
-76.9688
30
0.0
0
VERTEX
8
0
10
368.1035
20
-76.8799
30
0.0
0
VERTEX
8
0
10
369.7435
20
-76.7899
30
0.0
0
VERTEX
8
0
10
371.3821
20
-76.6986
30
0.0
0
VERTEX
8
0
10
373.0188
20
-76.6062
30
0.0
0
VERTEX
8
0
10
374.6532
20
-76.5127
30
0.0
0
VERTEX
8
0
10
376.2850
20
-76.4182
30
0.0
0
VERTEX
8
0
10
377.9138
20
-76.3227
30
0.0
0
VERTEX
8
0
10
379.5390
20
-76.2262
30
0.0
0
VERTEX
8
0
10
381.1605
20
-76.1289
30
0.0
0
VERTEX
8
0
10
382.7776
20
-76.0309
30
0.0
0
VERTEX
8
0
10
384.3900
20
-75.9321
30
0.0
0
VERTEX
8
0
10
385.9974
20
-75.8327
30
0.0
0
VERTEX
8
0
10
387.5993
20
-75.7327
30
0.0
0
VERTEX
8
0
10
389.1953
20
-75.6323
30
0.0
0
VERTEX
8
0
10
390.7850
20
-75.5315
30
0.0
0
VERTEX
8
0
10
392.3680
20
-75.4304
30
0.0
0
VERTEX
8
0
10
393.9440
20
-75.3292
30
0.0
0
VERTEX
8
0
10
395.5125
20
-75.2278
30
0.0
0
VERTEX
8
0
10
397.0732
20
-75.1263
30
0.0
0
VERTEX
8
0
10
398.6256
20
-75.0250
30
0.0
0
VERTEX
8
0
10
400.1694
20
-74.9237
30
0.0
0
VERTEX
8
0
10
401.7042
20
-74.8227
30
0.0
0
VERTEX
8
0
10
403.2296
20
-74.7220
30
0.0
0
VERTEX
8
0
10
404.7452
20
-74.6217
30
0.0
0
VERTEX
8
0
10
406.2506
20
-74.5218
30
0.0
0
VERTEX
8
0
10
407.7455
20
-74.4224
30
0.0
0
VERTEX
8
0
10
409.2295
20
-74.3237
30
0.0
0
VERTEX
8
0
10
410.7023
20
-74.2255
30
0.0
0
VERTEX
8
0
10
412.1634
20
-74.1281
30
0.0
0
VERTEX
8
0
10
413.6125
20
-74.0314
30
0.0
0
VERTEX
8
0
10
415.0492
20
-73.9355
30
0.0
0
VERTEX
8
0
10
416.4732
20
-73.8404
30
0.0
0
VERTEX
8
0
10
417.8842
20
-73.7462
30
0.0
0
VERTEX
8
0
10
419.2817
20
-73.6528
30
0.0
0
VERTEX
8
0
10
420.6654
20
-73.5604
30
0.0
0
VERTEX
8
0
10
422.0350
20
-73.4689
30
0.0
0
VERTEX
8
0
10
423.3902
20
-73.3784
30
0.0
0
VERTEX
8
0
10
424.7305
20
-73.2888
30
0.0
0
VERTEX
8
0
10
426.0557
20
-73.2002
30
0.0
0
VERTEX
8
0
10
427.3654
20
-73.1126
30
0.0
0
VERTEX
8
0
10
428.6594
20
-73.0260
30
0.0
0
VERTEX
8
0
10
429.9372
20
-72.9403
30
0.0
0
VERTEX
8
0
10
431.1986
20
-72.8557
30
0.0
0
VERTEX
8
0
10
432.4433
20
-72.7720
30
0.0
0
VERTEX
8
0
10
433.6709
20
-72.6894
30
0.0
0
VERTEX
8
0
10
434.8811
20
-72.6077
30
0.0
0
VERTEX
8
0
10
436.0737
20
-72.5270
30
0.0
0
VERTEX
8
0
10
437.2483
20
-72.4473
30
0.0
0
VERTEX
8
0
10
438.4046
20
-72.3686
30
0.0
0
VERTEX
8
0
10
439.5425
20
-72.2909
30
0.0
0
VERTEX
8
0
10
440.6614
20
-72.2143
30
0.0
0
VERTEX
8
0
10
441.7613
20
-72.1387
30
0.0
0
VERTEX
8
0
10
442.8418
20
-72.0641
30
0.0
0
VERTEX
8
0
10
443.9027
20
-71.9906
30
0.0
0
VERTEX
8
0
10
444.9436
20
-71.9182
30
0.0
0
VERTEX
8
0
10
445.9643
20
-71.8469
30
0.0
0
VERTEX
8
0
10
446.9647
20
-71.7767
30
0.0
0
VERTEX
8
0
10
447.9443
20
-71.7077
30
0.0
0
VERTEX
8
0
10
448.9031
20
-71.6399
30
0.0
0
VERTEX
8
0
10
449.8407
20
-71.5734
30
0.0
0
VERTEX
8
0
10
450.7568
20
-71.5081
30
0.0
0
VERTEX
8
0
10
451.6514
20
-71.4441
30
0.0
0
VERTEX
8
0
10
452.5241
20
-71.3815
30
0.0
0
VERTEX
8
0
10
453.3748
20
-71.3202
30
0.0
0
VERTEX
8
0
10
454.2031
20
-71.2604
30
0.0
0
VERTEX
8
0
10
455.0091
20
-71.2021
30
0.0
0
VERTEX
8
0
10
455.7923
20
-71.1453
30
0.0
0
VERTEX
8
0
10
456.5526
20
-71.0901
30
0.0
0
VERTEX
8
0
10
457.2899
20
-71.0364
30
0.0
0
VERTEX
8
0
10
458.0039
20
-70.9844
30
0.0
0
VERTEX
8
0
10
458.6945
20
-70.9340
30
0.0
0
VERTEX
8
0
10
459.3615
20
-70.8854
30
0.0
0
VERTEX
8
0
10
460.0047
20
-70.8385
30
0.0
0
VERTEX
8
0
10
460.6241
20
-70.7934
30
0.0
0
VERTEX
8
0
10
461.2193
20
-70.7500
30
0.0
0
VERTEX
8
0
10
461.7903
20
-70.7085
30
0.0
0
VERTEX
8
0
10
462.3369
20
-70.6688
30
0.0
0
VERTEX
8
0
10
462.8590
20
-70.6310
30
0.0
0
VERTEX
8
0
10
463.3565
20
-70.5950
30
0.0
0
VERTEX
8
0
10
463.8292
20
-70.5609
30
0.0
0
VERTEX
8
0
10
464.2771
20
-70.5287
30
0.0
0
VERTEX
8
0
10
464.6999
20
-70.4983
30
0.0
0
VERTEX
8
0
10
465.0977
20
-70.4699
30
0.0
0
VERTEX
8
0
10
465.4702
20
-70.4433
30
0.0
0
VERTEX
8
0
10
465.8175
20
-70.4186
30
0.0
0
VERTEX
8
0
10
466.1394
20
-70.3958
30
0.0
0
VERTEX
8
0
10
466.4358
20
-70.3749
30
0.0
0
VERTEX
8
0
10
466.7067
20
-70.3558
30
0.0
0
VERTEX
8
0
10
466.9520
20
-70.3386
30
0.0
0
VERTEX
8
0
10
467.1717
20
-70.3232
30
0.0
0
VERTEX
8
0
10
467.3656
20
-70.3096
30
0.0
0
VERTEX
8
0
10
467.5338
20
-70.2979
30
0.0
0
VERTEX
8
0
10
467.6762
20
-70.2880
30
0.0
0
VERTEX
8
0
10
467.7927
20
-70.2800
30
0.0
0
VERTEX
8
0
10
467.8834
20
-70.2737
30
0.0
0
VERTEX
8
0
10
467.9482
20
-70.2692
30
0.0
0
VERTEX
8
0
10
467.9870
20
-70.2665
30
0.0
0
VERTEX
8
0
10
468.0000
20
-70.2656
30
0.0
0
SEQEND
0
CIRCLE
8
0
10
322.4000
20
-66.3088
40
5.0000
0
TEXT
8
0
10
320.0000
20
-84.0000
40
4.0000
1
RIB 6/8  STA 893 MM  (CUT 2X)
0
POLYLINE
8
0
66
1
70
1
0
VERTEX
8
0
10
728.0000
20
-69.7344
30
0.0
0
VERTEX
8
0
10
727.9870
20
-69.7317
30
0.0
0
VERTEX
8
0
10
727.9482
20
-69.7237
30
0.0
0
VERTEX
8
0
10
727.8834
20
-69.7102
30
0.0
0
VERTEX
8
0
10
727.7927
20
-69.6915
30
0.0
0
VERTEX
8
0
10
727.6762
20
-69.6674
30
0.0
0
VERTEX
8
0
10
727.5338
20
-69.6379
30
0.0
0
VERTEX
8
0
10
727.3656
20
-69.6032
30
0.0
0
VERTEX
8
0
10
727.1717
20
-69.5632
30
0.0
0
VERTEX
8
0
10
726.9520
20
-69.5180
30
0.0
0
VERTEX
8
0
10
726.7067
20
-69.4676
30
0.0
0
VERTEX
8
0
10
726.4358
20
-69.4120
30
0.0
0
VERTEX
8
0
10
726.1394
20
-69.3513
30
0.0
0
VERTEX
8
0
10
725.8175
20
-69.2856
30
0.0
0
VERTEX
8
0
10
725.4702
20
-69.2148
30
0.0
0
VERTEX
8
0
10
725.0977
20
-69.1391
30
0.0
0
VERTEX
8
0
10
724.6999
20
-69.0584
30
0.0
0
VERTEX
8
0
10
724.2771
20
-68.9730
30
0.0
0
VERTEX
8
0
10
723.8292
20
-68.8827
30
0.0
0
VERTEX
8
0
10
723.3565
20
-68.7878
30
0.0
0
VERTEX
8
0
10
722.8590
20
-68.6882
30
0.0
0
VERTEX
8
0
10
722.3369
20
-68.5840
30
0.0
0
VERTEX
8
0
10
721.7903
20
-68.4754
30
0.0
0
VERTEX
8
0
10
721.2193
20
-68.3624
30
0.0
0
VERTEX
8
0
10
720.6241
20
-68.2450
30
0.0
0
VERTEX
8
0
10
720.0047
20
-68.1235
30
0.0
0
VERTEX
8
0
10
719.3615
20
-67.9977
30
0.0
0
VERTEX
8
0
10
718.6945
20
-67.8680
30
0.0
0
VERTEX
8
0
10
718.0039
20
-67.7342
30
0.0
0
VERTEX
8
0
10
717.2899
20
-67.5966
30
0.0
0
VERTEX
8
0
10
716.5526
20
-67.4553
30
0.0
0
VERTEX
8
0
10
715.7923
20
-67.3102
30
0.0
0
VERTEX
8
0
10
715.0091
20
-67.1616
30
0.0
0
VERTEX
8
0
10
714.2031
20
-67.0096
30
0.0
0
VERTEX
8
0
10
713.3748
20
-66.8541
30
0.0
0
VERTEX
8
0
10
712.5241
20
-66.6955
30
0.0
0
VERTEX
8
0
10
711.6514
20
-66.5336
30
0.0
0
VERTEX
8
0
10
710.7568
20
-66.3687
30
0.0
0
VERTEX
8
0
10
709.8407
20
-66.2009
30
0.0
0
VERTEX
8
0
10
708.9031
20
-66.0303
30
0.0
0
VERTEX
8
0
10
707.9443
20
-65.8570
30
0.0
0
VERTEX
8
0
10
706.9647
20
-65.6811
30
0.0
0
VERTEX
8
0
10
705.9643
20
-65.5027
30
0.0
0
VERTEX
8
0
10
704.9436
20
-65.3219
30
0.0
0
VERTEX
8
0
10
703.9027
20
-65.1389
30
0.0
0
VERTEX
8
0
10
702.8418
20
-64.9537
30
0.0
0
VERTEX
8
0
10
701.7613
20
-64.7666
30
0.0
0
VERTEX
8
0
10
700.6614
20
-64.5776
30
0.0
0
VERTEX
8
0
10
699.5425
20
-64.3868
30
0.0
0
VERTEX
8
0
10
698.4046
20
-64.1943
30
0.0
0
VERTEX
8
0
10
697.2483
20
-64.0004
30
0.0
0
VERTEX
8
0
10
696.0737
20
-63.8050
30
0.0
0
VERTEX
8
0
10
694.8811
20
-63.6084
30
0.0
0
VERTEX
8
0
10
693.6709
20
-63.4106
30
0.0
0
VERTEX
8
0
10
692.4433
20
-63.2117
30
0.0
0
VERTEX
8
0
10
691.1986
20
-63.0120
30
0.0
0
VERTEX
8
0
10
689.9372
20
-62.8115
30
0.0
0
VERTEX
8
0
10
688.6594
20
-62.6103
30
0.0
0
VERTEX
8
0
10
687.3654
20
-62.4087
30
0.0
0
VERTEX
8
0
10
686.0557
20
-62.2066
30
0.0
0
VERTEX
8
0
10
684.7305
20
-62.0042
30
0.0
0
VERTEX
8
0
10
683.3902
20
-61.8017
30
0.0
0
VERTEX
8
0
10
682.0350
20
-61.5991
30
0.0
0
VERTEX
8
0
10
680.6654
20
-61.3966
30
0.0
0
VERTEX
8
0
10
679.2817
20
-61.1944
30
0.0
0
VERTEX
8
0
10
677.8842
20
-60.9925
30
0.0
0
VERTEX
8
0
10
676.4732
20
-60.7910
30
0.0
0
VERTEX
8
0
10
675.0492
20
-60.5902
30
0.0
0
VERTEX
8
0
10
673.6125
20
-60.3900
30
0.0
0
VERTEX
8
0
10
672.1634
20
-60.1907
30
0.0
0
VERTEX
8
0
10
670.7023
20
-59.9922
30
0.0
0
VERTEX
8
0
10
669.2295
20
-59.7949
30
0.0
0
VERTEX
8
0
10
667.7455
20
-59.5987
30
0.0
0
VERTEX
8
0
10
666.2506
20
-59.4038
30
0.0
0
VERTEX
8
0
10
664.7452
20
-59.2103
30
0.0
0
VERTEX
8
0
10
663.2296
20
-59.0183
30
0.0
0
VERTEX
8
0
10
661.7042
20
-58.8279
30
0.0
0
VERTEX
8
0
10
660.1694
20
-58.6392
30
0.0
0
VERTEX
8
0
10
658.6256
20
-58.4524
30
0.0
0
VERTEX
8
0
10
657.0732
20
-58.2674
30
0.0
0
VERTEX
8
0
10
655.5125
20
-58.0846
30
0.0
0
VERTEX
8
0
10
653.9440
20
-57.9039
30
0.0
0
VERTEX
8
0
10
652.3680
20
-57.7254
30
0.0
0
VERTEX
8
0
10
650.7850
20
-57.5493
30
0.0
0
VERTEX
8
0
10
649.1953
20
-57.3757
30
0.0
0
VERTEX
8
0
10
647.5993
20
-57.2046
30
0.0
0
VERTEX
8
0
10
645.9974
20
-57.0362
30
0.0
0
VERTEX
8
0
10
644.3900
20
-56.8706
30
0.0
0
VERTEX
8
0
10
642.7776
20
-56.7078
30
0.0
0
VERTEX
8
0
10
641.1605
20
-56.5481
30
0.0
0
VERTEX
8
0
10
639.5390
20
-56.3914
30
0.0
0
VERTEX
8
0
10
637.9138
20
-56.2379
30
0.0
0
VERTEX
8
0
10
636.2850
20
-56.0877
30
0.0
0
VERTEX
8
0
10
634.6532
20
-55.9410
30
0.0
0
VERTEX
8
0
10
633.0188
20
-55.7977
30
0.0
0
VERTEX
8
0
10
631.3821
20
-55.6582
30
0.0
0
VERTEX
8
0
10
629.7435
20
-55.5224
30
0.0
0
VERTEX
8
0
10
628.1035
20
-55.3904
30
0.0
0
VERTEX
8
0
10
626.4625
20
-55.2625
30
0.0
0
VERTEX
8
0
10
624.8209
20
-55.1387
30
0.0
0
VERTEX
8
0
10
623.1791
20
-55.0192
30
0.0
0
VERTEX
8
0
10
621.5375
20
-54.9041
30
0.0
0
VERTEX
8
0
10
619.8965
20
-54.7934
30
0.0
0
VERTEX
8
0
10
618.2565
20
-54.6874
30
0.0
0
VERTEX
8
0
10
616.6179
20
-54.5862
30
0.0
0
VERTEX
8
0
10
614.9812
20
-54.4899
30
0.0
0
VERTEX
8
0
10
613.3468
20
-54.3987
30
0.0
0
VERTEX
8
0
10
611.7150
20
-54.3126
30
0.0
0
VERTEX
8
0
10
610.0862
20
-54.2319
30
0.0
0
VERTEX
8
0
10
608.4610
20
-54.1567
30
0.0
0
VERTEX
8
0
10
606.8395
20
-54.0870
30
0.0
0
VERTEX
8
0
10
605.2224
20
-54.0231
30
0.0
0
VERTEX
8
0
10
603.6100
20
-53.9650
30
0.0
0
VERTEX
8
0
10
602.0026
20
-53.9130
30
0.0
0
VERTEX
8
0
10
600.4007
20
-53.8671
30
0.0
0
VERTEX
8
0
10
598.8047
20
-53.8274
30
0.0
0
VERTEX
8
0
10
597.2150
20
-53.7941
30
0.0
0
VERTEX
8
0
10
595.6320
20
-53.7673
30
0.0
0
VERTEX
8
0
10
594.0560
20
-53.7471
30
0.0
0
VERTEX
8
0
10
592.4875
20
-53.7337
30
0.0
0
VERTEX
8
0
10
590.9268
20
-53.7270
30
0.0
0
VERTEX
8
0
10
589.3744
20
-53.7272
30
0.0
0
VERTEX
8
0
10
587.8306
20
-53.7344
30
0.0
0
VERTEX
8
0
10
586.2958
20
-53.7486
30
0.0
0
VERTEX
8
0
10
584.7704
20
-53.7700
30
0.0
0
VERTEX
8
0
10
583.2548
20
-53.7985
30
0.0
0
VERTEX
8
0
10
581.7494
20
-53.8342
30
0.0
0
VERTEX
8
0
10
580.2545
20
-53.8772
30
0.0
0
VERTEX
8
0
10
578.7705
20
-53.9274
30
0.0
0
VERTEX
8
0
10
577.2977
20
-53.9849
30
0.0
0
VERTEX
8
0
10
575.8366
20
-54.0496
30
0.0
0
VERTEX
8
0
10
574.3875
20
-54.1216
30
0.0
0
VERTEX
8
0
10
572.9508
20
-54.2009
30
0.0
0
VERTEX
8
0
10
571.5268
20
-54.2873
30
0.0
0
VERTEX
8
0
10
570.1158
20
-54.3809
30
0.0
0
VERTEX
8
0
10
568.7183
20
-54.4816
30
0.0
0
VERTEX
8
0
10
567.3346
20
-54.5893
30
0.0
0
VERTEX
8
0
10
565.9650
20
-54.7040
30
0.0
0
VERTEX
8
0
10
564.6098
20
-54.8255
30
0.0
0
VERTEX
8
0
10
563.2695
20
-54.9538
30
0.0
0
VERTEX
8
0
10
561.9443
20
-55.0888
30
0.0
0
VERTEX
8
0
10
560.6346
20
-55.2303
30
0.0
0
VERTEX
8
0
10
559.3406
20
-55.3783
30
0.0
0
VERTEX
8
0
10
558.0628
20
-55.5326
30
0.0
0
VERTEX
8
0
10
556.8014
20
-55.6930
30
0.0
0
VERTEX
8
0
10
555.5567
20
-55.8595
30
0.0
0
VERTEX
8
0
10
554.3291
20
-56.0319
30
0.0
0
VERTEX
8
0
10
553.1189
20
-56.2101
30
0.0
0
VERTEX
8
0
10
551.9263
20
-56.3938
30
0.0
0
VERTEX
8
0
10
550.7517
20
-56.5830
30
0.0
0
VERTEX
8
0
10
549.5954
20
-56.7776
30
0.0
0
VERTEX
8
0
10
548.4575
20
-56.9772
30
0.0
0
VERTEX
8
0
10
547.3386
20
-57.1819
30
0.0
0
VERTEX
8
0
10
546.2387
20
-57.3915
30
0.0
0
VERTEX
8
0
10
545.1582
20
-57.6057
30
0.0
0
VERTEX
8
0
10
544.0973
20
-57.8246
30
0.0
0
VERTEX
8
0
10
543.0564
20
-58.0478
30
0.0
0
VERTEX
8
0
10
542.0357
20
-58.2753
30
0.0
0
VERTEX
8
0
10
541.0353
20
-58.5069
30
0.0
0
VERTEX
8
0
10
540.0557
20
-58.7425
30
0.0
0
VERTEX
8
0
10
539.0969
20
-58.9820
30
0.0
0
VERTEX
8
0
10
538.1593
20
-59.2251
30
0.0
0
VERTEX
8
0
10
537.2432
20
-59.4719
30
0.0
0
VERTEX
8
0
10
536.3486
20
-59.7222
30
0.0
0
VERTEX
8
0
10
535.4759
20
-59.9757
30
0.0
0
VERTEX
8
0
10
534.6252
20
-60.2325
30
0.0
0
VERTEX
8
0
10
533.7969
20
-60.4924
30
0.0
0
VERTEX
8
0
10
532.9909
20
-60.7553
30
0.0
0
VERTEX
8
0
10
532.2077
20
-61.0210
30
0.0
0
VERTEX
8
0
10
531.4474
20
-61.2895
30
0.0
0
VERTEX
8
0
10
530.7101
20
-61.5606
30
0.0
0
VERTEX
8
0
10
529.9961
20
-61.8342
30
0.0
0
VERTEX
8
0
10
529.3055
20
-62.1102
30
0.0
0
VERTEX
8
0
10
528.6385
20
-62.3885
30
0.0
0
VERTEX
8
0
10
527.9953
20
-62.6690
30
0.0
0
VERTEX
8
0
10
527.3759
20
-62.9515
30
0.0
0
VERTEX
8
0
10
526.7807
20
-63.2359
30
0.0
0
VERTEX
8
0
10
526.2097
20
-63.5222
30
0.0
0
VERTEX
8
0
10
525.6631
20
-63.8101
30
0.0
0
VERTEX
8
0
10
525.1410
20
-64.0995
30
0.0
0
VERTEX
8
0
10
524.6435
20
-64.3904
30
0.0
0
VERTEX
8
0
10
524.1708
20
-64.6826
30
0.0
0
VERTEX
8
0
10
523.7229
20
-64.9759
30
0.0
0
VERTEX
8
0
10
523.3001
20
-65.2703
30
0.0
0
VERTEX
8
0
10
522.9023
20
-65.5655
30
0.0
0
VERTEX
8
0
10
522.5298
20
-65.8614
30
0.0
0
VERTEX
8
0
10
522.1825
20
-66.1579
30
0.0
0
VERTEX
8
0
10
521.8606
20
-66.4549
30
0.0
0
VERTEX
8
0
10
521.5642
20
-66.7521
30
0.0
0
VERTEX
8
0
10
521.2933
20
-67.0495
30
0.0
0
VERTEX
8
0
10
521.0480
20
-67.3469
30
0.0
0
VERTEX
8
0
10
520.8283
20
-67.6442
30
0.0
0
VERTEX
8
0
10
520.6344
20
-67.9411
30
0.0
0
VERTEX
8
0
10
520.4662
20
-68.2376
30
0.0
0
VERTEX
8
0
10
520.3238
20
-68.5335
30
0.0
0
VERTEX
8
0
10
520.2073
20
-68.8288
30
0.0
0
VERTEX
8
0
10
520.1166
20
-69.1231
30
0.0
0
VERTEX
8
0
10
520.0518
20
-69.4165
30
0.0
0
VERTEX
8
0
10
520.0130
20
-69.7089
30
0.0
0
VERTEX
8
0
10
520.0000
20
-70.0000
30
0.0
0
VERTEX
8
0
10
520.0130
20
-70.2786
30
0.0
0
VERTEX
8
0
10
520.0518
20
-70.5556
30
0.0
0
VERTEX
8
0
10
520.1166
20
-70.8307
30
0.0
0
VERTEX
8
0
10
520.2073
20
-71.1036
30
0.0
0
VERTEX
8
0
10
520.3238
20
-71.3740
30
0.0
0
VERTEX
8
0
10
520.4662
20
-71.6417
30
0.0
0
VERTEX
8
0
10
520.6344
20
-71.9063
30
0.0
0
VERTEX
8
0
10
520.8283
20
-72.1676
30
0.0
0
VERTEX
8
0
10
521.0480
20
-72.4254
30
0.0
0
VERTEX
8
0
10
521.2933
20
-72.6794
30
0.0
0
VERTEX
8
0
10
521.5642
20
-72.9294
30
0.0
0
VERTEX
8
0
10
521.8606
20
-73.1752
30
0.0
0
VERTEX
8
0
10
522.1825
20
-73.4167
30
0.0
0
VERTEX
8
0
10
522.5298
20
-73.6537
30
0.0
0
VERTEX
8
0
10
522.9023
20
-73.8860
30
0.0
0
VERTEX
8
0
10
523.3001
20
-74.1135
30
0.0
0
VERTEX
8
0
10
523.7229
20
-74.3361
30
0.0
0
VERTEX
8
0
10
524.1708
20
-74.5537
30
0.0
0
VERTEX
8
0
10
524.6435
20
-74.7662
30
0.0
0
VERTEX
8
0
10
525.1410
20
-74.9735
30
0.0
0
VERTEX
8
0
10
525.6631
20
-75.1756
30
0.0
0
VERTEX
8
0
10
526.2097
20
-75.3724
30
0.0
0
VERTEX
8
0
10
526.7807
20
-75.5639
30
0.0
0
VERTEX
8
0
10
527.3759
20
-75.7500
30
0.0
0
VERTEX
8
0
10
527.9953
20
-75.9308
30
0.0
0
VERTEX
8
0
10
528.6385
20
-76.1062
30
0.0
0
VERTEX
8
0
10
529.3055
20
-76.2762
30
0.0
0
VERTEX
8
0
10
529.9961
20
-76.4409
30
0.0
0
VERTEX
8
0
10
530.7101
20
-76.6002
30
0.0
0
VERTEX
8
0
10
531.4474
20
-76.7541
30
0.0
0
VERTEX
8
0
10
532.2077
20
-76.9028
30
0.0
0
VERTEX
8
0
10
532.9909
20
-77.0461
30
0.0
0
VERTEX
8
0
10
533.7969
20
-77.1841
30
0.0
0
VERTEX
8
0
10
534.6252
20
-77.3169
30
0.0
0
VERTEX
8
0
10
535.4759
20
-77.4445
30
0.0
0
VERTEX
8
0
10
536.3486
20
-77.5669
30
0.0
0
VERTEX
8
0
10
537.2432
20
-77.6841
30
0.0
0
VERTEX
8
0
10
538.1593
20
-77.7962
30
0.0
0
VERTEX
8
0
10
539.0969
20
-77.9031
30
0.0
0
VERTEX
8
0
10
540.0557
20
-78.0051
30
0.0
0
VERTEX
8
0
10
541.0353
20
-78.1019
30
0.0
0
VERTEX
8
0
10
542.0357
20
-78.1938
30
0.0
0
VERTEX
8
0
10
543.0564
20
-78.2807
30
0.0
0
VERTEX
8
0
10
544.0973
20
-78.3626
30
0.0
0
VERTEX
8
0
10
545.1582
20
-78.4397
30
0.0
0
VERTEX
8
0
10
546.2387
20
-78.5118
30
0.0
0
VERTEX
8
0
10
547.3386
20
-78.5791
30
0.0
0
VERTEX
8
0
10
548.4575
20
-78.6416
30
0.0
0
VERTEX
8
0
10
549.5954
20
-78.6994
30
0.0
0
VERTEX
8
0
10
550.7517
20
-78.7524
30
0.0
0
VERTEX
8
0
10
551.9263
20
-78.8007
30
0.0
0
VERTEX
8
0
10
553.1189
20
-78.8445
30
0.0
0
VERTEX
8
0
10
554.3291
20
-78.8836
30
0.0
0
VERTEX
8
0
10
555.5567
20
-78.9182
30
0.0
0
VERTEX
8
0
10
556.8014
20
-78.9483
30
0.0
0
VERTEX
8
0
10
558.0628
20
-78.9740
30
0.0
0
VERTEX
8
0
10
559.3406
20
-78.9953
30
0.0
0
VERTEX
8
0
10
560.6346
20
-79.0124
30
0.0
0
VERTEX
8
0
10
561.9443
20
-79.0253
30
0.0
0
VERTEX
8
0
10
563.2695
20
-79.0341
30
0.0
0
VERTEX
8
0
10
564.6098
20
-79.0388
30
0.0
0
VERTEX
8
0
10
565.9650
20
-79.0396
30
0.0
0
VERTEX
8
0
10
567.3346
20
-79.0365
30
0.0
0
VERTEX
8
0
10
568.7183
20
-79.0297
30
0.0
0
VERTEX
8
0
10
570.1158
20
-79.0192
30
0.0
0
VERTEX
8
0
10
571.5268
20
-79.0051
30
0.0
0
VERTEX
8
0
10
572.9508
20
-78.9876
30
0.0
0
VERTEX
8
0
10
574.3875
20
-78.9667
30
0.0
0
VERTEX
8
0
10
575.8366
20
-78.9426
30
0.0
0
VERTEX
8
0
10
577.2977
20
-78.9153
30
0.0
0
VERTEX
8
0
10
578.7705
20
-78.8850
30
0.0
0
VERTEX
8
0
10
580.2545
20
-78.8517
30
0.0
0
VERTEX
8
0
10
581.7494
20
-78.8156
30
0.0
0
VERTEX
8
0
10
583.2548
20
-78.7768
30
0.0
0
VERTEX
8
0
10
584.7704
20
-78.7354
30
0.0
0
VERTEX
8
0
10
586.2958
20
-78.6914
30
0.0
0
VERTEX
8
0
10
587.8306
20
-78.6450
30
0.0
0
VERTEX
8
0
10
589.3744
20
-78.5963
30
0.0
0
VERTEX
8
0
10
590.9268
20
-78.5452
30
0.0
0
VERTEX
8
0
10
592.4875
20
-78.4921
30
0.0
0
VERTEX
8
0
10
594.0560
20
-78.4368
30
0.0
0
VERTEX
8
0
10
595.6320
20
-78.3794
30
0.0
0
VERTEX
8
0
10
597.2150
20
-78.3202
30
0.0
0
VERTEX
8
0
10
598.8047
20
-78.2590
30
0.0
0
VERTEX
8
0
10
600.4007
20
-78.1960
30
0.0
0
VERTEX
8
0
10
602.0026
20
-78.1311
30
0.0
0
VERTEX
8
0
10
603.6100
20
-78.0646
30
0.0
0
VERTEX
8
0
10
605.2224
20
-77.9963
30
0.0
0
VERTEX
8
0
10
606.8395
20
-77.9264
30
0.0
0
VERTEX
8
0
10
608.4610
20
-77.8548
30
0.0
0
VERTEX
8
0
10
610.0862
20
-77.7817
30
0.0
0
VERTEX
8
0
10
611.7150
20
-77.7070
30
0.0
0
VERTEX
8
0
10
613.3468
20
-77.6308
30
0.0
0
VERTEX
8
0
10
614.9812
20
-77.5530
30
0.0
0
VERTEX
8
0
10
616.6179
20
-77.4738
30
0.0
0
VERTEX
8
0
10
618.2565
20
-77.3931
30
0.0
0
VERTEX
8
0
10
619.8965
20
-77.3110
30
0.0
0
VERTEX
8
0
10
621.5375
20
-77.2275
30
0.0
0
VERTEX
8
0
10
623.1791
20
-77.1426
30
0.0
0
VERTEX
8
0
10
624.8209
20
-77.0563
30
0.0
0
VERTEX
8
0
10
626.4625
20
-76.9688
30
0.0
0
VERTEX
8
0
10
628.1035
20
-76.8799
30
0.0
0
VERTEX
8
0
10
629.7435
20
-76.7899
30
0.0
0
VERTEX
8
0
10
631.3821
20
-76.6986
30
0.0
0
VERTEX
8
0
10
633.0188
20
-76.6062
30
0.0
0
VERTEX
8
0
10
634.6532
20
-76.5127
30
0.0
0
VERTEX
8
0
10
636.2850
20
-76.4182
30
0.0
0
VERTEX
8
0
10
637.9138
20
-76.3227
30
0.0
0
VERTEX
8
0
10
639.5390
20
-76.2262
30
0.0
0
VERTEX
8
0
10
641.1605
20
-76.1289
30
0.0
0
VERTEX
8
0
10
642.7776
20
-76.0309
30
0.0
0
VERTEX
8
0
10
644.3900
20
-75.9321
30
0.0
0
VERTEX
8
0
10
645.9974
20
-75.8327
30
0.0
0
VERTEX
8
0
10
647.5993
20
-75.7327
30
0.0
0
VERTEX
8
0
10
649.1953
20
-75.6323
30
0.0
0
VERTEX
8
0
10
650.7850
20
-75.5315
30
0.0
0
VERTEX
8
0
10
652.3680
20
-75.4304
30
0.0
0
VERTEX
8
0
10
653.9440
20
-75.3292
30
0.0
0
VERTEX
8
0
10
655.5125
20
-75.2278
30
0.0
0
VERTEX
8
0
10
657.0732
20
-75.1263
30
0.0
0
VERTEX
8
0
10
658.6256
20
-75.0250
30
0.0
0
VERTEX
8
0
10
660.1694
20
-74.9237
30
0.0
0
VERTEX
8
0
10
661.7042
20
-74.8227
30
0.0
0
VERTEX
8
0
10
663.2296
20
-74.7220
30
0.0
0
VERTEX
8
0
10
664.7452
20
-74.6217
30
0.0
0
VERTEX
8
0
10
666.2506
20
-74.5218
30
0.0
0
VERTEX
8
0
10
667.7455
20
-74.4224
30
0.0
0
VERTEX
8
0
10
669.2295
20
-74.3237
30
0.0
0
VERTEX
8
0
10
670.7023
20
-74.2255
30
0.0
0
VERTEX
8
0
10
672.1634
20
-74.1281
30
0.0
0
VERTEX
8
0
10
673.6125
20
-74.0314
30
0.0
0
VERTEX
8
0
10
675.0492
20
-73.9355
30
0.0
0
VERTEX
8
0
10
676.4732
20
-73.8404
30
0.0
0
VERTEX
8
0
10
677.8842
20
-73.7462
30
0.0
0
VERTEX
8
0
10
679.2817
20
-73.6528
30
0.0
0
VERTEX
8
0
10
680.6654
20
-73.5604
30
0.0
0
VERTEX
8
0
10
682.0350
20
-73.4689
30
0.0
0
VERTEX
8
0
10
683.3902
20
-73.3784
30
0.0
0
VERTEX
8
0
10
684.7305
20
-73.2888
30
0.0
0
VERTEX
8
0
10
686.0557
20
-73.2002
30
0.0
0
VERTEX
8
0
10
687.3654
20
-73.1126
30
0.0
0
VERTEX
8
0
10
688.6594
20
-73.0260
30
0.0
0
VERTEX
8
0
10
689.9372
20
-72.9403
30
0.0
0
VERTEX
8
0
10
691.1986
20
-72.8557
30
0.0
0
VERTEX
8
0
10
692.4433
20
-72.7720
30
0.0
0
VERTEX
8
0
10
693.6709
20
-72.6894
30
0.0
0
VERTEX
8
0
10
694.8811
20
-72.6077
30
0.0
0
VERTEX
8
0
10
696.0737
20
-72.5270
30
0.0
0
VERTEX
8
0
10
697.2483
20
-72.4473
30
0.0
0
VERTEX
8
0
10
698.4046
20
-72.3686
30
0.0
0
VERTEX
8
0
10
699.5425
20
-72.2909
30
0.0
0
VERTEX
8
0
10
700.6614
20
-72.2143
30
0.0
0
VERTEX
8
0
10
701.7613
20
-72.1387
30
0.0
0
VERTEX
8
0
10
702.8418
20
-72.0641
30
0.0
0
VERTEX
8
0
10
703.9027
20
-71.9906
30
0.0
0
VERTEX
8
0
10
704.9436
20
-71.9182
30
0.0
0
VERTEX
8
0
10
705.9643
20
-71.8469
30
0.0
0
VERTEX
8
0
10
706.9647
20
-71.7767
30
0.0
0
VERTEX
8
0
10
707.9443
20
-71.7077
30
0.0
0
VERTEX
8
0
10
708.9031
20
-71.6399
30
0.0
0
VERTEX
8
0
10
709.8407
20
-71.5734
30
0.0
0
VERTEX
8
0
10
710.7568
20
-71.5081
30
0.0
0
VERTEX
8
0
10
711.6514
20
-71.4441
30
0.0
0
VERTEX
8
0
10
712.5241
20
-71.3815
30
0.0
0
VERTEX
8
0
10
713.3748
20
-71.3202
30
0.0
0
VERTEX
8
0
10
714.2031
20
-71.2604
30
0.0
0
VERTEX
8
0
10
715.0091
20
-71.2021
30
0.0
0
VERTEX
8
0
10
715.7923
20
-71.1453
30
0.0
0
VERTEX
8
0
10
716.5526
20
-71.0901
30
0.0
0
VERTEX
8
0
10
717.2899
20
-71.0364
30
0.0
0
VERTEX
8
0
10
718.0039
20
-70.9844
30
0.0
0
VERTEX
8
0
10
718.6945
20
-70.9340
30
0.0
0
VERTEX
8
0
10
719.3615
20
-70.8854
30
0.0
0
VERTEX
8
0
10
720.0047
20
-70.8385
30
0.0
0
VERTEX
8
0
10
720.6241
20
-70.7934
30
0.0
0
VERTEX
8
0
10
721.2193
20
-70.7500
30
0.0
0
VERTEX
8
0
10
721.7903
20
-70.7085
30
0.0
0
VERTEX
8
0
10
722.3369
20
-70.6688
30
0.0
0
VERTEX
8
0
10
722.8590
20
-70.6310
30
0.0
0
VERTEX
8
0
10
723.3565
20
-70.5950
30
0.0
0
VERTEX
8
0
10
723.8292
20
-70.5609
30
0.0
0
VERTEX
8
0
10
724.2771
20
-70.5287
30
0.0
0
VERTEX
8
0
10
724.6999
20
-70.4983
30
0.0
0
VERTEX
8
0
10
725.0977
20
-70.4699
30
0.0
0
VERTEX
8
0
10
725.4702
20
-70.4433
30
0.0
0
VERTEX
8
0
10
725.8175
20
-70.4186
30
0.0
0
VERTEX
8
0
10
726.1394
20
-70.3958
30
0.0
0
VERTEX
8
0
10
726.4358
20
-70.3749
30
0.0
0
VERTEX
8
0
10
726.7067
20
-70.3558
30
0.0
0
VERTEX
8
0
10
726.9520
20
-70.3386
30
0.0
0
VERTEX
8
0
10
727.1717
20
-70.3232
30
0.0
0
VERTEX
8
0
10
727.3656
20
-70.3096
30
0.0
0
VERTEX
8
0
10
727.5338
20
-70.2979
30
0.0
0
VERTEX
8
0
10
727.6762
20
-70.2880
30
0.0
0
VERTEX
8
0
10
727.7927
20
-70.2800
30
0.0
0
VERTEX
8
0
10
727.8834
20
-70.2737
30
0.0
0
VERTEX
8
0
10
727.9482
20
-70.2692
30
0.0
0
VERTEX
8
0
10
727.9870
20
-70.2665
30
0.0
0
VERTEX
8
0
10
728.0000
20
-70.2656
30
0.0
0
SEQEND
0
CIRCLE
8
0
10
582.4000
20
-66.3088
40
5.0000
0
TEXT
8
0
10
580.0000
20
-84.0000
40
4.0000
1
RIB 7/8  STA 1071 MM  (CUT 2X)
0
POLYLINE
8
0
66
1
70
1
0
VERTEX
8
0
10
988.0000
20
-69.7344
30
0.0
0
VERTEX
8
0
10
987.9870
20
-69.7317
30
0.0
0
VERTEX
8
0
10
987.9482
20
-69.7237
30
0.0
0
VERTEX
8
0
10
987.8834
20
-69.7102
30
0.0
0
VERTEX
8
0
10
987.7927
20
-69.6915
30
0.0
0
VERTEX
8
0
10
987.6762
20
-69.6674
30
0.0
0
VERTEX
8
0
10
987.5338
20
-69.6379
30
0.0
0
VERTEX
8
0
10
987.3656
20
-69.6032
30
0.0
0
VERTEX
8
0
10
987.1717
20
-69.5632
30
0.0
0
VERTEX
8
0
10
986.9520
20
-69.5180
30
0.0
0
VERTEX
8
0
10
986.7067
20
-69.4676
30
0.0
0
VERTEX
8
0
10
986.4358
20
-69.4120
30
0.0
0
VERTEX
8
0
10
986.1394
20
-69.3513
30
0.0
0
VERTEX
8
0
10
985.8175
20
-69.2856
30
0.0
0
VERTEX
8
0
10
985.4702
20
-69.2148
30
0.0
0
VERTEX
8
0
10
985.0977
20
-69.1391
30
0.0
0
VERTEX
8
0
10
984.6999
20
-69.0584
30
0.0
0
VERTEX
8
0
10
984.2771
20
-68.9730
30
0.0
0
VERTEX
8
0
10
983.8292
20
-68.8827
30
0.0
0
VERTEX
8
0
10
983.3565
20
-68.7878
30
0.0
0
VERTEX
8
0
10
982.8590
20
-68.6882
30
0.0
0
VERTEX
8
0
10
982.3369
20
-68.5840
30
0.0
0
VERTEX
8
0
10
981.7903
20
-68.4754
30
0.0
0
VERTEX
8
0
10
981.2193
20
-68.3624
30
0.0
0
VERTEX
8
0
10
980.6241
20
-68.2450
30
0.0
0
VERTEX
8
0
10
980.0047
20
-68.1235
30
0.0
0
VERTEX
8
0
10
979.3615
20
-67.9977
30
0.0
0
VERTEX
8
0
10
978.6945
20
-67.8680
30
0.0
0
VERTEX
8
0
10
978.0039
20
-67.7342
30
0.0
0
VERTEX
8
0
10
977.2899
20
-67.5966
30
0.0
0
VERTEX
8
0
10
976.5526
20
-67.4553
30
0.0
0
VERTEX
8
0
10
975.7923
20
-67.3102
30
0.0
0
VERTEX
8
0
10
975.0091
20
-67.1616
30
0.0
0
VERTEX
8
0
10
974.2031
20
-67.0096
30
0.0
0
VERTEX
8
0
10
973.3748
20
-66.8541
30
0.0
0
VERTEX
8
0
10
972.5241
20
-66.6955
30
0.0
0
VERTEX
8
0
10
971.6514
20
-66.5336
30
0.0
0
VERTEX
8
0
10
970.7568
20
-66.3687
30
0.0
0
VERTEX
8
0
10
969.8407
20
-66.2009
30
0.0
0
VERTEX
8
0
10
968.9031
20
-66.0303
30
0.0
0
VERTEX
8
0
10
967.9443
20
-65.8570
30
0.0
0
VERTEX
8
0
10
966.9647
20
-65.6811
30
0.0
0
VERTEX
8
0
10
965.9643
20
-65.5027
30
0.0
0
VERTEX
8
0
10
964.9436
20
-65.3219
30
0.0
0
VERTEX
8
0
10
963.9027
20
-65.1389
30
0.0
0
VERTEX
8
0
10
962.8418
20
-64.9537
30
0.0
0
VERTEX
8
0
10
961.7613
20
-64.7666
30
0.0
0
VERTEX
8
0
10
960.6614
20
-64.5776
30
0.0
0
VERTEX
8
0
10
959.5425
20
-64.3868
30
0.0
0
VERTEX
8
0
10
958.4046
20
-64.1943
30
0.0
0
VERTEX
8
0
10
957.2483
20
-64.0004
30
0.0
0
VERTEX
8
0
10
956.0737
20
-63.8050
30
0.0
0
VERTEX
8
0
10
954.8811
20
-63.6084
30
0.0
0
VERTEX
8
0
10
953.6709
20
-63.4106
30
0.0
0
VERTEX
8
0
10
952.4433
20
-63.2117
30
0.0
0
VERTEX
8
0
10
951.1986
20
-63.0120
30
0.0
0
VERTEX
8
0
10
949.9372
20
-62.8115
30
0.0
0
VERTEX
8
0
10
948.6594
20
-62.6103
30
0.0
0
VERTEX
8
0
10
947.3654
20
-62.4087
30
0.0
0
VERTEX
8
0
10
946.0557
20
-62.2066
30
0.0
0
VERTEX
8
0
10
944.7305
20
-62.0042
30
0.0
0
VERTEX
8
0
10
943.3902
20
-61.8017
30
0.0
0
VERTEX
8
0
10
942.0350
20
-61.5991
30
0.0
0
VERTEX
8
0
10
940.6654
20
-61.3966
30
0.0
0
VERTEX
8
0
10
939.2817
20
-61.1944
30
0.0
0
VERTEX
8
0
10
937.8842
20
-60.9925
30
0.0
0
VERTEX
8
0
10
936.4732
20
-60.7910
30
0.0
0
VERTEX
8
0
10
935.0492
20
-60.5902
30
0.0
0
VERTEX
8
0
10
933.6125
20
-60.3900
30
0.0
0
VERTEX
8
0
10
932.1634
20
-60.1907
30
0.0
0
VERTEX
8
0
10
930.7023
20
-59.9922
30
0.0
0
VERTEX
8
0
10
929.2295
20
-59.7949
30
0.0
0
VERTEX
8
0
10
927.7455
20
-59.5987
30
0.0
0
VERTEX
8
0
10
926.2506
20
-59.4038
30
0.0
0
VERTEX
8
0
10
924.7452
20
-59.2103
30
0.0
0
VERTEX
8
0
10
923.2296
20
-59.0183
30
0.0
0
VERTEX
8
0
10
921.7042
20
-58.8279
30
0.0
0
VERTEX
8
0
10
920.1694
20
-58.6392
30
0.0
0
VERTEX
8
0
10
918.6256
20
-58.4524
30
0.0
0
VERTEX
8
0
10
917.0732
20
-58.2674
30
0.0
0
VERTEX
8
0
10
915.5125
20
-58.0846
30
0.0
0
VERTEX
8
0
10
913.9440
20
-57.9039
30
0.0
0
VERTEX
8
0
10
912.3680
20
-57.7254
30
0.0
0
VERTEX
8
0
10
910.7850
20
-57.5493
30
0.0
0
VERTEX
8
0
10
909.1953
20
-57.3757
30
0.0
0
VERTEX
8
0
10
907.5993
20
-57.2046
30
0.0
0
VERTEX
8
0
10
905.9974
20
-57.0362
30
0.0
0
VERTEX
8
0
10
904.3900
20
-56.8706
30
0.0
0
VERTEX
8
0
10
902.7776
20
-56.7078
30
0.0
0
VERTEX
8
0
10
901.1605
20
-56.5481
30
0.0
0
VERTEX
8
0
10
899.5390
20
-56.3914
30
0.0
0
VERTEX
8
0
10
897.9138
20
-56.2379
30
0.0
0
VERTEX
8
0
10
896.2850
20
-56.0877
30
0.0
0
VERTEX
8
0
10
894.6532
20
-55.9410
30
0.0
0
VERTEX
8
0
10
893.0188
20
-55.7977
30
0.0
0
VERTEX
8
0
10
891.3821
20
-55.6582
30
0.0
0
VERTEX
8
0
10
889.7435
20
-55.5224
30
0.0
0
VERTEX
8
0
10
888.1035
20
-55.3904
30
0.0
0
VERTEX
8
0
10
886.4625
20
-55.2625
30
0.0
0
VERTEX
8
0
10
884.8209
20
-55.1387
30
0.0
0
VERTEX
8
0
10
883.1791
20
-55.0192
30
0.0
0
VERTEX
8
0
10
881.5375
20
-54.9041
30
0.0
0
VERTEX
8
0
10
879.8965
20
-54.7934
30
0.0
0
VERTEX
8
0
10
878.2565
20
-54.6874
30
0.0
0
VERTEX
8
0
10
876.6179
20
-54.5862
30
0.0
0
VERTEX
8
0
10
874.9812
20
-54.4899
30
0.0
0
VERTEX
8
0
10
873.3468
20
-54.3987
30
0.0
0
VERTEX
8
0
10
871.7150
20
-54.3126
30
0.0
0
VERTEX
8
0
10
870.0862
20
-54.2319
30
0.0
0
VERTEX
8
0
10
868.4610
20
-54.1567
30
0.0
0
VERTEX
8
0
10
866.8395
20
-54.0870
30
0.0
0
VERTEX
8
0
10
865.2224
20
-54.0231
30
0.0
0
VERTEX
8
0
10
863.6100
20
-53.9650
30
0.0
0
VERTEX
8
0
10
862.0026
20
-53.9130
30
0.0
0
VERTEX
8
0
10
860.4007
20
-53.8671
30
0.0
0
VERTEX
8
0
10
858.8047
20
-53.8274
30
0.0
0
VERTEX
8
0
10
857.2150
20
-53.7941
30
0.0
0
VERTEX
8
0
10
855.6320
20
-53.7673
30
0.0
0
VERTEX
8
0
10
854.0560
20
-53.7471
30
0.0
0
VERTEX
8
0
10
852.4875
20
-53.7337
30
0.0
0
VERTEX
8
0
10
850.9268
20
-53.7270
30
0.0
0
VERTEX
8
0
10
849.3744
20
-53.7272
30
0.0
0
VERTEX
8
0
10
847.8306
20
-53.7344
30
0.0
0
VERTEX
8
0
10
846.2958
20
-53.7486
30
0.0
0
VERTEX
8
0
10
844.7704
20
-53.7700
30
0.0
0
VERTEX
8
0
10
843.2548
20
-53.7985
30
0.0
0
VERTEX
8
0
10
841.7494
20
-53.8342
30
0.0
0
VERTEX
8
0
10
840.2545
20
-53.8772
30
0.0
0
VERTEX
8
0
10
838.7705
20
-53.9274
30
0.0
0
VERTEX
8
0
10
837.2977
20
-53.9849
30
0.0
0
VERTEX
8
0
10
835.8366
20
-54.0496
30
0.0
0
VERTEX
8
0
10
834.3875
20
-54.1216
30
0.0
0
VERTEX
8
0
10
832.9508
20
-54.2009
30
0.0
0
VERTEX
8
0
10
831.5268
20
-54.2873
30
0.0
0
VERTEX
8
0
10
830.1158
20
-54.3809
30
0.0
0
VERTEX
8
0
10
828.7183
20
-54.4816
30
0.0
0
VERTEX
8
0
10
827.3346
20
-54.5893
30
0.0
0
VERTEX
8
0
10
825.9650
20
-54.7040
30
0.0
0
VERTEX
8
0
10
824.6098
20
-54.8255
30
0.0
0
VERTEX
8
0
10
823.2695
20
-54.9538
30
0.0
0
VERTEX
8
0
10
821.9443
20
-55.0888
30
0.0
0
VERTEX
8
0
10
820.6346
20
-55.2303
30
0.0
0
VERTEX
8
0
10
819.3406
20
-55.3783
30
0.0
0
VERTEX
8
0
10
818.0628
20
-55.5326
30
0.0
0
VERTEX
8
0
10
816.8014
20
-55.6930
30
0.0
0
VERTEX
8
0
10
815.5567
20
-55.8595
30
0.0
0
VERTEX
8
0
10
814.3291
20
-56.0319
30
0.0
0
VERTEX
8
0
10
813.1189
20
-56.2101
30
0.0
0
VERTEX
8
0
10
811.9263
20
-56.3938
30
0.0
0
VERTEX
8
0
10
810.7517
20
-56.5830
30
0.0
0
VERTEX
8
0
10
809.5954
20
-56.7776
30
0.0
0
VERTEX
8
0
10
808.4575
20
-56.9772
30
0.0
0
VERTEX
8
0
10
807.3386
20
-57.1819
30
0.0
0
VERTEX
8
0
10
806.2387
20
-57.3915
30
0.0
0
VERTEX
8
0
10
805.1582
20
-57.6057
30
0.0
0
VERTEX
8
0
10
804.0973
20
-57.8246
30
0.0
0
VERTEX
8
0
10
803.0564
20
-58.0478
30
0.0
0
VERTEX
8
0
10
802.0357
20
-58.2753
30
0.0
0
VERTEX
8
0
10
801.0353
20
-58.5069
30
0.0
0
VERTEX
8
0
10
800.0557
20
-58.7425
30
0.0
0
VERTEX
8
0
10
799.0969
20
-58.9820
30
0.0
0
VERTEX
8
0
10
798.1593
20
-59.2251
30
0.0
0
VERTEX
8
0
10
797.2432
20
-59.4719
30
0.0
0
VERTEX
8
0
10
796.3486
20
-59.7222
30
0.0
0
VERTEX
8
0
10
795.4759
20
-59.9757
30
0.0
0
VERTEX
8
0
10
794.6252
20
-60.2325
30
0.0
0
VERTEX
8
0
10
793.7969
20
-60.4924
30
0.0
0
VERTEX
8
0
10
792.9909
20
-60.7553
30
0.0
0
VERTEX
8
0
10
792.2077
20
-61.0210
30
0.0
0
VERTEX
8
0
10
791.4474
20
-61.2895
30
0.0
0
VERTEX
8
0
10
790.7101
20
-61.5606
30
0.0
0
VERTEX
8
0
10
789.9961
20
-61.8342
30
0.0
0
VERTEX
8
0
10
789.3055
20
-62.1102
30
0.0
0
VERTEX
8
0
10
788.6385
20
-62.3885
30
0.0
0
VERTEX
8
0
10
787.9953
20
-62.6690
30
0.0
0
VERTEX
8
0
10
787.3759
20
-62.9515
30
0.0
0
VERTEX
8
0
10
786.7807
20
-63.2359
30
0.0
0
VERTEX
8
0
10
786.2097
20
-63.5222
30
0.0
0
VERTEX
8
0
10
785.6631
20
-63.8101
30
0.0
0
VERTEX
8
0
10
785.1410
20
-64.0995
30
0.0
0
VERTEX
8
0
10
784.6435
20
-64.3904
30
0.0
0
VERTEX
8
0
10
784.1708
20
-64.6826
30
0.0
0
VERTEX
8
0
10
783.7229
20
-64.9759
30
0.0
0
VERTEX
8
0
10
783.3001
20
-65.2703
30
0.0
0
VERTEX
8
0
10
782.9023
20
-65.5655
30
0.0
0
VERTEX
8
0
10
782.5298
20
-65.8614
30
0.0
0
VERTEX
8
0
10
782.1825
20
-66.1579
30
0.0
0
VERTEX
8
0
10
781.8606
20
-66.4549
30
0.0
0
VERTEX
8
0
10
781.5642
20
-66.7521
30
0.0
0
VERTEX
8
0
10
781.2933
20
-67.0495
30
0.0
0
VERTEX
8
0
10
781.0480
20
-67.3469
30
0.0
0
VERTEX
8
0
10
780.8283
20
-67.6442
30
0.0
0
VERTEX
8
0
10
780.6344
20
-67.9411
30
0.0
0
VERTEX
8
0
10
780.4662
20
-68.2376
30
0.0
0
VERTEX
8
0
10
780.3238
20
-68.5335
30
0.0
0
VERTEX
8
0
10
780.2073
20
-68.8288
30
0.0
0
VERTEX
8
0
10
780.1166
20
-69.1231
30
0.0
0
VERTEX
8
0
10
780.0518
20
-69.4165
30
0.0
0
VERTEX
8
0
10
780.0130
20
-69.7089
30
0.0
0
VERTEX
8
0
10
780.0000
20
-70.0000
30
0.0
0
VERTEX
8
0
10
780.0130
20
-70.2786
30
0.0
0
VERTEX
8
0
10
780.0518
20
-70.5556
30
0.0
0
VERTEX
8
0
10
780.1166
20
-70.8307
30
0.0
0
VERTEX
8
0
10
780.2073
20
-71.1036
30
0.0
0
VERTEX
8
0
10
780.3238
20
-71.3740
30
0.0
0
VERTEX
8
0
10
780.4662
20
-71.6417
30
0.0
0
VERTEX
8
0
10
780.6344
20
-71.9063
30
0.0
0
VERTEX
8
0
10
780.8283
20
-72.1676
30
0.0
0
VERTEX
8
0
10
781.0480
20
-72.4254
30
0.0
0
VERTEX
8
0
10
781.2933
20
-72.6794
30
0.0
0
VERTEX
8
0
10
781.5642
20
-72.9294
30
0.0
0
VERTEX
8
0
10
781.8606
20
-73.1752
30
0.0
0
VERTEX
8
0
10
782.1825
20
-73.4167
30
0.0
0
VERTEX
8
0
10
782.5298
20
-73.6537
30
0.0
0
VERTEX
8
0
10
782.9023
20
-73.8860
30
0.0
0
VERTEX
8
0
10
783.3001
20
-74.1135
30
0.0
0
VERTEX
8
0
10
783.7229
20
-74.3361
30
0.0
0
VERTEX
8
0
10
784.1708
20
-74.5537
30
0.0
0
VERTEX
8
0
10
784.6435
20
-74.7662
30
0.0
0
VERTEX
8
0
10
785.1410
20
-74.9735
30
0.0
0
VERTEX
8
0
10
785.6631
20
-75.1756
30
0.0
0
VERTEX
8
0
10
786.2097
20
-75.3724
30
0.0
0
VERTEX
8
0
10
786.7807
20
-75.5639
30
0.0
0
VERTEX
8
0
10
787.3759
20
-75.7500
30
0.0
0
VERTEX
8
0
10
787.9953
20
-75.9308
30
0.0
0
VERTEX
8
0
10
788.6385
20
-76.1062
30
0.0
0
VERTEX
8
0
10
789.3055
20
-76.2762
30
0.0
0
VERTEX
8
0
10
789.9961
20
-76.4409
30
0.0
0
VERTEX
8
0
10
790.7101
20
-76.6002
30
0.0
0
VERTEX
8
0
10
791.4474
20
-76.7541
30
0.0
0
VERTEX
8
0
10
792.2077
20
-76.9028
30
0.0
0
VERTEX
8
0
10
792.9909
20
-77.0461
30
0.0
0
VERTEX
8
0
10
793.7969
20
-77.1841
30
0.0
0
VERTEX
8
0
10
794.6252
20
-77.3169
30
0.0
0
VERTEX
8
0
10
795.4759
20
-77.4445
30
0.0
0
VERTEX
8
0
10
796.3486
20
-77.5669
30
0.0
0
VERTEX
8
0
10
797.2432
20
-77.6841
30
0.0
0
VERTEX
8
0
10
798.1593
20
-77.7962
30
0.0
0
VERTEX
8
0
10
799.0969
20
-77.9031
30
0.0
0
VERTEX
8
0
10
800.0557
20
-78.0051
30
0.0
0
VERTEX
8
0
10
801.0353
20
-78.1019
30
0.0
0
VERTEX
8
0
10
802.0357
20
-78.1938
30
0.0
0
VERTEX
8
0
10
803.0564
20
-78.2807
30
0.0
0
VERTEX
8
0
10
804.0973
20
-78.3626
30
0.0
0
VERTEX
8
0
10
805.1582
20
-78.4397
30
0.0
0
VERTEX
8
0
10
806.2387
20
-78.5118
30
0.0
0
VERTEX
8
0
10
807.3386
20
-78.5791
30
0.0
0
VERTEX
8
0
10
808.4575
20
-78.6416
30
0.0
0
VERTEX
8
0
10
809.5954
20
-78.6994
30
0.0
0
VERTEX
8
0
10
810.7517
20
-78.7524
30
0.0
0
VERTEX
8
0
10
811.9263
20
-78.8007
30
0.0
0
VERTEX
8
0
10
813.1189
20
-78.8445
30
0.0
0
VERTEX
8
0
10
814.3291
20
-78.8836
30
0.0
0
VERTEX
8
0
10
815.5567
20
-78.9182
30
0.0
0
VERTEX
8
0
10
816.8014
20
-78.9483
30
0.0
0
VERTEX
8
0
10
818.0628
20
-78.9740
30
0.0
0
VERTEX
8
0
10
819.3406
20
-78.9953
30
0.0
0
VERTEX
8
0
10
820.6346
20
-79.0124
30
0.0
0
VERTEX
8
0
10
821.9443
20
-79.0253
30
0.0
0
VERTEX
8
0
10
823.2695
20
-79.0341
30
0.0
0
VERTEX
8
0
10
824.6098
20
-79.0388
30
0.0
0
VERTEX
8
0
10
825.9650
20
-79.0396
30
0.0
0
VERTEX
8
0
10
827.3346
20
-79.0365
30
0.0
0
VERTEX
8
0
10
828.7183
20
-79.0297
30
0.0
0
VERTEX
8
0
10
830.1158
20
-79.0192
30
0.0
0
VERTEX
8
0
10
831.5268
20
-79.0051
30
0.0
0
VERTEX
8
0
10
832.9508
20
-78.9876
30
0.0
0
VERTEX
8
0
10
834.3875
20
-78.9667
30
0.0
0
VERTEX
8
0
10
835.8366
20
-78.9426
30
0.0
0
VERTEX
8
0
10
837.2977
20
-78.9153
30
0.0
0
VERTEX
8
0
10
838.7705
20
-78.8850
30
0.0
0
VERTEX
8
0
10
840.2545
20
-78.8517
30
0.0
0
VERTEX
8
0
10
841.7494
20
-78.8156
30
0.0
0
VERTEX
8
0
10
843.2548
20
-78.7768
30
0.0
0
VERTEX
8
0
10
844.7704
20
-78.7354
30
0.0
0
VERTEX
8
0
10
846.2958
20
-78.6914
30
0.0
0
VERTEX
8
0
10
847.8306
20
-78.6450
30
0.0
0
VERTEX
8
0
10
849.3744
20
-78.5963
30
0.0
0
VERTEX
8
0
10
850.9268
20
-78.5452
30
0.0
0
VERTEX
8
0
10
852.4875
20
-78.4921
30
0.0
0
VERTEX
8
0
10
854.0560
20
-78.4368
30
0.0
0
VERTEX
8
0
10
855.6320
20
-78.3794
30
0.0
0
VERTEX
8
0
10
857.2150
20
-78.3202
30
0.0
0
VERTEX
8
0
10
858.8047
20
-78.2590
30
0.0
0
VERTEX
8
0
10
860.4007
20
-78.1960
30
0.0
0
VERTEX
8
0
10
862.0026
20
-78.1311
30
0.0
0
VERTEX
8
0
10
863.6100
20
-78.0646
30
0.0
0
VERTEX
8
0
10
865.2224
20
-77.9963
30
0.0
0
VERTEX
8
0
10
866.8395
20
-77.9264
30
0.0
0
VERTEX
8
0
10
868.4610
20
-77.8548
30
0.0
0
VERTEX
8
0
10
870.0862
20
-77.7817
30
0.0
0
VERTEX
8
0
10
871.7150
20
-77.7070
30
0.0
0
VERTEX
8
0
10
873.3468
20
-77.6308
30
0.0
0
VERTEX
8
0
10
874.9812
20
-77.5530
30
0.0
0
VERTEX
8
0
10
876.6179
20
-77.4738
30
0.0
0
VERTEX
8
0
10
878.2565
20
-77.3931
30
0.0
0
VERTEX
8
0
10
879.8965
20
-77.3110
30
0.0
0
VERTEX
8
0
10
881.5375
20
-77.2275
30
0.0
0
VERTEX
8
0
10
883.1791
20
-77.1426
30
0.0
0
VERTEX
8
0
10
884.8209
20
-77.0563
30
0.0
0
VERTEX
8
0
10
886.4625
20
-76.9688
30
0.0
0
VERTEX
8
0
10
888.1035
20
-76.8799
30
0.0
0
VERTEX
8
0
10
889.7435
20
-76.7899
30
0.0
0
VERTEX
8
0
10
891.3821
20
-76.6986
30
0.0
0
VERTEX
8
0
10
893.0188
20
-76.6062
30
0.0
0
VERTEX
8
0
10
894.6532
20
-76.5127
30
0.0
0
VERTEX
8
0
10
896.2850
20
-76.4182
30
0.0
0
VERTEX
8
0
10
897.9138
20
-76.3227
30
0.0
0
VERTEX
8
0
10
899.5390
20
-76.2262
30
0.0
0
VERTEX
8
0
10
901.1605
20
-76.1289
30
0.0
0
VERTEX
8
0
10
902.7776
20
-76.0309
30
0.0
0
VERTEX
8
0
10
904.3900
20
-75.9321
30
0.0
0
VERTEX
8
0
10
905.9974
20
-75.8327
30
0.0
0
VERTEX
8
0
10
907.5993
20
-75.7327
30
0.0
0
VERTEX
8
0
10
909.1953
20
-75.6323
30
0.0
0
VERTEX
8
0
10
910.7850
20
-75.5315
30
0.0
0
VERTEX
8
0
10
912.3680
20
-75.4304
30
0.0
0
VERTEX
8
0
10
913.9440
20
-75.3292
30
0.0
0
VERTEX
8
0
10
915.5125
20
-75.2278
30
0.0
0
VERTEX
8
0
10
917.0732
20
-75.1263
30
0.0
0
VERTEX
8
0
10
918.6256
20
-75.0250
30
0.0
0
VERTEX
8
0
10
920.1694
20
-74.9237
30
0.0
0
VERTEX
8
0
10
921.7042
20
-74.8227
30
0.0
0
VERTEX
8
0
10
923.2296
20
-74.7220
30
0.0
0
VERTEX
8
0
10
924.7452
20
-74.6217
30
0.0
0
VERTEX
8
0
10
926.2506
20
-74.5218
30
0.0
0
VERTEX
8
0
10
927.7455
20
-74.4224
30
0.0
0
VERTEX
8
0
10
929.2295
20
-74.3237
30
0.0
0
VERTEX
8
0
10
930.7023
20
-74.2255
30
0.0
0
VERTEX
8
0
10
932.1634
20
-74.1281
30
0.0
0
VERTEX
8
0
10
933.6125
20
-74.0314
30
0.0
0
VERTEX
8
0
10
935.0492
20
-73.9355
30
0.0
0
VERTEX
8
0
10
936.4732
20
-73.8404
30
0.0
0
VERTEX
8
0
10
937.8842
20
-73.7462
30
0.0
0
VERTEX
8
0
10
939.2817
20
-73.6528
30
0.0
0
VERTEX
8
0
10
940.6654
20
-73.5604
30
0.0
0
VERTEX
8
0
10
942.0350
20
-73.4689
30
0.0
0
VERTEX
8
0
10
943.3902
20
-73.3784
30
0.0
0
VERTEX
8
0
10
944.7305
20
-73.2888
30
0.0
0
VERTEX
8
0
10
946.0557
20
-73.2002
30
0.0
0
VERTEX
8
0
10
947.3654
20
-73.1126
30
0.0
0
VERTEX
8
0
10
948.6594
20
-73.0260
30
0.0
0
VERTEX
8
0
10
949.9372
20
-72.9403
30
0.0
0
VERTEX
8
0
10
951.1986
20
-72.8557
30
0.0
0
VERTEX
8
0
10
952.4433
20
-72.7720
30
0.0
0
VERTEX
8
0
10
953.6709
20
-72.6894
30
0.0
0
VERTEX
8
0
10
954.8811
20
-72.6077
30
0.0
0
VERTEX
8
0
10
956.0737
20
-72.5270
30
0.0
0
VERTEX
8
0
10
957.2483
20
-72.4473
30
0.0
0
VERTEX
8
0
10
958.4046
20
-72.3686
30
0.0
0
VERTEX
8
0
10
959.5425
20
-72.2909
30
0.0
0
VERTEX
8
0
10
960.6614
20
-72.2143
30
0.0
0
VERTEX
8
0
10
961.7613
20
-72.1387
30
0.0
0
VERTEX
8
0
10
962.8418
20
-72.0641
30
0.0
0
VERTEX
8
0
10
963.9027
20
-71.9906
30
0.0
0
VERTEX
8
0
10
964.9436
20
-71.9182
30
0.0
0
VERTEX
8
0
10
965.9643
20
-71.8469
30
0.0
0
VERTEX
8
0
10
966.9647
20
-71.7767
30
0.0
0
VERTEX
8
0
10
967.9443
20
-71.7077
30
0.0
0
VERTEX
8
0
10
968.9031
20
-71.6399
30
0.0
0
VERTEX
8
0
10
969.8407
20
-71.5734
30
0.0
0
VERTEX
8
0
10
970.7568
20
-71.5081
30
0.0
0
VERTEX
8
0
10
971.6514
20
-71.4441
30
0.0
0
VERTEX
8
0
10
972.5241
20
-71.3815
30
0.0
0
VERTEX
8
0
10
973.3748
20
-71.3202
30
0.0
0
VERTEX
8
0
10
974.2031
20
-71.2604
30
0.0
0
VERTEX
8
0
10
975.0091
20
-71.2021
30
0.0
0
VERTEX
8
0
10
975.7923
20
-71.1453
30
0.0
0
VERTEX
8
0
10
976.5526
20
-71.0901
30
0.0
0
VERTEX
8
0
10
977.2899
20
-71.0364
30
0.0
0
VERTEX
8
0
10
978.0039
20
-70.9844
30
0.0
0
VERTEX
8
0
10
978.6945
20
-70.9340
30
0.0
0
VERTEX
8
0
10
979.3615
20
-70.8854
30
0.0
0
VERTEX
8
0
10
980.0047
20
-70.8385
30
0.0
0
VERTEX
8
0
10
980.6241
20
-70.7934
30
0.0
0
VERTEX
8
0
10
981.2193
20
-70.7500
30
0.0
0
VERTEX
8
0
10
981.7903
20
-70.7085
30
0.0
0
VERTEX
8
0
10
982.3369
20
-70.6688
30
0.0
0
VERTEX
8
0
10
982.8590
20
-70.6310
30
0.0
0
VERTEX
8
0
10
983.3565
20
-70.5950
30
0.0
0
VERTEX
8
0
10
983.8292
20
-70.5609
30
0.0
0
VERTEX
8
0
10
984.2771
20
-70.5287
30
0.0
0
VERTEX
8
0
10
984.6999
20
-70.4983
30
0.0
0
VERTEX
8
0
10
985.0977
20
-70.4699
30
0.0
0
VERTEX
8
0
10
985.4702
20
-70.4433
30
0.0
0
VERTEX
8
0
10
985.8175
20
-70.4186
30
0.0
0
VERTEX
8
0
10
986.1394
20
-70.3958
30
0.0
0
VERTEX
8
0
10
986.4358
20
-70.3749
30
0.0
0
VERTEX
8
0
10
986.7067
20
-70.3558
30
0.0
0
VERTEX
8
0
10
986.9520
20
-70.3386
30
0.0
0
VERTEX
8
0
10
987.1717
20
-70.3232
30
0.0
0
VERTEX
8
0
10
987.3656
20
-70.3096
30
0.0
0
VERTEX
8
0
10
987.5338
20
-70.2979
30
0.0
0
VERTEX
8
0
10
987.6762
20
-70.2880
30
0.0
0
VERTEX
8
0
10
987.7927
20
-70.2800
30
0.0
0
VERTEX
8
0
10
987.8834
20
-70.2737
30
0.0
0
VERTEX
8
0
10
987.9482
20
-70.2692
30
0.0
0
VERTEX
8
0
10
987.9870
20
-70.2665
30
0.0
0
VERTEX
8
0
10
988.0000
20
-70.2656
30
0.0
0
SEQEND
0
CIRCLE
8
0
10
842.4000
20
-66.3088
40
5.0000
0
TEXT
8
0
10
840.0000
20
-84.0000
40
4.0000
1
RIB 8/8  STA 1250 MM  (CUT 2X)
0
TEXT
8
0
10
0.0000
20
-110.0000
40
6.0000
1
RIBS: TIER-1 CST SECTION, CHORD 208.0 MM, SPAR HOLE 10 MM DIA AT 30% CHORD - UNITS MM
0
TEXT
8
0
10
0.0000
20
-122.0000
40
4.5000
1
STATIONS PER PANEL 0..1250 MM AT 178.6 MM PITCH - 8 RIBS X 2 PANELS
0
ENDSEC
0
EOF
